M48
; DRILL file {KiCad (5.1.9)-1} date 09/27/23 08:13:34
; FORMAT={-:-/ absolute / metric / decimal}
; #@! TF.CreationDate,2023-09-27T08:13:34+09:00
; #@! TF.GenerationSoftware,Kicad,Pcbnew,(5.1.9)-1
FMAT,2
METRIC
T1C0.300
T2C1.000
%
G90
G05
T1
X11.176Y50.092
X65.743Y50.47
T2
X11.176Y16.11
X11.176Y13.57
X13.716Y16.11
X13.716Y13.57
X16.256Y16.11
X16.256Y13.57
X18.796Y16.11
X18.796Y13.57
X21.336Y16.11
X21.336Y13.57
X23.876Y16.11
X23.876Y13.57
X26.416Y16.11
X26.416Y13.57
X28.956Y16.11
X28.956Y13.57
X31.496Y16.11
X31.496Y13.57
X34.036Y16.11
X34.036Y13.57
X36.576Y16.11
X36.576Y13.57
X39.116Y16.11
X39.116Y13.57
X41.656Y16.11
X41.656Y13.57
X44.196Y16.11
X44.196Y13.57
X46.736Y16.11
X46.736Y13.57
X49.276Y16.11
X49.276Y13.57
X51.816Y16.11
X51.816Y13.57
X54.356Y16.11
X54.356Y13.57
X56.896Y16.11
X56.896Y13.57
X59.436Y16.11
X59.436Y13.57
X61.976Y16.11
X61.976Y13.57
X64.516Y16.11
X64.516Y13.57
T0
M30
