G04 #@! TF.GenerationSoftware,KiCad,Pcbnew,(5.1.9)-1*
G04 #@! TF.CreationDate,2023-09-27T08:13:32+09:00*
G04 #@! TF.ProjectId,CZ800EX,435a3830-3045-4582-9e6b-696361645f70,rev?*
G04 #@! TF.SameCoordinates,PX2faf080PY6f1a620*
G04 #@! TF.FileFunction,Copper,L2,Bot*
G04 #@! TF.FilePolarity,Positive*
%FSLAX46Y46*%
G04 Gerber Fmt 4.6, Leading zero omitted, Abs format (unit mm)*
G04 Created by KiCad (PCBNEW (5.1.9)-1) date 2023-09-27 08:13:32*
%MOMM*%
%LPD*%
G01*
G04 APERTURE LIST*
G04 #@! TA.AperFunction,ConnectorPad*
%ADD10R,1.780000X10.000000*%
G04 #@! TD*
G04 #@! TA.AperFunction,ComponentPad*
%ADD11O,1.700000X1.700000*%
G04 #@! TD*
G04 #@! TA.AperFunction,ComponentPad*
%ADD12R,1.700000X1.700000*%
G04 #@! TD*
G04 #@! TA.AperFunction,ViaPad*
%ADD13C,0.500000*%
G04 #@! TD*
G04 #@! TA.AperFunction,Conductor*
%ADD14C,0.200000*%
G04 #@! TD*
G04 #@! TA.AperFunction,Conductor*
%ADD15C,0.254000*%
G04 #@! TD*
G04 #@! TA.AperFunction,Conductor*
%ADD16C,0.100000*%
G04 #@! TD*
G04 APERTURE END LIST*
D10*
X11176000Y55770000D03*
X13716000Y55770000D03*
X16256000Y55770000D03*
X18796000Y55770000D03*
X21336000Y55770000D03*
X23876000Y55770000D03*
X26416000Y55770000D03*
X28956000Y55770000D03*
X31496000Y55770000D03*
X34036000Y55770000D03*
X36576000Y55770000D03*
X39116000Y55770000D03*
X41656000Y55770000D03*
X44196000Y55770000D03*
X46736000Y55770000D03*
X49276000Y55770000D03*
X51816000Y55770000D03*
X54356000Y55770000D03*
X56896000Y55770000D03*
X59436000Y55770000D03*
X61976000Y55770000D03*
X64516000Y55770000D03*
D11*
X64516000Y16110000D03*
X64516000Y13570000D03*
X61976000Y16110000D03*
X61976000Y13570000D03*
X59436000Y16110000D03*
X59436000Y13570000D03*
X56896000Y16110000D03*
X56896000Y13570000D03*
X54356000Y16110000D03*
X54356000Y13570000D03*
X51816000Y16110000D03*
X51816000Y13570000D03*
X49276000Y16110000D03*
X49276000Y13570000D03*
X46736000Y16110000D03*
X46736000Y13570000D03*
X44196000Y16110000D03*
X44196000Y13570000D03*
X41656000Y16110000D03*
X41656000Y13570000D03*
X39116000Y16110000D03*
X39116000Y13570000D03*
X36576000Y16110000D03*
X36576000Y13570000D03*
X34036000Y16110000D03*
X34036000Y13570000D03*
X31496000Y16110000D03*
X31496000Y13570000D03*
X28956000Y16110000D03*
X28956000Y13570000D03*
X26416000Y16110000D03*
X26416000Y13570000D03*
X23876000Y16110000D03*
X23876000Y13570000D03*
X21336000Y16110000D03*
X21336000Y13570000D03*
X18796000Y16110000D03*
X18796000Y13570000D03*
X16256000Y16110000D03*
X16256000Y13570000D03*
X13716000Y16110000D03*
X13716000Y13570000D03*
X11176000Y16110000D03*
D12*
X11176000Y13570000D03*
D13*
X11176000Y50092100D03*
X65743500Y50469700D03*
D14*
X11176000Y50092100D02*
X11176000Y55770000D01*
X11176000Y16110000D02*
X11176000Y50092100D01*
X11176000Y13570000D02*
X11176000Y16110000D01*
X41656000Y13570000D02*
X41656000Y14720300D01*
X41656000Y55770000D02*
X41656000Y50469700D01*
X41656000Y50469700D02*
X42846400Y49279300D01*
X42846400Y49279300D02*
X42846400Y15672400D01*
X42846400Y15672400D02*
X41894300Y14720300D01*
X41894300Y14720300D02*
X41656000Y14720300D01*
X64516000Y50469700D02*
X64516000Y55770000D01*
X64516000Y16110000D02*
X64516000Y50469700D01*
X64516000Y50469700D02*
X65743500Y50469700D01*
X13716000Y55770000D02*
X13716000Y50469700D01*
X13716000Y13570000D02*
X13716000Y14720300D01*
X13716000Y14720300D02*
X14003600Y14720300D01*
X14003600Y14720300D02*
X14906300Y15623000D01*
X14906300Y15623000D02*
X14906300Y49279400D01*
X14906300Y49279400D02*
X13716000Y50469700D01*
X16256000Y55770000D02*
X16256000Y50469700D01*
X16256000Y13570000D02*
X16256000Y14720300D01*
X16256000Y14720300D02*
X16543600Y14720300D01*
X16543600Y14720300D02*
X17430700Y15607400D01*
X17430700Y15607400D02*
X17430700Y49295000D01*
X17430700Y49295000D02*
X16256000Y50469700D01*
X18796000Y55770000D02*
X18796000Y50469700D01*
X18796000Y13570000D02*
X18796000Y14720300D01*
X18796000Y14720300D02*
X19083600Y14720300D01*
X19083600Y14720300D02*
X19976900Y15613600D01*
X19976900Y15613600D02*
X19976900Y49288800D01*
X19976900Y49288800D02*
X18796000Y50469700D01*
X21336000Y55770000D02*
X21336000Y50469700D01*
X21336000Y13570000D02*
X21336000Y14720300D01*
X21336000Y14720300D02*
X21623600Y14720300D01*
X21623600Y14720300D02*
X22516900Y15613600D01*
X22516900Y15613600D02*
X22516900Y49288800D01*
X22516900Y49288800D02*
X21336000Y50469700D01*
X23876000Y55770000D02*
X23876000Y50469700D01*
X23876000Y13570000D02*
X23876000Y14720300D01*
X23876000Y14720300D02*
X24163600Y14720300D01*
X24163600Y14720300D02*
X25039300Y15596000D01*
X25039300Y15596000D02*
X25039300Y49306400D01*
X25039300Y49306400D02*
X23876000Y50469700D01*
X28956000Y55770000D02*
X28956000Y50469700D01*
X28956000Y13570000D02*
X28956000Y14720300D01*
X28956000Y14720300D02*
X29243600Y14720300D01*
X29243600Y14720300D02*
X30120400Y15597100D01*
X30120400Y15597100D02*
X30120400Y49305300D01*
X30120400Y49305300D02*
X28956000Y50469700D01*
X31496000Y55770000D02*
X31496000Y50469700D01*
X31496000Y13570000D02*
X31496000Y14720300D01*
X31496000Y14720300D02*
X31783600Y14720300D01*
X31783600Y14720300D02*
X32663600Y15600300D01*
X32663600Y15600300D02*
X32663600Y49302100D01*
X32663600Y49302100D02*
X31496000Y50469700D01*
X34036000Y55770000D02*
X34036000Y50469700D01*
X34036000Y13570000D02*
X34036000Y14720300D01*
X34036000Y14720300D02*
X34323600Y14720300D01*
X34323600Y14720300D02*
X35202000Y15598700D01*
X35202000Y15598700D02*
X35202000Y49303700D01*
X35202000Y49303700D02*
X34036000Y50469700D01*
X36576000Y55770000D02*
X36576000Y50469700D01*
X36576000Y13570000D02*
X36576000Y14720300D01*
X36576000Y14720300D02*
X36863600Y14720300D01*
X36863600Y14720300D02*
X37756900Y15613600D01*
X37756900Y15613600D02*
X37756900Y49288800D01*
X37756900Y49288800D02*
X36576000Y50469700D01*
X39116000Y50469700D02*
X39116000Y47825400D01*
X39116000Y47825400D02*
X40279100Y46662300D01*
X40279100Y46662300D02*
X40279100Y15595800D01*
X40279100Y15595800D02*
X39403600Y14720300D01*
X39403600Y14720300D02*
X39116000Y14720300D01*
X39116000Y55770000D02*
X39116000Y50469700D01*
X39116000Y13570000D02*
X39116000Y14720300D01*
X44196000Y55770000D02*
X44196000Y50469700D01*
X44196000Y13570000D02*
X44196000Y14720300D01*
X44196000Y14720300D02*
X44483600Y14720300D01*
X44483600Y14720300D02*
X45376900Y15613600D01*
X45376900Y15613600D02*
X45376900Y49288800D01*
X45376900Y49288800D02*
X44196000Y50469700D01*
X46736000Y55770000D02*
X46736000Y50469700D01*
X46736000Y13570000D02*
X46736000Y14720300D01*
X46736000Y14720300D02*
X47023600Y14720300D01*
X47023600Y14720300D02*
X47916900Y15613600D01*
X47916900Y15613600D02*
X47916900Y49288800D01*
X47916900Y49288800D02*
X46736000Y50469700D01*
X49276000Y55770000D02*
X49276000Y50469700D01*
X49276000Y13570000D02*
X49276000Y14720300D01*
X49276000Y14720300D02*
X49563600Y14720300D01*
X49563600Y14720300D02*
X50456900Y15613600D01*
X50456900Y15613600D02*
X50456900Y49288800D01*
X50456900Y49288800D02*
X49276000Y50469700D01*
X51816000Y55770000D02*
X51816000Y50469700D01*
X51816000Y13570000D02*
X51816000Y14720300D01*
X51816000Y14720300D02*
X52103600Y14720300D01*
X52103600Y14720300D02*
X52996900Y15613600D01*
X52996900Y15613600D02*
X52996900Y49288800D01*
X52996900Y49288800D02*
X51816000Y50469700D01*
X54356000Y55770000D02*
X54356000Y50469700D01*
X54356000Y13570000D02*
X54356000Y14720300D01*
X54356000Y14720300D02*
X54643600Y14720300D01*
X54643600Y14720300D02*
X55536900Y15613600D01*
X55536900Y15613600D02*
X55536900Y49288800D01*
X55536900Y49288800D02*
X54356000Y50469700D01*
X56896000Y55770000D02*
X56896000Y50469700D01*
X56896000Y13570000D02*
X56896000Y14720300D01*
X56896000Y14720300D02*
X57183600Y14720300D01*
X57183600Y14720300D02*
X58076900Y15613600D01*
X58076900Y15613600D02*
X58076900Y49288800D01*
X58076900Y49288800D02*
X56896000Y50469700D01*
X59436000Y55770000D02*
X59436000Y50469700D01*
X59436000Y13570000D02*
X59436000Y14720300D01*
X59436000Y14720300D02*
X59723600Y14720300D01*
X59723600Y14720300D02*
X60616900Y15613600D01*
X60616900Y15613600D02*
X60616900Y49288800D01*
X60616900Y49288800D02*
X59436000Y50469700D01*
X61976000Y55770000D02*
X61976000Y50469700D01*
X61976000Y13570000D02*
X61976000Y14720300D01*
X61976000Y14720300D02*
X62263600Y14720300D01*
X62263600Y14720300D02*
X63156900Y15613600D01*
X63156900Y15613600D02*
X63156900Y49288800D01*
X63156900Y49288800D02*
X61976000Y50469700D01*
X26416000Y55770000D02*
X26416000Y50469700D01*
X26416000Y13570000D02*
X26416000Y14720300D01*
X26416000Y14720300D02*
X26703600Y14720300D01*
X26703600Y14720300D02*
X27589200Y15605900D01*
X27589200Y15605900D02*
X27589200Y49296500D01*
X27589200Y49296500D02*
X26416000Y50469700D01*
D15*
X10325010Y49833955D02*
X10391723Y49672895D01*
X10441001Y49599146D01*
X10441000Y17404883D01*
X10229368Y17263475D01*
X10022525Y17056632D01*
X9860010Y16813411D01*
X9748068Y16543158D01*
X9691000Y16256260D01*
X9691000Y15963740D01*
X9748068Y15676842D01*
X9860010Y15406589D01*
X10022525Y15163368D01*
X10154380Y15031513D01*
X10081820Y15009502D01*
X9971506Y14950537D01*
X9874815Y14871185D01*
X9795463Y14774494D01*
X9736498Y14664180D01*
X9700188Y14544482D01*
X9687928Y14420000D01*
X9687928Y12720000D01*
X9700188Y12595518D01*
X9736498Y12475820D01*
X9795463Y12365506D01*
X9874815Y12268815D01*
X9971506Y12189463D01*
X10081820Y12130498D01*
X10201518Y12094188D01*
X10326000Y12081928D01*
X12026000Y12081928D01*
X12150482Y12094188D01*
X12270180Y12130498D01*
X12380494Y12189463D01*
X12477185Y12268815D01*
X12556537Y12365506D01*
X12615502Y12475820D01*
X12637513Y12548380D01*
X12769368Y12416525D01*
X13012589Y12254010D01*
X13282842Y12142068D01*
X13569740Y12085000D01*
X13862260Y12085000D01*
X14149158Y12142068D01*
X14419411Y12254010D01*
X14662632Y12416525D01*
X14869475Y12623368D01*
X14986000Y12797760D01*
X15102525Y12623368D01*
X15309368Y12416525D01*
X15552589Y12254010D01*
X15822842Y12142068D01*
X16109740Y12085000D01*
X16402260Y12085000D01*
X16689158Y12142068D01*
X16959411Y12254010D01*
X17202632Y12416525D01*
X17409475Y12623368D01*
X17526000Y12797760D01*
X17642525Y12623368D01*
X17849368Y12416525D01*
X18092589Y12254010D01*
X18362842Y12142068D01*
X18649740Y12085000D01*
X18942260Y12085000D01*
X19229158Y12142068D01*
X19499411Y12254010D01*
X19742632Y12416525D01*
X19949475Y12623368D01*
X20066000Y12797760D01*
X20182525Y12623368D01*
X20389368Y12416525D01*
X20632589Y12254010D01*
X20902842Y12142068D01*
X21189740Y12085000D01*
X21482260Y12085000D01*
X21769158Y12142068D01*
X22039411Y12254010D01*
X22282632Y12416525D01*
X22489475Y12623368D01*
X22606000Y12797760D01*
X22722525Y12623368D01*
X22929368Y12416525D01*
X23172589Y12254010D01*
X23442842Y12142068D01*
X23729740Y12085000D01*
X24022260Y12085000D01*
X24309158Y12142068D01*
X24579411Y12254010D01*
X24822632Y12416525D01*
X25029475Y12623368D01*
X25146000Y12797760D01*
X25262525Y12623368D01*
X25469368Y12416525D01*
X25712589Y12254010D01*
X25982842Y12142068D01*
X26269740Y12085000D01*
X26562260Y12085000D01*
X26849158Y12142068D01*
X27119411Y12254010D01*
X27362632Y12416525D01*
X27569475Y12623368D01*
X27686000Y12797760D01*
X27802525Y12623368D01*
X28009368Y12416525D01*
X28252589Y12254010D01*
X28522842Y12142068D01*
X28809740Y12085000D01*
X29102260Y12085000D01*
X29389158Y12142068D01*
X29659411Y12254010D01*
X29902632Y12416525D01*
X30109475Y12623368D01*
X30226000Y12797760D01*
X30342525Y12623368D01*
X30549368Y12416525D01*
X30792589Y12254010D01*
X31062842Y12142068D01*
X31349740Y12085000D01*
X31642260Y12085000D01*
X31929158Y12142068D01*
X32199411Y12254010D01*
X32442632Y12416525D01*
X32649475Y12623368D01*
X32766000Y12797760D01*
X32882525Y12623368D01*
X33089368Y12416525D01*
X33332589Y12254010D01*
X33602842Y12142068D01*
X33889740Y12085000D01*
X34182260Y12085000D01*
X34469158Y12142068D01*
X34739411Y12254010D01*
X34982632Y12416525D01*
X35189475Y12623368D01*
X35306000Y12797760D01*
X35422525Y12623368D01*
X35629368Y12416525D01*
X35872589Y12254010D01*
X36142842Y12142068D01*
X36429740Y12085000D01*
X36722260Y12085000D01*
X37009158Y12142068D01*
X37279411Y12254010D01*
X37522632Y12416525D01*
X37729475Y12623368D01*
X37846000Y12797760D01*
X37962525Y12623368D01*
X38169368Y12416525D01*
X38412589Y12254010D01*
X38682842Y12142068D01*
X38969740Y12085000D01*
X39262260Y12085000D01*
X39549158Y12142068D01*
X39819411Y12254010D01*
X40062632Y12416525D01*
X40269475Y12623368D01*
X40391195Y12805534D01*
X40460822Y12688645D01*
X40655731Y12472412D01*
X40889080Y12298359D01*
X41151901Y12173175D01*
X41299110Y12128524D01*
X41529000Y12249845D01*
X41529000Y13443000D01*
X41509000Y13443000D01*
X41509000Y13697000D01*
X41529000Y13697000D01*
X41529000Y13717000D01*
X41783000Y13717000D01*
X41783000Y13697000D01*
X41803000Y13697000D01*
X41803000Y13443000D01*
X41783000Y13443000D01*
X41783000Y12249845D01*
X42012890Y12128524D01*
X42160099Y12173175D01*
X42422920Y12298359D01*
X42656269Y12472412D01*
X42851178Y12688645D01*
X42920805Y12805534D01*
X43042525Y12623368D01*
X43249368Y12416525D01*
X43492589Y12254010D01*
X43762842Y12142068D01*
X44049740Y12085000D01*
X44342260Y12085000D01*
X44629158Y12142068D01*
X44899411Y12254010D01*
X45142632Y12416525D01*
X45349475Y12623368D01*
X45466000Y12797760D01*
X45582525Y12623368D01*
X45789368Y12416525D01*
X46032589Y12254010D01*
X46302842Y12142068D01*
X46589740Y12085000D01*
X46882260Y12085000D01*
X47169158Y12142068D01*
X47439411Y12254010D01*
X47682632Y12416525D01*
X47889475Y12623368D01*
X48006000Y12797760D01*
X48122525Y12623368D01*
X48329368Y12416525D01*
X48572589Y12254010D01*
X48842842Y12142068D01*
X49129740Y12085000D01*
X49422260Y12085000D01*
X49709158Y12142068D01*
X49979411Y12254010D01*
X50222632Y12416525D01*
X50429475Y12623368D01*
X50546000Y12797760D01*
X50662525Y12623368D01*
X50869368Y12416525D01*
X51112589Y12254010D01*
X51382842Y12142068D01*
X51669740Y12085000D01*
X51962260Y12085000D01*
X52249158Y12142068D01*
X52519411Y12254010D01*
X52762632Y12416525D01*
X52969475Y12623368D01*
X53086000Y12797760D01*
X53202525Y12623368D01*
X53409368Y12416525D01*
X53652589Y12254010D01*
X53922842Y12142068D01*
X54209740Y12085000D01*
X54502260Y12085000D01*
X54789158Y12142068D01*
X55059411Y12254010D01*
X55302632Y12416525D01*
X55509475Y12623368D01*
X55626000Y12797760D01*
X55742525Y12623368D01*
X55949368Y12416525D01*
X56192589Y12254010D01*
X56462842Y12142068D01*
X56749740Y12085000D01*
X57042260Y12085000D01*
X57329158Y12142068D01*
X57599411Y12254010D01*
X57842632Y12416525D01*
X58049475Y12623368D01*
X58166000Y12797760D01*
X58282525Y12623368D01*
X58489368Y12416525D01*
X58732589Y12254010D01*
X59002842Y12142068D01*
X59289740Y12085000D01*
X59582260Y12085000D01*
X59869158Y12142068D01*
X60139411Y12254010D01*
X60382632Y12416525D01*
X60589475Y12623368D01*
X60706000Y12797760D01*
X60822525Y12623368D01*
X61029368Y12416525D01*
X61272589Y12254010D01*
X61542842Y12142068D01*
X61829740Y12085000D01*
X62122260Y12085000D01*
X62409158Y12142068D01*
X62679411Y12254010D01*
X62922632Y12416525D01*
X63129475Y12623368D01*
X63251195Y12805534D01*
X63320822Y12688645D01*
X63515731Y12472412D01*
X63749080Y12298359D01*
X64011901Y12173175D01*
X64159110Y12128524D01*
X64389000Y12249845D01*
X64389000Y13443000D01*
X64643000Y13443000D01*
X64643000Y12249845D01*
X64872890Y12128524D01*
X65020099Y12173175D01*
X65282920Y12298359D01*
X65516269Y12472412D01*
X65711178Y12688645D01*
X65860157Y12938748D01*
X65957481Y13213109D01*
X65836814Y13443000D01*
X64643000Y13443000D01*
X64389000Y13443000D01*
X64369000Y13443000D01*
X64369000Y13697000D01*
X64389000Y13697000D01*
X64389000Y15983000D01*
X64643000Y15983000D01*
X64643000Y13697000D01*
X65836814Y13697000D01*
X65957481Y13926891D01*
X65860157Y14201252D01*
X65711178Y14451355D01*
X65516269Y14667588D01*
X65285120Y14840000D01*
X65516269Y15012412D01*
X65711178Y15228645D01*
X65860157Y15478748D01*
X65957481Y15753109D01*
X65836814Y15983000D01*
X64643000Y15983000D01*
X64389000Y15983000D01*
X64369000Y15983000D01*
X64369000Y16237000D01*
X64389000Y16237000D01*
X64389000Y17430155D01*
X64643000Y17430155D01*
X64643000Y16237000D01*
X65836814Y16237000D01*
X65957481Y16466891D01*
X65860157Y16741252D01*
X65711178Y16991355D01*
X65516269Y17207588D01*
X65282920Y17381641D01*
X65020099Y17506825D01*
X64872890Y17551476D01*
X64643000Y17430155D01*
X64389000Y17430155D01*
X64159110Y17551476D01*
X64011901Y17506825D01*
X63891900Y17449667D01*
X63891900Y49252695D01*
X63895456Y49288800D01*
X63881265Y49432885D01*
X63875926Y49450485D01*
X63839237Y49571433D01*
X63770987Y49699120D01*
X63679138Y49811038D01*
X63651093Y49834054D01*
X63612147Y49873000D01*
X78340001Y49873000D01*
X78340000Y660000D01*
X660000Y660000D01*
X660000Y49873000D01*
X10317243Y49873000D01*
X10325010Y49833955D01*
G04 #@! TA.AperFunction,Conductor*
D16*
G36*
X10325010Y49833955D02*
G01*
X10391723Y49672895D01*
X10441001Y49599146D01*
X10441000Y17404883D01*
X10229368Y17263475D01*
X10022525Y17056632D01*
X9860010Y16813411D01*
X9748068Y16543158D01*
X9691000Y16256260D01*
X9691000Y15963740D01*
X9748068Y15676842D01*
X9860010Y15406589D01*
X10022525Y15163368D01*
X10154380Y15031513D01*
X10081820Y15009502D01*
X9971506Y14950537D01*
X9874815Y14871185D01*
X9795463Y14774494D01*
X9736498Y14664180D01*
X9700188Y14544482D01*
X9687928Y14420000D01*
X9687928Y12720000D01*
X9700188Y12595518D01*
X9736498Y12475820D01*
X9795463Y12365506D01*
X9874815Y12268815D01*
X9971506Y12189463D01*
X10081820Y12130498D01*
X10201518Y12094188D01*
X10326000Y12081928D01*
X12026000Y12081928D01*
X12150482Y12094188D01*
X12270180Y12130498D01*
X12380494Y12189463D01*
X12477185Y12268815D01*
X12556537Y12365506D01*
X12615502Y12475820D01*
X12637513Y12548380D01*
X12769368Y12416525D01*
X13012589Y12254010D01*
X13282842Y12142068D01*
X13569740Y12085000D01*
X13862260Y12085000D01*
X14149158Y12142068D01*
X14419411Y12254010D01*
X14662632Y12416525D01*
X14869475Y12623368D01*
X14986000Y12797760D01*
X15102525Y12623368D01*
X15309368Y12416525D01*
X15552589Y12254010D01*
X15822842Y12142068D01*
X16109740Y12085000D01*
X16402260Y12085000D01*
X16689158Y12142068D01*
X16959411Y12254010D01*
X17202632Y12416525D01*
X17409475Y12623368D01*
X17526000Y12797760D01*
X17642525Y12623368D01*
X17849368Y12416525D01*
X18092589Y12254010D01*
X18362842Y12142068D01*
X18649740Y12085000D01*
X18942260Y12085000D01*
X19229158Y12142068D01*
X19499411Y12254010D01*
X19742632Y12416525D01*
X19949475Y12623368D01*
X20066000Y12797760D01*
X20182525Y12623368D01*
X20389368Y12416525D01*
X20632589Y12254010D01*
X20902842Y12142068D01*
X21189740Y12085000D01*
X21482260Y12085000D01*
X21769158Y12142068D01*
X22039411Y12254010D01*
X22282632Y12416525D01*
X22489475Y12623368D01*
X22606000Y12797760D01*
X22722525Y12623368D01*
X22929368Y12416525D01*
X23172589Y12254010D01*
X23442842Y12142068D01*
X23729740Y12085000D01*
X24022260Y12085000D01*
X24309158Y12142068D01*
X24579411Y12254010D01*
X24822632Y12416525D01*
X25029475Y12623368D01*
X25146000Y12797760D01*
X25262525Y12623368D01*
X25469368Y12416525D01*
X25712589Y12254010D01*
X25982842Y12142068D01*
X26269740Y12085000D01*
X26562260Y12085000D01*
X26849158Y12142068D01*
X27119411Y12254010D01*
X27362632Y12416525D01*
X27569475Y12623368D01*
X27686000Y12797760D01*
X27802525Y12623368D01*
X28009368Y12416525D01*
X28252589Y12254010D01*
X28522842Y12142068D01*
X28809740Y12085000D01*
X29102260Y12085000D01*
X29389158Y12142068D01*
X29659411Y12254010D01*
X29902632Y12416525D01*
X30109475Y12623368D01*
X30226000Y12797760D01*
X30342525Y12623368D01*
X30549368Y12416525D01*
X30792589Y12254010D01*
X31062842Y12142068D01*
X31349740Y12085000D01*
X31642260Y12085000D01*
X31929158Y12142068D01*
X32199411Y12254010D01*
X32442632Y12416525D01*
X32649475Y12623368D01*
X32766000Y12797760D01*
X32882525Y12623368D01*
X33089368Y12416525D01*
X33332589Y12254010D01*
X33602842Y12142068D01*
X33889740Y12085000D01*
X34182260Y12085000D01*
X34469158Y12142068D01*
X34739411Y12254010D01*
X34982632Y12416525D01*
X35189475Y12623368D01*
X35306000Y12797760D01*
X35422525Y12623368D01*
X35629368Y12416525D01*
X35872589Y12254010D01*
X36142842Y12142068D01*
X36429740Y12085000D01*
X36722260Y12085000D01*
X37009158Y12142068D01*
X37279411Y12254010D01*
X37522632Y12416525D01*
X37729475Y12623368D01*
X37846000Y12797760D01*
X37962525Y12623368D01*
X38169368Y12416525D01*
X38412589Y12254010D01*
X38682842Y12142068D01*
X38969740Y12085000D01*
X39262260Y12085000D01*
X39549158Y12142068D01*
X39819411Y12254010D01*
X40062632Y12416525D01*
X40269475Y12623368D01*
X40391195Y12805534D01*
X40460822Y12688645D01*
X40655731Y12472412D01*
X40889080Y12298359D01*
X41151901Y12173175D01*
X41299110Y12128524D01*
X41529000Y12249845D01*
X41529000Y13443000D01*
X41509000Y13443000D01*
X41509000Y13697000D01*
X41529000Y13697000D01*
X41529000Y13717000D01*
X41783000Y13717000D01*
X41783000Y13697000D01*
X41803000Y13697000D01*
X41803000Y13443000D01*
X41783000Y13443000D01*
X41783000Y12249845D01*
X42012890Y12128524D01*
X42160099Y12173175D01*
X42422920Y12298359D01*
X42656269Y12472412D01*
X42851178Y12688645D01*
X42920805Y12805534D01*
X43042525Y12623368D01*
X43249368Y12416525D01*
X43492589Y12254010D01*
X43762842Y12142068D01*
X44049740Y12085000D01*
X44342260Y12085000D01*
X44629158Y12142068D01*
X44899411Y12254010D01*
X45142632Y12416525D01*
X45349475Y12623368D01*
X45466000Y12797760D01*
X45582525Y12623368D01*
X45789368Y12416525D01*
X46032589Y12254010D01*
X46302842Y12142068D01*
X46589740Y12085000D01*
X46882260Y12085000D01*
X47169158Y12142068D01*
X47439411Y12254010D01*
X47682632Y12416525D01*
X47889475Y12623368D01*
X48006000Y12797760D01*
X48122525Y12623368D01*
X48329368Y12416525D01*
X48572589Y12254010D01*
X48842842Y12142068D01*
X49129740Y12085000D01*
X49422260Y12085000D01*
X49709158Y12142068D01*
X49979411Y12254010D01*
X50222632Y12416525D01*
X50429475Y12623368D01*
X50546000Y12797760D01*
X50662525Y12623368D01*
X50869368Y12416525D01*
X51112589Y12254010D01*
X51382842Y12142068D01*
X51669740Y12085000D01*
X51962260Y12085000D01*
X52249158Y12142068D01*
X52519411Y12254010D01*
X52762632Y12416525D01*
X52969475Y12623368D01*
X53086000Y12797760D01*
X53202525Y12623368D01*
X53409368Y12416525D01*
X53652589Y12254010D01*
X53922842Y12142068D01*
X54209740Y12085000D01*
X54502260Y12085000D01*
X54789158Y12142068D01*
X55059411Y12254010D01*
X55302632Y12416525D01*
X55509475Y12623368D01*
X55626000Y12797760D01*
X55742525Y12623368D01*
X55949368Y12416525D01*
X56192589Y12254010D01*
X56462842Y12142068D01*
X56749740Y12085000D01*
X57042260Y12085000D01*
X57329158Y12142068D01*
X57599411Y12254010D01*
X57842632Y12416525D01*
X58049475Y12623368D01*
X58166000Y12797760D01*
X58282525Y12623368D01*
X58489368Y12416525D01*
X58732589Y12254010D01*
X59002842Y12142068D01*
X59289740Y12085000D01*
X59582260Y12085000D01*
X59869158Y12142068D01*
X60139411Y12254010D01*
X60382632Y12416525D01*
X60589475Y12623368D01*
X60706000Y12797760D01*
X60822525Y12623368D01*
X61029368Y12416525D01*
X61272589Y12254010D01*
X61542842Y12142068D01*
X61829740Y12085000D01*
X62122260Y12085000D01*
X62409158Y12142068D01*
X62679411Y12254010D01*
X62922632Y12416525D01*
X63129475Y12623368D01*
X63251195Y12805534D01*
X63320822Y12688645D01*
X63515731Y12472412D01*
X63749080Y12298359D01*
X64011901Y12173175D01*
X64159110Y12128524D01*
X64389000Y12249845D01*
X64389000Y13443000D01*
X64643000Y13443000D01*
X64643000Y12249845D01*
X64872890Y12128524D01*
X65020099Y12173175D01*
X65282920Y12298359D01*
X65516269Y12472412D01*
X65711178Y12688645D01*
X65860157Y12938748D01*
X65957481Y13213109D01*
X65836814Y13443000D01*
X64643000Y13443000D01*
X64389000Y13443000D01*
X64369000Y13443000D01*
X64369000Y13697000D01*
X64389000Y13697000D01*
X64389000Y15983000D01*
X64643000Y15983000D01*
X64643000Y13697000D01*
X65836814Y13697000D01*
X65957481Y13926891D01*
X65860157Y14201252D01*
X65711178Y14451355D01*
X65516269Y14667588D01*
X65285120Y14840000D01*
X65516269Y15012412D01*
X65711178Y15228645D01*
X65860157Y15478748D01*
X65957481Y15753109D01*
X65836814Y15983000D01*
X64643000Y15983000D01*
X64389000Y15983000D01*
X64369000Y15983000D01*
X64369000Y16237000D01*
X64389000Y16237000D01*
X64389000Y17430155D01*
X64643000Y17430155D01*
X64643000Y16237000D01*
X65836814Y16237000D01*
X65957481Y16466891D01*
X65860157Y16741252D01*
X65711178Y16991355D01*
X65516269Y17207588D01*
X65282920Y17381641D01*
X65020099Y17506825D01*
X64872890Y17551476D01*
X64643000Y17430155D01*
X64389000Y17430155D01*
X64159110Y17551476D01*
X64011901Y17506825D01*
X63891900Y17449667D01*
X63891900Y49252695D01*
X63895456Y49288800D01*
X63881265Y49432885D01*
X63875926Y49450485D01*
X63839237Y49571433D01*
X63770987Y49699120D01*
X63679138Y49811038D01*
X63651093Y49834054D01*
X63612147Y49873000D01*
X78340001Y49873000D01*
X78340000Y660000D01*
X660000Y660000D01*
X660000Y49873000D01*
X10317243Y49873000D01*
X10325010Y49833955D01*
G37*
G04 #@! TD.AperFunction*
D15*
X21781901Y48984352D02*
X21781900Y17524478D01*
X21692890Y17551476D01*
X21463000Y17430155D01*
X21463000Y16237000D01*
X21483000Y16237000D01*
X21483000Y15983000D01*
X21463000Y15983000D01*
X21463000Y15963000D01*
X21209000Y15963000D01*
X21209000Y15983000D01*
X21189000Y15983000D01*
X21189000Y16237000D01*
X21209000Y16237000D01*
X21209000Y17430155D01*
X20979110Y17551476D01*
X20831901Y17506825D01*
X20711900Y17449667D01*
X20711900Y49252695D01*
X20715456Y49288800D01*
X20701265Y49432885D01*
X20695926Y49450485D01*
X20659237Y49571433D01*
X20590987Y49699120D01*
X20499138Y49811038D01*
X20471093Y49834054D01*
X20432147Y49873000D01*
X20893254Y49873000D01*
X21781901Y48984352D01*
G04 #@! TA.AperFunction,Conductor*
D16*
G36*
X21781901Y48984352D02*
G01*
X21781900Y17524478D01*
X21692890Y17551476D01*
X21463000Y17430155D01*
X21463000Y16237000D01*
X21483000Y16237000D01*
X21483000Y15983000D01*
X21463000Y15983000D01*
X21463000Y15963000D01*
X21209000Y15963000D01*
X21209000Y15983000D01*
X21189000Y15983000D01*
X21189000Y16237000D01*
X21209000Y16237000D01*
X21209000Y17430155D01*
X20979110Y17551476D01*
X20831901Y17506825D01*
X20711900Y17449667D01*
X20711900Y49252695D01*
X20715456Y49288800D01*
X20701265Y49432885D01*
X20695926Y49450485D01*
X20659237Y49571433D01*
X20590987Y49699120D01*
X20499138Y49811038D01*
X20471093Y49834054D01*
X20432147Y49873000D01*
X20893254Y49873000D01*
X21781901Y48984352D01*
G37*
G04 #@! TD.AperFunction*
D15*
X44641901Y48984352D02*
X44641900Y17532654D01*
X44629158Y17537932D01*
X44342260Y17595000D01*
X44049740Y17595000D01*
X43762842Y17537932D01*
X43492589Y17425990D01*
X43249368Y17263475D01*
X43042525Y17056632D01*
X42926000Y16882240D01*
X42809475Y17056632D01*
X42602632Y17263475D01*
X42359411Y17425990D01*
X42089158Y17537932D01*
X41802260Y17595000D01*
X41509740Y17595000D01*
X41222842Y17537932D01*
X41014100Y17451469D01*
X41014100Y46626195D01*
X41017656Y46662300D01*
X41003465Y46806385D01*
X40961437Y46944932D01*
X40961437Y46944933D01*
X40893187Y47072620D01*
X40869867Y47101035D01*
X40824353Y47156494D01*
X40824350Y47156497D01*
X40801337Y47184538D01*
X40773297Y47207550D01*
X39851000Y48129846D01*
X39851000Y49873000D01*
X43753254Y49873000D01*
X44641901Y48984352D01*
G04 #@! TA.AperFunction,Conductor*
D16*
G36*
X44641901Y48984352D02*
G01*
X44641900Y17532654D01*
X44629158Y17537932D01*
X44342260Y17595000D01*
X44049740Y17595000D01*
X43762842Y17537932D01*
X43492589Y17425990D01*
X43249368Y17263475D01*
X43042525Y17056632D01*
X42926000Y16882240D01*
X42809475Y17056632D01*
X42602632Y17263475D01*
X42359411Y17425990D01*
X42089158Y17537932D01*
X41802260Y17595000D01*
X41509740Y17595000D01*
X41222842Y17537932D01*
X41014100Y17451469D01*
X41014100Y46626195D01*
X41017656Y46662300D01*
X41003465Y46806385D01*
X40961437Y46944932D01*
X40961437Y46944933D01*
X40893187Y47072620D01*
X40869867Y47101035D01*
X40824353Y47156494D01*
X40824350Y47156497D01*
X40801337Y47184538D01*
X40773297Y47207550D01*
X39851000Y48129846D01*
X39851000Y49873000D01*
X43753254Y49873000D01*
X44641901Y48984352D01*
G37*
G04 #@! TD.AperFunction*
M02*
