G04 #@! TF.GenerationSoftware,KiCad,Pcbnew,(5.1.9)-1*
G04 #@! TF.CreationDate,2023-09-27T08:13:33+09:00*
G04 #@! TF.ProjectId,CZ800EX,435a3830-3045-4582-9e6b-696361645f70,rev?*
G04 #@! TF.SameCoordinates,PX2faf080PY6f1a620*
G04 #@! TF.FileFunction,Legend,Top*
G04 #@! TF.FilePolarity,Positive*
%FSLAX46Y46*%
G04 Gerber Fmt 4.6, Leading zero omitted, Abs format (unit mm)*
G04 Created by KiCad (PCBNEW (5.1.9)-1) date 2023-09-27 08:13:33*
%MOMM*%
%LPD*%
G01*
G04 APERTURE LIST*
%ADD10C,0.100000*%
%ADD11C,0.300000*%
%ADD12C,0.120000*%
%ADD13C,0.150000*%
G04 APERTURE END LIST*
D10*
X6273976Y10503358D02*
X6559690Y10408120D01*
X6654928Y10312881D01*
X6750166Y10122405D01*
X6750166Y9836691D01*
X6654928Y9646215D01*
X6559690Y9550977D01*
X6369214Y9455739D01*
X5607309Y9455739D01*
X5607309Y11455739D01*
X6273976Y11455739D01*
X6464452Y11360500D01*
X6559690Y11265262D01*
X6654928Y11074786D01*
X6654928Y10884310D01*
X6559690Y10693834D01*
X6464452Y10598596D01*
X6273976Y10503358D01*
X5607309Y10503358D01*
X8654928Y9455739D02*
X7512071Y9455739D01*
X8083500Y9455739D02*
X8083500Y11455739D01*
X7893023Y11170024D01*
X7702547Y10979548D01*
X7512071Y10884310D01*
X5654928Y18917167D02*
X6607309Y18917167D01*
X5464452Y18345739D02*
X6131119Y20345739D01*
X6797785Y18345739D01*
X8512071Y18345739D02*
X7369214Y18345739D01*
X7940642Y18345739D02*
X7940642Y20345739D01*
X7750166Y20060024D01*
X7559690Y19869548D01*
X7369214Y19774310D01*
X67453095Y10537858D02*
X67738809Y10442620D01*
X67834047Y10347381D01*
X67929285Y10156905D01*
X67929285Y9871191D01*
X67834047Y9680715D01*
X67738809Y9585477D01*
X67548333Y9490239D01*
X66786428Y9490239D01*
X66786428Y11490239D01*
X67453095Y11490239D01*
X67643571Y11395000D01*
X67738809Y11299762D01*
X67834047Y11109286D01*
X67834047Y10918810D01*
X67738809Y10728334D01*
X67643571Y10633096D01*
X67453095Y10537858D01*
X66786428Y10537858D01*
X68691190Y11299762D02*
X68786428Y11395000D01*
X68976904Y11490239D01*
X69453095Y11490239D01*
X69643571Y11395000D01*
X69738809Y11299762D01*
X69834047Y11109286D01*
X69834047Y10918810D01*
X69738809Y10633096D01*
X68595952Y9490239D01*
X69834047Y9490239D01*
X70595952Y11299762D02*
X70691190Y11395000D01*
X70881666Y11490239D01*
X71357857Y11490239D01*
X71548333Y11395000D01*
X71643571Y11299762D01*
X71738809Y11109286D01*
X71738809Y10918810D01*
X71643571Y10633096D01*
X70500714Y9490239D01*
X71738809Y9490239D01*
X66834047Y18536167D02*
X67786428Y18536167D01*
X66643571Y17964739D02*
X67310238Y19964739D01*
X67976904Y17964739D01*
X68548333Y19774262D02*
X68643571Y19869500D01*
X68834047Y19964739D01*
X69310238Y19964739D01*
X69500714Y19869500D01*
X69595952Y19774262D01*
X69691190Y19583786D01*
X69691190Y19393310D01*
X69595952Y19107596D01*
X68453095Y17964739D01*
X69691190Y17964739D01*
X70453095Y19774262D02*
X70548333Y19869500D01*
X70738809Y19964739D01*
X71215000Y19964739D01*
X71405476Y19869500D01*
X71500714Y19774262D01*
X71595952Y19583786D01*
X71595952Y19393310D01*
X71500714Y19107596D01*
X70357857Y17964739D01*
X71595952Y17964739D01*
X64016000Y18650096D02*
X63968380Y18554858D01*
X63968380Y18412000D01*
X64016000Y18269143D01*
X64111238Y18173905D01*
X64206476Y18126286D01*
X64396952Y18078667D01*
X64539809Y18078667D01*
X64730285Y18126286D01*
X64825523Y18173905D01*
X64920761Y18269143D01*
X64968380Y18412000D01*
X64968380Y18507239D01*
X64920761Y18650096D01*
X64873142Y18697715D01*
X64539809Y18697715D01*
X64539809Y18507239D01*
X64968380Y19126286D02*
X63968380Y19126286D01*
X64968380Y19697715D01*
X63968380Y19697715D01*
X64968380Y20173905D02*
X63968380Y20173905D01*
X63968380Y20412000D01*
X64016000Y20554858D01*
X64111238Y20650096D01*
X64206476Y20697715D01*
X64396952Y20745334D01*
X64539809Y20745334D01*
X64730285Y20697715D01*
X64825523Y20650096D01*
X64920761Y20554858D01*
X64968380Y20412000D01*
X64968380Y20173905D01*
X62142666Y18570715D02*
X62142666Y19046905D01*
X62428380Y18475477D02*
X61428380Y18808810D01*
X62428380Y19142143D01*
X61428380Y19665953D02*
X61428380Y19761191D01*
X61476000Y19856429D01*
X61523619Y19904048D01*
X61618857Y19951667D01*
X61809333Y19999286D01*
X62047428Y19999286D01*
X62237904Y19951667D01*
X62333142Y19904048D01*
X62380761Y19856429D01*
X62428380Y19761191D01*
X62428380Y19665953D01*
X62380761Y19570715D01*
X62333142Y19523096D01*
X62237904Y19475477D01*
X62047428Y19427858D01*
X61809333Y19427858D01*
X61618857Y19475477D01*
X61523619Y19523096D01*
X61476000Y19570715D01*
X61428380Y19665953D01*
X59602666Y18570715D02*
X59602666Y19046905D01*
X59888380Y18475477D02*
X58888380Y18808810D01*
X59888380Y19142143D01*
X59888380Y19999286D02*
X59888380Y19427858D01*
X59888380Y19713572D02*
X58888380Y19713572D01*
X59031238Y19618334D01*
X59126476Y19523096D01*
X59174095Y19427858D01*
X57062666Y18570715D02*
X57062666Y19046905D01*
X57348380Y18475477D02*
X56348380Y18808810D01*
X57348380Y19142143D01*
X56443619Y19427858D02*
X56396000Y19475477D01*
X56348380Y19570715D01*
X56348380Y19808810D01*
X56396000Y19904048D01*
X56443619Y19951667D01*
X56538857Y19999286D01*
X56634095Y19999286D01*
X56776952Y19951667D01*
X57348380Y19380239D01*
X57348380Y19999286D01*
X54522666Y18570715D02*
X54522666Y19046905D01*
X54808380Y18475477D02*
X53808380Y18808810D01*
X54808380Y19142143D01*
X53808380Y19380239D02*
X53808380Y19999286D01*
X54189333Y19665953D01*
X54189333Y19808810D01*
X54236952Y19904048D01*
X54284571Y19951667D01*
X54379809Y19999286D01*
X54617904Y19999286D01*
X54713142Y19951667D01*
X54760761Y19904048D01*
X54808380Y19808810D01*
X54808380Y19523096D01*
X54760761Y19427858D01*
X54713142Y19380239D01*
X51982666Y18570715D02*
X51982666Y19046905D01*
X52268380Y18475477D02*
X51268380Y18808810D01*
X52268380Y19142143D01*
X51601714Y19904048D02*
X52268380Y19904048D01*
X51220761Y19665953D02*
X51935047Y19427858D01*
X51935047Y20046905D01*
X49442666Y18570715D02*
X49442666Y19046905D01*
X49728380Y18475477D02*
X48728380Y18808810D01*
X49728380Y19142143D01*
X48728380Y19951667D02*
X48728380Y19475477D01*
X49204571Y19427858D01*
X49156952Y19475477D01*
X49109333Y19570715D01*
X49109333Y19808810D01*
X49156952Y19904048D01*
X49204571Y19951667D01*
X49299809Y19999286D01*
X49537904Y19999286D01*
X49633142Y19951667D01*
X49680761Y19904048D01*
X49728380Y19808810D01*
X49728380Y19570715D01*
X49680761Y19475477D01*
X49633142Y19427858D01*
X46902666Y18570715D02*
X46902666Y19046905D01*
X47188380Y18475477D02*
X46188380Y18808810D01*
X47188380Y19142143D01*
X46188380Y19904048D02*
X46188380Y19713572D01*
X46236000Y19618334D01*
X46283619Y19570715D01*
X46426476Y19475477D01*
X46616952Y19427858D01*
X46997904Y19427858D01*
X47093142Y19475477D01*
X47140761Y19523096D01*
X47188380Y19618334D01*
X47188380Y19808810D01*
X47140761Y19904048D01*
X47093142Y19951667D01*
X46997904Y19999286D01*
X46759809Y19999286D01*
X46664571Y19951667D01*
X46616952Y19904048D01*
X46569333Y19808810D01*
X46569333Y19618334D01*
X46616952Y19523096D01*
X46664571Y19475477D01*
X46759809Y19427858D01*
X44362666Y18570715D02*
X44362666Y19046905D01*
X44648380Y18475477D02*
X43648380Y18808810D01*
X44648380Y19142143D01*
X43648380Y19380239D02*
X43648380Y20046905D01*
X44648380Y19618334D01*
X41822666Y18570715D02*
X41822666Y19046905D01*
X42108380Y18475477D02*
X41108380Y18808810D01*
X42108380Y19142143D01*
X41536952Y19618334D02*
X41489333Y19523096D01*
X41441714Y19475477D01*
X41346476Y19427858D01*
X41298857Y19427858D01*
X41203619Y19475477D01*
X41156000Y19523096D01*
X41108380Y19618334D01*
X41108380Y19808810D01*
X41156000Y19904048D01*
X41203619Y19951667D01*
X41298857Y19999286D01*
X41346476Y19999286D01*
X41441714Y19951667D01*
X41489333Y19904048D01*
X41536952Y19808810D01*
X41536952Y19618334D01*
X41584571Y19523096D01*
X41632190Y19475477D01*
X41727428Y19427858D01*
X41917904Y19427858D01*
X42013142Y19475477D01*
X42060761Y19523096D01*
X42108380Y19618334D01*
X42108380Y19808810D01*
X42060761Y19904048D01*
X42013142Y19951667D01*
X41917904Y19999286D01*
X41727428Y19999286D01*
X41632190Y19951667D01*
X41584571Y19904048D01*
X41536952Y19808810D01*
X39282666Y18570715D02*
X39282666Y19046905D01*
X39568380Y18475477D02*
X38568380Y18808810D01*
X39568380Y19142143D01*
X39568380Y19523096D02*
X39568380Y19713572D01*
X39520761Y19808810D01*
X39473142Y19856429D01*
X39330285Y19951667D01*
X39139809Y19999286D01*
X38758857Y19999286D01*
X38663619Y19951667D01*
X38616000Y19904048D01*
X38568380Y19808810D01*
X38568380Y19618334D01*
X38616000Y19523096D01*
X38663619Y19475477D01*
X38758857Y19427858D01*
X38996952Y19427858D01*
X39092190Y19475477D01*
X39139809Y19523096D01*
X39187428Y19618334D01*
X39187428Y19808810D01*
X39139809Y19904048D01*
X39092190Y19951667D01*
X38996952Y19999286D01*
X36742666Y18094524D02*
X36742666Y18570715D01*
X37028380Y17999286D02*
X36028380Y18332620D01*
X37028380Y18665953D01*
X37028380Y19523096D02*
X37028380Y18951667D01*
X37028380Y19237381D02*
X36028380Y19237381D01*
X36171238Y19142143D01*
X36266476Y19046905D01*
X36314095Y18951667D01*
X36028380Y20142143D02*
X36028380Y20237381D01*
X36076000Y20332620D01*
X36123619Y20380239D01*
X36218857Y20427858D01*
X36409333Y20475477D01*
X36647428Y20475477D01*
X36837904Y20427858D01*
X36933142Y20380239D01*
X36980761Y20332620D01*
X37028380Y20237381D01*
X37028380Y20142143D01*
X36980761Y20046905D01*
X36933142Y19999286D01*
X36837904Y19951667D01*
X36647428Y19904048D01*
X36409333Y19904048D01*
X36218857Y19951667D01*
X36123619Y19999286D01*
X36076000Y20046905D01*
X36028380Y20142143D01*
X34202666Y18094524D02*
X34202666Y18570715D01*
X34488380Y17999286D02*
X33488380Y18332620D01*
X34488380Y18665953D01*
X34488380Y19523096D02*
X34488380Y18951667D01*
X34488380Y19237381D02*
X33488380Y19237381D01*
X33631238Y19142143D01*
X33726476Y19046905D01*
X33774095Y18951667D01*
X34488380Y20475477D02*
X34488380Y19904048D01*
X34488380Y20189762D02*
X33488380Y20189762D01*
X33631238Y20094524D01*
X33726476Y19999286D01*
X33774095Y19904048D01*
X31662666Y18094524D02*
X31662666Y18570715D01*
X31948380Y17999286D02*
X30948380Y18332620D01*
X31948380Y18665953D01*
X31948380Y19523096D02*
X31948380Y18951667D01*
X31948380Y19237381D02*
X30948380Y19237381D01*
X31091238Y19142143D01*
X31186476Y19046905D01*
X31234095Y18951667D01*
X31043619Y19904048D02*
X30996000Y19951667D01*
X30948380Y20046905D01*
X30948380Y20285000D01*
X30996000Y20380239D01*
X31043619Y20427858D01*
X31138857Y20475477D01*
X31234095Y20475477D01*
X31376952Y20427858D01*
X31948380Y19856429D01*
X31948380Y20475477D01*
X29122666Y18094524D02*
X29122666Y18570715D01*
X29408380Y17999286D02*
X28408380Y18332620D01*
X29408380Y18665953D01*
X29408380Y19523096D02*
X29408380Y18951667D01*
X29408380Y19237381D02*
X28408380Y19237381D01*
X28551238Y19142143D01*
X28646476Y19046905D01*
X28694095Y18951667D01*
X28408380Y19856429D02*
X28408380Y20475477D01*
X28789333Y20142143D01*
X28789333Y20285000D01*
X28836952Y20380239D01*
X28884571Y20427858D01*
X28979809Y20475477D01*
X29217904Y20475477D01*
X29313142Y20427858D01*
X29360761Y20380239D01*
X29408380Y20285000D01*
X29408380Y19999286D01*
X29360761Y19904048D01*
X29313142Y19856429D01*
X26582666Y18094524D02*
X26582666Y18570715D01*
X26868380Y17999286D02*
X25868380Y18332620D01*
X26868380Y18665953D01*
X26868380Y19523096D02*
X26868380Y18951667D01*
X26868380Y19237381D02*
X25868380Y19237381D01*
X26011238Y19142143D01*
X26106476Y19046905D01*
X26154095Y18951667D01*
X26201714Y20380239D02*
X26868380Y20380239D01*
X25820761Y20142143D02*
X26535047Y19904048D01*
X26535047Y20523096D01*
X24042666Y18094524D02*
X24042666Y18570715D01*
X24328380Y17999286D02*
X23328380Y18332620D01*
X24328380Y18665953D01*
X24328380Y19523096D02*
X24328380Y18951667D01*
X24328380Y19237381D02*
X23328380Y19237381D01*
X23471238Y19142143D01*
X23566476Y19046905D01*
X23614095Y18951667D01*
X23328380Y20427858D02*
X23328380Y19951667D01*
X23804571Y19904048D01*
X23756952Y19951667D01*
X23709333Y20046905D01*
X23709333Y20285000D01*
X23756952Y20380239D01*
X23804571Y20427858D01*
X23899809Y20475477D01*
X24137904Y20475477D01*
X24233142Y20427858D01*
X24280761Y20380239D01*
X24328380Y20285000D01*
X24328380Y20046905D01*
X24280761Y19951667D01*
X24233142Y19904048D01*
X20836000Y18523096D02*
X20788380Y18427858D01*
X20788380Y18285000D01*
X20836000Y18142143D01*
X20931238Y18046905D01*
X21026476Y17999286D01*
X21216952Y17951667D01*
X21359809Y17951667D01*
X21550285Y17999286D01*
X21645523Y18046905D01*
X21740761Y18142143D01*
X21788380Y18285000D01*
X21788380Y18380239D01*
X21740761Y18523096D01*
X21693142Y18570715D01*
X21359809Y18570715D01*
X21359809Y18380239D01*
X21788380Y18999286D02*
X20788380Y18999286D01*
X21788380Y19570715D01*
X20788380Y19570715D01*
X21788380Y20046905D02*
X20788380Y20046905D01*
X20788380Y20285000D01*
X20836000Y20427858D01*
X20931238Y20523096D01*
X21026476Y20570715D01*
X21216952Y20618334D01*
X21359809Y20618334D01*
X21550285Y20570715D01*
X21645523Y20523096D01*
X21740761Y20427858D01*
X21788380Y20285000D01*
X21788380Y20046905D01*
X19248380Y18546905D02*
X18248380Y18546905D01*
X18248380Y18785000D01*
X18296000Y18927858D01*
X18391238Y19023096D01*
X18486476Y19070715D01*
X18676952Y19118334D01*
X18819809Y19118334D01*
X19010285Y19070715D01*
X19105523Y19023096D01*
X19200761Y18927858D01*
X19248380Y18785000D01*
X19248380Y18546905D01*
X18248380Y19737381D02*
X18248380Y19832620D01*
X18296000Y19927858D01*
X18343619Y19975477D01*
X18438857Y20023096D01*
X18629333Y20070715D01*
X18867428Y20070715D01*
X19057904Y20023096D01*
X19153142Y19975477D01*
X19200761Y19927858D01*
X19248380Y19832620D01*
X19248380Y19737381D01*
X19200761Y19642143D01*
X19153142Y19594524D01*
X19057904Y19546905D01*
X18867428Y19499286D01*
X18629333Y19499286D01*
X18438857Y19546905D01*
X18343619Y19594524D01*
X18296000Y19642143D01*
X18248380Y19737381D01*
X16708380Y18546905D02*
X15708380Y18546905D01*
X15708380Y18785000D01*
X15756000Y18927858D01*
X15851238Y19023096D01*
X15946476Y19070715D01*
X16136952Y19118334D01*
X16279809Y19118334D01*
X16470285Y19070715D01*
X16565523Y19023096D01*
X16660761Y18927858D01*
X16708380Y18785000D01*
X16708380Y18546905D01*
X16708380Y20070715D02*
X16708380Y19499286D01*
X16708380Y19785000D02*
X15708380Y19785000D01*
X15851238Y19689762D01*
X15946476Y19594524D01*
X15994095Y19499286D01*
X11247428Y17999286D02*
X11247428Y18761191D01*
X11628380Y18380239D02*
X10866476Y18380239D01*
X10628380Y19713572D02*
X10628380Y19237381D01*
X11104571Y19189762D01*
X11056952Y19237381D01*
X11009333Y19332620D01*
X11009333Y19570715D01*
X11056952Y19665953D01*
X11104571Y19713572D01*
X11199809Y19761191D01*
X11437904Y19761191D01*
X11533142Y19713572D01*
X11580761Y19665953D01*
X11628380Y19570715D01*
X11628380Y19332620D01*
X11580761Y19237381D01*
X11533142Y19189762D01*
X10628380Y20046905D02*
X11628380Y20380239D01*
X10628380Y20713572D01*
X14168380Y18546905D02*
X13168380Y18546905D01*
X13168380Y18785000D01*
X13216000Y18927858D01*
X13311238Y19023096D01*
X13406476Y19070715D01*
X13596952Y19118334D01*
X13739809Y19118334D01*
X13930285Y19070715D01*
X14025523Y19023096D01*
X14120761Y18927858D01*
X14168380Y18785000D01*
X14168380Y18546905D01*
X13263619Y19499286D02*
X13216000Y19546905D01*
X13168380Y19642143D01*
X13168380Y19880239D01*
X13216000Y19975477D01*
X13263619Y20023096D01*
X13358857Y20070715D01*
X13454095Y20070715D01*
X13596952Y20023096D01*
X14168380Y19451667D01*
X14168380Y20070715D01*
X64270000Y9633096D02*
X64222380Y9537858D01*
X64222380Y9395000D01*
X64270000Y9252143D01*
X64365238Y9156905D01*
X64460476Y9109286D01*
X64650952Y9061667D01*
X64793809Y9061667D01*
X64984285Y9109286D01*
X65079523Y9156905D01*
X65174761Y9252143D01*
X65222380Y9395000D01*
X65222380Y9490239D01*
X65174761Y9633096D01*
X65127142Y9680715D01*
X64793809Y9680715D01*
X64793809Y9490239D01*
X65222380Y10109286D02*
X64222380Y10109286D01*
X65222380Y10680715D01*
X64222380Y10680715D01*
X65222380Y11156905D02*
X64222380Y11156905D01*
X64222380Y11395000D01*
X64270000Y11537858D01*
X64365238Y11633096D01*
X64460476Y11680715D01*
X64650952Y11728334D01*
X64793809Y11728334D01*
X64984285Y11680715D01*
X65079523Y11633096D01*
X65174761Y11537858D01*
X65222380Y11395000D01*
X65222380Y11156905D01*
X61380000Y9061667D02*
X61380000Y10109286D01*
X62682380Y9299762D02*
X61682380Y9299762D01*
X62682380Y9871191D01*
X61682380Y9871191D01*
X61380000Y10109286D02*
X61380000Y11252143D01*
X62682380Y10347381D02*
X61682380Y10347381D01*
X62396666Y10680715D01*
X61682380Y11014048D01*
X62682380Y11014048D01*
X61380000Y11252143D02*
X61380000Y11728334D01*
X62682380Y11490239D02*
X61682380Y11490239D01*
X58840000Y7976667D02*
X58840000Y8610000D01*
X59618571Y8143334D02*
X59618571Y8376667D01*
X60142380Y8476667D02*
X60142380Y8143334D01*
X59142380Y8143334D01*
X59142380Y8476667D01*
X58840000Y8610000D02*
X58840000Y9276667D01*
X59142380Y8710000D02*
X60142380Y9176667D01*
X59142380Y9176667D02*
X60142380Y8710000D01*
X58840000Y9276667D02*
X58840000Y10076667D01*
X59142380Y9376667D02*
X60142380Y9543334D01*
X59428095Y9676667D01*
X60142380Y9810000D01*
X59142380Y9976667D01*
X58840000Y10076667D02*
X58840000Y10676667D01*
X59856666Y10210000D02*
X59856666Y10543334D01*
X60142380Y10143334D02*
X59142380Y10376667D01*
X60142380Y10610000D01*
X58840000Y10676667D02*
X58840000Y11010000D01*
X60142380Y10843334D02*
X59142380Y10843334D01*
X58840000Y11010000D02*
X58840000Y11543334D01*
X59142380Y11076667D02*
X59142380Y11476667D01*
X60142380Y11276667D02*
X59142380Y11276667D01*
X56300000Y7688572D02*
X56300000Y8593334D01*
X57078571Y7926667D02*
X57078571Y8260000D01*
X57602380Y8402858D02*
X57602380Y7926667D01*
X56602380Y7926667D01*
X56602380Y8402858D01*
X56300000Y8593334D02*
X56300000Y9545715D01*
X56602380Y8736191D02*
X57602380Y9402858D01*
X56602380Y9402858D02*
X57602380Y8736191D01*
X56300000Y9545715D02*
X56300000Y10021905D01*
X57602380Y9783810D02*
X56602380Y9783810D01*
X56300000Y10021905D02*
X56300000Y11069524D01*
X57602380Y10260000D02*
X56602380Y10260000D01*
X57602380Y10831429D01*
X56602380Y10831429D01*
X56300000Y11069524D02*
X56300000Y11831429D01*
X56602380Y11164762D02*
X56602380Y11736191D01*
X57602380Y11450477D02*
X56602380Y11450477D01*
X53760000Y8164762D02*
X53760000Y8617143D01*
X54538571Y8283810D02*
X54538571Y8450477D01*
X55062380Y8521905D02*
X55062380Y8283810D01*
X54062380Y8283810D01*
X54062380Y8521905D01*
X53760000Y8617143D02*
X53760000Y9093334D01*
X54062380Y8688572D02*
X55062380Y9021905D01*
X54062380Y9021905D02*
X55062380Y8688572D01*
X53760000Y9093334D02*
X53760000Y9593334D01*
X55062380Y9498096D02*
X54586190Y9331429D01*
X55062380Y9212381D02*
X54062380Y9212381D01*
X54062380Y9402858D01*
X54110000Y9450477D01*
X54157619Y9474286D01*
X54252857Y9498096D01*
X54395714Y9498096D01*
X54490952Y9474286D01*
X54538571Y9450477D01*
X54586190Y9402858D01*
X54586190Y9212381D01*
X53760000Y9593334D02*
X53760000Y10045715D01*
X54538571Y9712381D02*
X54538571Y9879048D01*
X55062380Y9950477D02*
X55062380Y9712381D01*
X54062380Y9712381D01*
X54062380Y9950477D01*
X53760000Y10045715D02*
X53760000Y10521905D01*
X55014761Y10140953D02*
X55062380Y10212381D01*
X55062380Y10331429D01*
X55014761Y10379048D01*
X54967142Y10402858D01*
X54871904Y10426667D01*
X54776666Y10426667D01*
X54681428Y10402858D01*
X54633809Y10379048D01*
X54586190Y10331429D01*
X54538571Y10236191D01*
X54490952Y10188572D01*
X54443333Y10164762D01*
X54348095Y10140953D01*
X54252857Y10140953D01*
X54157619Y10164762D01*
X54110000Y10188572D01*
X54062380Y10236191D01*
X54062380Y10355239D01*
X54110000Y10426667D01*
X53760000Y10521905D02*
X53760000Y10974286D01*
X54538571Y10640953D02*
X54538571Y10807620D01*
X55062380Y10879048D02*
X55062380Y10640953D01*
X54062380Y10640953D01*
X54062380Y10879048D01*
X53760000Y10974286D02*
X53760000Y11355239D01*
X54062380Y11021905D02*
X54062380Y11307620D01*
X55062380Y11164762D02*
X54062380Y11164762D01*
X52522380Y8307620D02*
X52046190Y7974286D01*
X52522380Y7736191D02*
X51522380Y7736191D01*
X51522380Y8117143D01*
X51570000Y8212381D01*
X51617619Y8260000D01*
X51712857Y8307620D01*
X51855714Y8307620D01*
X51950952Y8260000D01*
X51998571Y8212381D01*
X52046190Y8117143D01*
X52046190Y7736191D01*
X51998571Y8736191D02*
X51998571Y9069524D01*
X52522380Y9212381D02*
X52522380Y8736191D01*
X51522380Y8736191D01*
X51522380Y9212381D01*
X52474761Y9593334D02*
X52522380Y9736191D01*
X52522380Y9974286D01*
X52474761Y10069524D01*
X52427142Y10117143D01*
X52331904Y10164762D01*
X52236666Y10164762D01*
X52141428Y10117143D01*
X52093809Y10069524D01*
X52046190Y9974286D01*
X51998571Y9783810D01*
X51950952Y9688572D01*
X51903333Y9640953D01*
X51808095Y9593334D01*
X51712857Y9593334D01*
X51617619Y9640953D01*
X51570000Y9688572D01*
X51522380Y9783810D01*
X51522380Y10021905D01*
X51570000Y10164762D01*
X51998571Y10593334D02*
X51998571Y10926667D01*
X52522380Y11069524D02*
X52522380Y10593334D01*
X51522380Y10593334D01*
X51522380Y11069524D01*
X51522380Y11355239D02*
X51522380Y11926667D01*
X52522380Y11640953D02*
X51522380Y11640953D01*
X49982380Y9466429D02*
X48982380Y9466429D01*
X49458571Y9942620D02*
X49458571Y10275953D01*
X49982380Y10418810D02*
X49982380Y9942620D01*
X48982380Y9942620D01*
X48982380Y10418810D01*
X48982380Y11037858D02*
X48982380Y11133096D01*
X49030000Y11228334D01*
X49077619Y11275953D01*
X49172857Y11323572D01*
X49363333Y11371191D01*
X49601428Y11371191D01*
X49791904Y11323572D01*
X49887142Y11275953D01*
X49934761Y11228334D01*
X49982380Y11133096D01*
X49982380Y11037858D01*
X49934761Y10942620D01*
X49887142Y10895000D01*
X49791904Y10847381D01*
X49601428Y10799762D01*
X49363333Y10799762D01*
X49172857Y10847381D01*
X49077619Y10895000D01*
X49030000Y10942620D01*
X48982380Y11037858D01*
X47442380Y9466429D02*
X46442380Y9466429D01*
X46918571Y9942620D02*
X46918571Y10275953D01*
X47442380Y10418810D02*
X47442380Y9942620D01*
X46442380Y9942620D01*
X46442380Y10418810D01*
X47442380Y11371191D02*
X47442380Y10799762D01*
X47442380Y11085477D02*
X46442380Y11085477D01*
X46585238Y10990239D01*
X46680476Y10895000D01*
X46728095Y10799762D01*
X43600000Y8021905D02*
X43600000Y9069524D01*
X44902380Y8260000D02*
X43902380Y8260000D01*
X44378571Y8260000D02*
X44378571Y8831429D01*
X44902380Y8831429D02*
X43902380Y8831429D01*
X43600000Y9069524D02*
X43600000Y9926667D01*
X44616666Y9260000D02*
X44616666Y9736191D01*
X44902380Y9164762D02*
X43902380Y9498096D01*
X44902380Y9831429D01*
X43600000Y9926667D02*
X43600000Y10736191D01*
X44902380Y10640953D02*
X44902380Y10164762D01*
X43902380Y10164762D01*
X43600000Y10736191D02*
X43600000Y11498096D01*
X43902380Y10831429D02*
X43902380Y11402858D01*
X44902380Y11117143D02*
X43902380Y11117143D01*
X41410000Y9633096D02*
X41362380Y9537858D01*
X41362380Y9395000D01*
X41410000Y9252143D01*
X41505238Y9156905D01*
X41600476Y9109286D01*
X41790952Y9061667D01*
X41933809Y9061667D01*
X42124285Y9109286D01*
X42219523Y9156905D01*
X42314761Y9252143D01*
X42362380Y9395000D01*
X42362380Y9490239D01*
X42314761Y9633096D01*
X42267142Y9680715D01*
X41933809Y9680715D01*
X41933809Y9490239D01*
X42362380Y10109286D02*
X41362380Y10109286D01*
X42362380Y10680715D01*
X41362380Y10680715D01*
X42362380Y11156905D02*
X41362380Y11156905D01*
X41362380Y11395000D01*
X41410000Y11537858D01*
X41505238Y11633096D01*
X41600476Y11680715D01*
X41790952Y11728334D01*
X41933809Y11728334D01*
X42124285Y11680715D01*
X42219523Y11633096D01*
X42314761Y11537858D01*
X42362380Y11395000D01*
X42362380Y11156905D01*
X38520000Y7712381D02*
X38520000Y8855239D01*
X39822380Y7950477D02*
X38822380Y7950477D01*
X39536666Y8283810D01*
X38822380Y8617143D01*
X39822380Y8617143D01*
X38520000Y8855239D02*
X38520000Y9855239D01*
X39822380Y9664762D02*
X39346190Y9331429D01*
X39822380Y9093334D02*
X38822380Y9093334D01*
X38822380Y9474286D01*
X38870000Y9569524D01*
X38917619Y9617143D01*
X39012857Y9664762D01*
X39155714Y9664762D01*
X39250952Y9617143D01*
X39298571Y9569524D01*
X39346190Y9474286D01*
X39346190Y9093334D01*
X38520000Y9855239D02*
X38520000Y10760000D01*
X39298571Y10093334D02*
X39298571Y10426667D01*
X39822380Y10569524D02*
X39822380Y10093334D01*
X38822380Y10093334D01*
X38822380Y10569524D01*
X38520000Y10760000D02*
X38520000Y11807620D01*
X39917619Y11664762D02*
X39870000Y11569524D01*
X39774761Y11474286D01*
X39631904Y11331429D01*
X39584285Y11236191D01*
X39584285Y11140953D01*
X39822380Y11188572D02*
X39774761Y11093334D01*
X39679523Y10998096D01*
X39489047Y10950477D01*
X39155714Y10950477D01*
X38965238Y10998096D01*
X38870000Y11093334D01*
X38822380Y11188572D01*
X38822380Y11379048D01*
X38870000Y11474286D01*
X38965238Y11569524D01*
X39155714Y11617143D01*
X39489047Y11617143D01*
X39679523Y11569524D01*
X39774761Y11474286D01*
X39822380Y11379048D01*
X39822380Y11188572D01*
X35980000Y7521905D02*
X35980000Y7998096D01*
X37282380Y7760000D02*
X36282380Y7760000D01*
X35980000Y7998096D02*
X35980000Y9045715D01*
X36282380Y8426667D02*
X36282380Y8617143D01*
X36330000Y8712381D01*
X36425238Y8807620D01*
X36615714Y8855239D01*
X36949047Y8855239D01*
X37139523Y8807620D01*
X37234761Y8712381D01*
X37282380Y8617143D01*
X37282380Y8426667D01*
X37234761Y8331429D01*
X37139523Y8236191D01*
X36949047Y8188572D01*
X36615714Y8188572D01*
X36425238Y8236191D01*
X36330000Y8331429D01*
X36282380Y8426667D01*
X35980000Y9045715D02*
X35980000Y10045715D01*
X37282380Y9855239D02*
X36806190Y9521905D01*
X37282380Y9283810D02*
X36282380Y9283810D01*
X36282380Y9664762D01*
X36330000Y9760000D01*
X36377619Y9807620D01*
X36472857Y9855239D01*
X36615714Y9855239D01*
X36710952Y9807620D01*
X36758571Y9760000D01*
X36806190Y9664762D01*
X36806190Y9283810D01*
X35980000Y10045715D02*
X35980000Y10950477D01*
X36758571Y10283810D02*
X36758571Y10617143D01*
X37282380Y10760000D02*
X37282380Y10283810D01*
X36282380Y10283810D01*
X36282380Y10760000D01*
X35980000Y10950477D02*
X35980000Y11998096D01*
X37377619Y11855239D02*
X37330000Y11760000D01*
X37234761Y11664762D01*
X37091904Y11521905D01*
X37044285Y11426667D01*
X37044285Y11331429D01*
X37282380Y11379048D02*
X37234761Y11283810D01*
X37139523Y11188572D01*
X36949047Y11140953D01*
X36615714Y11140953D01*
X36425238Y11188572D01*
X36330000Y11283810D01*
X36282380Y11379048D01*
X36282380Y11569524D01*
X36330000Y11664762D01*
X36425238Y11760000D01*
X36615714Y11807620D01*
X36949047Y11807620D01*
X37139523Y11760000D01*
X37234761Y11664762D01*
X37282380Y11569524D01*
X37282380Y11379048D01*
X33440000Y9395000D02*
X33440000Y10395000D01*
X34742380Y10204524D02*
X34266190Y9871191D01*
X34742380Y9633096D02*
X33742380Y9633096D01*
X33742380Y10014048D01*
X33790000Y10109286D01*
X33837619Y10156905D01*
X33932857Y10204524D01*
X34075714Y10204524D01*
X34170952Y10156905D01*
X34218571Y10109286D01*
X34266190Y10014048D01*
X34266190Y9633096D01*
X33440000Y10395000D02*
X33440000Y11395000D01*
X34742380Y10633096D02*
X33742380Y10633096D01*
X33742380Y10871191D01*
X33790000Y11014048D01*
X33885238Y11109286D01*
X33980476Y11156905D01*
X34170952Y11204524D01*
X34313809Y11204524D01*
X34504285Y11156905D01*
X34599523Y11109286D01*
X34694761Y11014048D01*
X34742380Y10871191D01*
X34742380Y10633096D01*
X30900000Y9323572D02*
X30900000Y10466429D01*
X31202380Y9466429D02*
X32202380Y9704524D01*
X31488095Y9895000D01*
X32202380Y10085477D01*
X31202380Y10323572D01*
X30900000Y10466429D02*
X30900000Y11466429D01*
X32202380Y11275953D02*
X31726190Y10942620D01*
X32202380Y10704524D02*
X31202380Y10704524D01*
X31202380Y11085477D01*
X31250000Y11180715D01*
X31297619Y11228334D01*
X31392857Y11275953D01*
X31535714Y11275953D01*
X31630952Y11228334D01*
X31678571Y11180715D01*
X31726190Y11085477D01*
X31726190Y10704524D01*
X28360000Y9347381D02*
X28360000Y10490239D01*
X29662380Y9585477D02*
X28662380Y9585477D01*
X29376666Y9918810D01*
X28662380Y10252143D01*
X29662380Y10252143D01*
X28360000Y10490239D02*
X28360000Y11442620D01*
X29662380Y11252143D02*
X29662380Y10680715D01*
X29662380Y10966429D02*
X28662380Y10966429D01*
X28805238Y10871191D01*
X28900476Y10775953D01*
X28948095Y10680715D01*
X26455714Y9490239D02*
X27455714Y9490239D01*
X26503333Y9490239D02*
X26455714Y9585477D01*
X26455714Y9775953D01*
X26503333Y9871191D01*
X26550952Y9918810D01*
X26646190Y9966429D01*
X26931904Y9966429D01*
X27027142Y9918810D01*
X27074761Y9871191D01*
X27122380Y9775953D01*
X27122380Y9585477D01*
X27074761Y9490239D01*
X27122380Y10395000D02*
X26122380Y10395000D01*
X27122380Y10823572D02*
X26598571Y10823572D01*
X26503333Y10775953D01*
X26455714Y10680715D01*
X26455714Y10537858D01*
X26503333Y10442620D01*
X26550952Y10395000D01*
X27122380Y11299762D02*
X26455714Y11299762D01*
X26122380Y11299762D02*
X26170000Y11252143D01*
X26217619Y11299762D01*
X26170000Y11347381D01*
X26122380Y11299762D01*
X26217619Y11299762D01*
X24582380Y9656905D02*
X23582380Y9656905D01*
X23582380Y9895000D01*
X23630000Y10037858D01*
X23725238Y10133096D01*
X23820476Y10180715D01*
X24010952Y10228334D01*
X24153809Y10228334D01*
X24344285Y10180715D01*
X24439523Y10133096D01*
X24534761Y10037858D01*
X24582380Y9895000D01*
X24582380Y9656905D01*
X23582380Y10561667D02*
X23582380Y11228334D01*
X24582380Y10799762D01*
X22042380Y9656905D02*
X21042380Y9656905D01*
X21042380Y9895000D01*
X21090000Y10037858D01*
X21185238Y10133096D01*
X21280476Y10180715D01*
X21470952Y10228334D01*
X21613809Y10228334D01*
X21804285Y10180715D01*
X21899523Y10133096D01*
X21994761Y10037858D01*
X22042380Y9895000D01*
X22042380Y9656905D01*
X21042380Y11085477D02*
X21042380Y10895000D01*
X21090000Y10799762D01*
X21137619Y10752143D01*
X21280476Y10656905D01*
X21470952Y10609286D01*
X21851904Y10609286D01*
X21947142Y10656905D01*
X21994761Y10704524D01*
X22042380Y10799762D01*
X22042380Y10990239D01*
X21994761Y11085477D01*
X21947142Y11133096D01*
X21851904Y11180715D01*
X21613809Y11180715D01*
X21518571Y11133096D01*
X21470952Y11085477D01*
X21423333Y10990239D01*
X21423333Y10799762D01*
X21470952Y10704524D01*
X21518571Y10656905D01*
X21613809Y10609286D01*
X19502380Y9656905D02*
X18502380Y9656905D01*
X18502380Y9895000D01*
X18550000Y10037858D01*
X18645238Y10133096D01*
X18740476Y10180715D01*
X18930952Y10228334D01*
X19073809Y10228334D01*
X19264285Y10180715D01*
X19359523Y10133096D01*
X19454761Y10037858D01*
X19502380Y9895000D01*
X19502380Y9656905D01*
X18502380Y11133096D02*
X18502380Y10656905D01*
X18978571Y10609286D01*
X18930952Y10656905D01*
X18883333Y10752143D01*
X18883333Y10990239D01*
X18930952Y11085477D01*
X18978571Y11133096D01*
X19073809Y11180715D01*
X19311904Y11180715D01*
X19407142Y11133096D01*
X19454761Y11085477D01*
X19502380Y10990239D01*
X19502380Y10752143D01*
X19454761Y10656905D01*
X19407142Y10609286D01*
X16962380Y9656905D02*
X15962380Y9656905D01*
X15962380Y9895000D01*
X16010000Y10037858D01*
X16105238Y10133096D01*
X16200476Y10180715D01*
X16390952Y10228334D01*
X16533809Y10228334D01*
X16724285Y10180715D01*
X16819523Y10133096D01*
X16914761Y10037858D01*
X16962380Y9895000D01*
X16962380Y9656905D01*
X16295714Y11085477D02*
X16962380Y11085477D01*
X15914761Y10847381D02*
X16629047Y10609286D01*
X16629047Y11228334D01*
X14422380Y9656905D02*
X13422380Y9656905D01*
X13422380Y9895000D01*
X13470000Y10037858D01*
X13565238Y10133096D01*
X13660476Y10180715D01*
X13850952Y10228334D01*
X13993809Y10228334D01*
X14184285Y10180715D01*
X14279523Y10133096D01*
X14374761Y10037858D01*
X14422380Y9895000D01*
X14422380Y9656905D01*
X13422380Y10561667D02*
X13422380Y11180715D01*
X13803333Y10847381D01*
X13803333Y10990239D01*
X13850952Y11085477D01*
X13898571Y11133096D01*
X13993809Y11180715D01*
X14231904Y11180715D01*
X14327142Y11133096D01*
X14374761Y11085477D01*
X14422380Y10990239D01*
X14422380Y10704524D01*
X14374761Y10609286D01*
X14327142Y10561667D01*
X11501428Y9109286D02*
X11501428Y9871191D01*
X11882380Y9490239D02*
X11120476Y9490239D01*
X10882380Y10823572D02*
X10882380Y10347381D01*
X11358571Y10299762D01*
X11310952Y10347381D01*
X11263333Y10442620D01*
X11263333Y10680715D01*
X11310952Y10775953D01*
X11358571Y10823572D01*
X11453809Y10871191D01*
X11691904Y10871191D01*
X11787142Y10823572D01*
X11834761Y10775953D01*
X11882380Y10680715D01*
X11882380Y10442620D01*
X11834761Y10347381D01*
X11787142Y10299762D01*
X10882380Y11156905D02*
X11882380Y11490239D01*
X10882380Y11823572D01*
D11*
X8428571Y2928572D02*
X8285714Y2785715D01*
X7857142Y2642858D01*
X7571428Y2642858D01*
X7142857Y2785715D01*
X6857142Y3071429D01*
X6714285Y3357143D01*
X6571428Y3928572D01*
X6571428Y4357143D01*
X6714285Y4928572D01*
X6857142Y5214286D01*
X7142857Y5500000D01*
X7571428Y5642858D01*
X7857142Y5642858D01*
X8285714Y5500000D01*
X8428571Y5357143D01*
X9428571Y5642858D02*
X11428571Y5642858D01*
X9428571Y2642858D01*
X11428571Y2642858D01*
X12571428Y3785715D02*
X14857142Y3785715D01*
X16714285Y4357143D02*
X16428571Y4500000D01*
X16285714Y4642858D01*
X16142857Y4928572D01*
X16142857Y5071429D01*
X16285714Y5357143D01*
X16428571Y5500000D01*
X16714285Y5642858D01*
X17285714Y5642858D01*
X17571428Y5500000D01*
X17714285Y5357143D01*
X17857142Y5071429D01*
X17857142Y4928572D01*
X17714285Y4642858D01*
X17571428Y4500000D01*
X17285714Y4357143D01*
X16714285Y4357143D01*
X16428571Y4214286D01*
X16285714Y4071429D01*
X16142857Y3785715D01*
X16142857Y3214286D01*
X16285714Y2928572D01*
X16428571Y2785715D01*
X16714285Y2642858D01*
X17285714Y2642858D01*
X17571428Y2785715D01*
X17714285Y2928572D01*
X17857142Y3214286D01*
X17857142Y3785715D01*
X17714285Y4071429D01*
X17571428Y4214286D01*
X17285714Y4357143D01*
X19714285Y5642858D02*
X20000000Y5642858D01*
X20285714Y5500000D01*
X20428571Y5357143D01*
X20571428Y5071429D01*
X20714285Y4500000D01*
X20714285Y3785715D01*
X20571428Y3214286D01*
X20428571Y2928572D01*
X20285714Y2785715D01*
X20000000Y2642858D01*
X19714285Y2642858D01*
X19428571Y2785715D01*
X19285714Y2928572D01*
X19142857Y3214286D01*
X19000000Y3785715D01*
X19000000Y4500000D01*
X19142857Y5071429D01*
X19285714Y5357143D01*
X19428571Y5500000D01*
X19714285Y5642858D01*
X22571428Y5642858D02*
X22857142Y5642858D01*
X23142857Y5500000D01*
X23285714Y5357143D01*
X23428571Y5071429D01*
X23571428Y4500000D01*
X23571428Y3785715D01*
X23428571Y3214286D01*
X23285714Y2928572D01*
X23142857Y2785715D01*
X22857142Y2642858D01*
X22571428Y2642858D01*
X22285714Y2785715D01*
X22142857Y2928572D01*
X22000000Y3214286D01*
X21857142Y3785715D01*
X21857142Y4500000D01*
X22000000Y5071429D01*
X22142857Y5357143D01*
X22285714Y5500000D01*
X22571428Y5642858D01*
X27142857Y4214286D02*
X28142857Y4214286D01*
X28571428Y2642858D02*
X27142857Y2642858D01*
X27142857Y5642858D01*
X28571428Y5642858D01*
X29571428Y5642858D02*
X31571428Y2642858D01*
X31571428Y5642858D02*
X29571428Y2642858D01*
X32285714Y5642858D02*
X34000000Y5642858D01*
X33142857Y2642858D02*
X33142857Y5642858D01*
X35000000Y3785715D02*
X37285714Y3785715D01*
X39714285Y4214286D02*
X40142857Y4071429D01*
X40285714Y3928572D01*
X40428571Y3642858D01*
X40428571Y3214286D01*
X40285714Y2928572D01*
X40142857Y2785715D01*
X39857142Y2642858D01*
X38714285Y2642858D01*
X38714285Y5642858D01*
X39714285Y5642858D01*
X40000000Y5500000D01*
X40142857Y5357143D01*
X40285714Y5071429D01*
X40285714Y4785715D01*
X40142857Y4500000D01*
X40000000Y4357143D01*
X39714285Y4214286D01*
X38714285Y4214286D01*
X42285714Y5642858D02*
X42857142Y5642858D01*
X43142857Y5500000D01*
X43428571Y5214286D01*
X43571428Y4642858D01*
X43571428Y3642858D01*
X43428571Y3071429D01*
X43142857Y2785715D01*
X42857142Y2642858D01*
X42285714Y2642858D01*
X42000000Y2785715D01*
X41714285Y3071429D01*
X41571428Y3642858D01*
X41571428Y4642858D01*
X41714285Y5214286D01*
X42000000Y5500000D01*
X42285714Y5642858D01*
X44714285Y3500000D02*
X46142857Y3500000D01*
X44428571Y2642858D02*
X45428571Y5642858D01*
X46428571Y2642858D01*
X49142857Y2642858D02*
X48142857Y4071429D01*
X47428571Y2642858D02*
X47428571Y5642858D01*
X48571428Y5642858D01*
X48857142Y5500000D01*
X49000000Y5357143D01*
X49142857Y5071429D01*
X49142857Y4642858D01*
X49000000Y4357143D01*
X48857142Y4214286D01*
X48571428Y4071429D01*
X47428571Y4071429D01*
X50428571Y2642858D02*
X50428571Y5642858D01*
X51142857Y5642858D01*
X51571428Y5500000D01*
X51857142Y5214286D01*
X52000000Y4928572D01*
X52142857Y4357143D01*
X52142857Y3928572D01*
X52000000Y3357143D01*
X51857142Y3071429D01*
X51571428Y2785715D01*
X51142857Y2642858D01*
X50428571Y2642858D01*
X57428571Y2642858D02*
X56428571Y4071429D01*
X55714285Y2642858D02*
X55714285Y5642858D01*
X56857142Y5642858D01*
X57142857Y5500000D01*
X57285714Y5357143D01*
X57428571Y5071429D01*
X57428571Y4642858D01*
X57285714Y4357143D01*
X57142857Y4214286D01*
X56857142Y4071429D01*
X55714285Y4071429D01*
X59857142Y2785715D02*
X59571428Y2642858D01*
X59000000Y2642858D01*
X58714285Y2785715D01*
X58571428Y3071429D01*
X58571428Y4214286D01*
X58714285Y4500000D01*
X59000000Y4642858D01*
X59571428Y4642858D01*
X59857142Y4500000D01*
X60000000Y4214286D01*
X60000000Y3928572D01*
X58571428Y3642858D01*
X61000000Y4642858D02*
X61714285Y2642858D01*
X62428571Y4642858D01*
X65142857Y2642858D02*
X63428571Y2642858D01*
X64285714Y2642858D02*
X64285714Y5642858D01*
X64000000Y5214286D01*
X63714285Y4928572D01*
X63428571Y4785715D01*
X66428571Y2928572D02*
X66571428Y2785715D01*
X66428571Y2642858D01*
X66285714Y2785715D01*
X66428571Y2928572D01*
X66428571Y2642858D01*
X69428571Y2642858D02*
X67714285Y2642858D01*
X68571428Y2642858D02*
X68571428Y5642858D01*
X68285714Y5214286D01*
X68000000Y4928572D01*
X67714285Y4785715D01*
D12*
X65846000Y12240000D02*
X65846000Y17440000D01*
X12446000Y12240000D02*
X65846000Y12240000D01*
X9846000Y17440000D02*
X65846000Y17440000D01*
X12446000Y12240000D02*
X12446000Y14840000D01*
X12446000Y14840000D02*
X9846000Y14840000D01*
X9846000Y14840000D02*
X9846000Y17440000D01*
X11176000Y12240000D02*
X9846000Y12240000D01*
X9846000Y12240000D02*
X9846000Y13570000D01*
D13*
X7166666Y15052620D02*
X7166666Y14338334D01*
X7119047Y14195477D01*
X7023809Y14100239D01*
X6880952Y14052620D01*
X6785714Y14052620D01*
X7595238Y14957381D02*
X7642857Y15005000D01*
X7738095Y15052620D01*
X7976190Y15052620D01*
X8071428Y15005000D01*
X8119047Y14957381D01*
X8166666Y14862143D01*
X8166666Y14766905D01*
X8119047Y14624048D01*
X7547619Y14052620D01*
X8166666Y14052620D01*
M02*
