M48
; DRILL file {KiCad (5.1.9)-1} date 09/27/23 08:09:27
; FORMAT={-:-/ absolute / metric / decimal}
; #@! TF.CreationDate,2023-09-27T08:09:27+09:00
; #@! TF.GenerationSoftware,Kicad,Pcbnew,(5.1.9)-1
FMAT,2
METRIC
T1C0.300
T2C0.800
T3C1.000
T4C3.200
%
G90
G05
T1
X24.391Y100.207
X35.098Y113.074
X36.192Y96.852
X37.568Y66.471
X39.248Y30.987
X40.713Y26.267
X41.602Y25.514
X43.173Y67.421
X43.723Y62.555
X44.125Y95.995
X45.865Y81.886
X47.789Y102.411
X48.658Y82.962
X51.068Y114.371
X51.292Y87.588
X51.843Y88.212
X52.402Y101.891
X52.952Y89.221
X52.989Y105.445
X53.309Y111.864
X53.407Y82.122
X54.649Y112.639
X55.428Y112.851
X56.028Y101.653
X56.655Y104.724
X57.661Y112.414
X57.789Y110.67
X58.477Y120.557
X58.547Y123.058
X58.56Y110.621
X58.664Y112.968
X60.594Y101.097
X63.158Y60.077
X63.999Y120.557
X64.605Y120.156
X64.674Y64.98
X65.308Y112.131
X66.418Y110.313
X66.484Y101.653
X68.463Y101.097
X68.836Y119.756
X69.197Y111.737
X69.589Y114.992
X70.793Y114.901
X71.849Y115.713
X72.874Y61.745
X72.879Y54.711
X73.61Y102.062
X74.038Y67.389
X74.296Y119.712
X74.304Y115.091
X77.597Y117.039
X79.693Y104.921
X80.544Y118.255
X81.737Y57.211
X81.881Y88.212
X82.127Y117.309
X83.021Y117.317
X83.854Y119.095
X84.08Y67.722
X84.95Y102.654
X86.395Y119.762
X91.733Y94.603
X91.887Y104.972
X93.447Y75.504
T2
X6.985Y95.71
X6.985Y93.21
X10.448Y98.25
X10.448Y90.63
X11.684Y59.817
X11.684Y44.577
X12.988Y98.25
X12.988Y90.63
X14.224Y59.817
X14.224Y44.577
X15.528Y98.25
X15.528Y90.63
X16.764Y59.817
X16.764Y44.577
X18.068Y98.25
X18.068Y90.63
X19.304Y59.817
X19.304Y44.577
X19.939Y122.174
X20.608Y98.25
X20.608Y90.63
X21.844Y59.817
X21.844Y44.577
X22.439Y122.174
X23.148Y98.25
X23.148Y90.63
X24.384Y59.817
X24.384Y44.577
X24.413Y72.385
X24.413Y64.765
X25.654Y82.55
X25.654Y80.05
X25.688Y98.25
X25.688Y90.63
X26.924Y59.817
X26.924Y44.577
X29.21Y85.09
X29.21Y77.47
X29.464Y59.817
X29.464Y44.577
X31.369Y95.758
X31.369Y93.258
X31.496Y69.85
X31.496Y67.35
X31.75Y85.09
X31.75Y77.47
X32.004Y59.817
X32.004Y44.577
X33.147Y37.465
X33.147Y34.925
X33.147Y32.385
X33.147Y29.845
X33.147Y27.305
X33.147Y24.765
X33.147Y22.225
X33.147Y19.685
X33.147Y17.145
X33.147Y14.605
X33.147Y12.065
X33.147Y9.525
X34.29Y85.09
X34.29Y77.47
X34.544Y59.817
X34.544Y44.577
X34.798Y98.298
X34.798Y90.678
X34.925Y72.39
X34.925Y64.77
X35.687Y31.115
X35.687Y28.575
X35.687Y20.955
X35.687Y18.415
X36.83Y85.09
X36.83Y77.47
X37.084Y59.817
X37.084Y44.577
X37.338Y98.298
X37.338Y90.678
X37.465Y72.39
X37.465Y64.77
X39.37Y85.09
X39.37Y77.47
X39.624Y59.817
X39.624Y44.577
X39.878Y98.298
X39.878Y90.678
X40.005Y72.39
X40.005Y64.77
X41.91Y85.09
X41.91Y77.47
X42.164Y59.817
X42.164Y44.577
X42.418Y98.298
X42.418Y90.678
X42.545Y72.39
X42.545Y64.77
X44.45Y85.09
X44.45Y77.47
X44.704Y59.817
X44.704Y44.577
X44.958Y98.298
X44.958Y90.678
X45.085Y72.39
X45.085Y64.77
X47.244Y59.817
X47.244Y44.577
X47.498Y98.298
X47.498Y90.678
X47.625Y72.39
X47.625Y64.77
X48.387Y37.465
X48.387Y34.925
X48.387Y32.385
X48.387Y29.845
X48.387Y27.305
X48.387Y24.765
X48.387Y22.225
X48.387Y19.685
X48.387Y17.145
X48.387Y14.605
X48.387Y12.065
X48.387Y9.525
X49.784Y59.817
X49.784Y44.577
X50.038Y98.298
X50.038Y90.678
X50.165Y72.39
X50.165Y64.77
X50.927Y85.217
X50.927Y77.597
X52.324Y59.817
X52.324Y44.577
X52.705Y72.39
X52.705Y64.77
X54.864Y59.817
X54.864Y44.577
X55.245Y72.39
X55.245Y64.77
X55.88Y95.758
X55.88Y93.258
X55.88Y82.677
X55.88Y80.177
X57.404Y59.817
X57.404Y44.577
X57.785Y72.39
X57.785Y64.77
X59.436Y98.298
X59.436Y90.678
X59.47Y85.169
X59.47Y77.549
X59.944Y59.817
X59.944Y44.577
X61.976Y98.298
X61.976Y90.678
X62.01Y85.169
X62.01Y77.549
X63.754Y53.467
X63.754Y50.967
X64.135Y69.683
X64.135Y67.183
X64.516Y98.298
X64.516Y90.678
X64.55Y85.169
X64.55Y77.549
X67.056Y98.298
X67.056Y90.678
X67.09Y85.169
X67.09Y77.549
X67.691Y72.263
X67.691Y64.643
X69.596Y98.298
X69.596Y90.678
X69.63Y85.169
X69.63Y77.549
X70.231Y72.263
X70.231Y64.643
X72.136Y98.298
X72.136Y90.678
X72.17Y85.169
X72.17Y77.549
X72.771Y72.263
X72.771Y64.643
X74.676Y98.298
X74.676Y90.678
X74.71Y85.169
X74.71Y77.549
X74.803Y53.427
X74.803Y50.927
X75.311Y72.263
X75.311Y64.643
X77.851Y72.263
X77.851Y64.643
X79.883Y59.817
X79.883Y44.577
X80.264Y82.55
X80.264Y80.05
X80.391Y95.71
X80.391Y93.21
X80.391Y72.263
X80.391Y64.643
X82.423Y59.817
X82.423Y44.577
X82.931Y72.263
X82.931Y64.643
X83.854Y98.25
X83.854Y90.63
X83.862Y85.156
X83.862Y77.536
X84.963Y59.817
X84.963Y44.577
X85.471Y72.263
X85.471Y64.643
X86.394Y98.25
X86.394Y90.63
X86.402Y85.156
X86.402Y77.536
X87.503Y59.817
X87.503Y44.577
X88.011Y72.263
X88.011Y64.643
X88.934Y98.25
X88.934Y90.63
X88.942Y85.156
X88.942Y77.536
X90.043Y59.817
X90.043Y44.577
X90.551Y72.263
X90.551Y64.643
X91.474Y98.25
X91.474Y90.63
X91.482Y85.156
X91.482Y77.536
X92.583Y59.817
X92.583Y44.577
X94.014Y98.25
X94.014Y90.63
X94.022Y85.156
X94.022Y77.536
X95.123Y59.817
X95.123Y44.577
X96.554Y98.25
X96.554Y90.63
X96.562Y85.156
X96.562Y77.536
X97.409Y69.556
X97.409Y67.056
X97.663Y59.817
X97.663Y44.577
X99.094Y98.25
X99.094Y90.63
X99.102Y85.156
X99.102Y77.536
X100.203Y59.817
X100.203Y44.577
X101.092Y72.136
X101.092Y64.516
X101.642Y85.156
X101.642Y77.536
X102.743Y59.817
X102.743Y44.577
X103.632Y72.136
X103.632Y64.516
X104.648Y95.631
X104.648Y93.131
X105.283Y59.817
X105.283Y44.577
X106.172Y72.136
X106.172Y64.516
X107.823Y59.817
X107.823Y44.577
X108.238Y98.25
X108.238Y90.63
X108.712Y72.136
X108.712Y64.516
X110.363Y59.817
X110.363Y44.577
X110.778Y98.25
X110.778Y90.63
X111.252Y72.136
X111.252Y64.516
X112.903Y59.817
X112.903Y44.577
X113.318Y98.25
X113.318Y90.63
X113.792Y72.136
X113.792Y64.516
X115.858Y98.25
X115.858Y90.63
X116.332Y72.136
X116.332Y64.516
X118.398Y98.25
X118.398Y90.63
X118.872Y72.136
X118.872Y64.516
X120.938Y98.25
X120.938Y90.63
X121.412Y72.136
X121.412Y64.516
X123.478Y98.25
X123.478Y90.63
X123.952Y72.136
X123.952Y64.516
T3
X34.29Y109.22
X34.29Y106.68
X34.417Y124.206
X34.417Y121.666
X36.83Y109.22
X36.83Y106.68
X36.957Y124.206
X36.957Y121.666
X39.37Y109.22
X39.37Y106.68
X39.497Y124.206
X39.497Y121.666
X41.91Y109.22
X41.91Y106.68
X42.037Y124.206
X42.037Y121.666
X44.45Y109.22
X44.45Y106.68
X44.577Y124.206
X44.577Y121.666
X46.99Y109.22
X46.99Y106.68
X47.117Y124.206
X47.117Y121.666
X49.53Y109.22
X49.53Y106.68
X49.657Y124.206
X49.657Y121.666
X52.07Y109.22
X52.07Y106.68
X52.197Y124.206
X52.197Y121.666
X54.61Y109.22
X54.61Y106.68
X54.737Y124.206
X54.737Y121.666
X57.15Y109.22
X57.15Y106.68
X57.277Y124.206
X57.277Y121.666
X59.69Y109.22
X59.69Y106.68
X59.817Y124.206
X59.817Y121.666
X62.23Y109.22
X62.23Y106.68
X62.357Y124.206
X62.357Y121.666
X64.77Y109.22
X64.77Y106.68
X64.897Y124.206
X64.897Y121.666
X67.31Y109.22
X67.31Y106.68
X67.437Y124.206
X67.437Y121.666
X69.85Y109.22
X69.85Y106.68
X69.977Y124.206
X69.977Y121.666
X72.39Y109.22
X72.39Y106.68
X72.517Y124.206
X72.517Y121.666
X74.93Y109.22
X74.93Y106.68
X74.93Y30.48
X74.93Y5.08
X74.93Y2.54
X75.057Y124.206
X75.057Y121.666
X77.47Y109.22
X77.47Y106.68
X77.47Y30.48
X77.597Y124.206
X77.597Y121.666
X78.74Y38.1
X80.01Y109.22
X80.01Y106.68
X80.01Y30.48
X80.137Y124.206
X80.137Y121.666
X81.28Y38.1
X82.55Y109.22
X82.55Y106.68
X82.55Y30.48
X82.677Y124.206
X82.677Y121.666
X83.82Y38.1
X85.09Y109.22
X85.09Y106.68
X85.09Y30.48
X85.217Y124.206
X85.217Y121.666
X86.36Y38.1
X87.63Y109.22
X87.63Y106.68
X87.63Y30.48
X87.757Y124.206
X87.757Y121.666
X88.9Y38.1
X90.17Y30.48
X90.297Y124.206
X90.297Y121.666
X91.44Y38.1
X92.71Y30.48
X92.837Y124.206
X92.837Y121.666
X95.25Y30.48
X95.25Y5.08
X95.25Y2.54
X95.377Y124.206
X95.377Y121.666
X115.697Y118.237
X118.237Y118.237
T4
X5.0Y125.0
X5.0Y5.0
X132.0Y125.0
X132.0Y5.0
T0
M30
