G04 #@! TF.GenerationSoftware,KiCad,Pcbnew,(5.1.9)-1*
G04 #@! TF.CreationDate,2023-09-27T08:09:24+09:00*
G04 #@! TF.ProjectId,X1_SD,58315f53-442e-46b6-9963-61645f706362,rev?*
G04 #@! TF.SameCoordinates,PX1997c20PYbac5f70*
G04 #@! TF.FileFunction,Legend,Top*
G04 #@! TF.FilePolarity,Positive*
%FSLAX46Y46*%
G04 Gerber Fmt 4.6, Leading zero omitted, Abs format (unit mm)*
G04 Created by KiCad (PCBNEW (5.1.9)-1) date 2023-09-27 08:09:24*
%MOMM*%
%LPD*%
G01*
G04 APERTURE LIST*
%ADD10C,0.100000*%
%ADD11C,0.150000*%
%ADD12C,0.500000*%
%ADD13C,0.120000*%
G04 APERTURE END LIST*
D10*
G36*
X89289000Y111649000D02*
G01*
X88789000Y112649000D01*
X89789000Y112649000D01*
X89289000Y111649000D01*
G37*
X89289000Y111649000D02*
X88789000Y112649000D01*
X89789000Y112649000D01*
X89289000Y111649000D01*
G36*
X35000000Y118540000D02*
G01*
X34000000Y118540000D01*
X34500000Y119540000D01*
X35000000Y118540000D01*
G37*
X35000000Y118540000D02*
X34000000Y118540000D01*
X34500000Y119540000D01*
X35000000Y118540000D01*
D11*
X97362285Y120717429D02*
X97933714Y120717429D01*
X97576571Y119717429D02*
X97576571Y121003143D01*
X97648000Y121146000D01*
X97790857Y121217429D01*
X97933714Y121217429D01*
X98648000Y119717429D02*
X98505142Y119788858D01*
X98433714Y119860286D01*
X98362285Y120003143D01*
X98362285Y120431715D01*
X98433714Y120574572D01*
X98505142Y120646000D01*
X98648000Y120717429D01*
X98862285Y120717429D01*
X99005142Y120646000D01*
X99076571Y120574572D01*
X99148000Y120431715D01*
X99148000Y120003143D01*
X99076571Y119860286D01*
X99005142Y119788858D01*
X98862285Y119717429D01*
X98648000Y119717429D01*
X99790857Y119717429D02*
X99790857Y120717429D01*
X99790857Y120431715D02*
X99862285Y120574572D01*
X99933714Y120646000D01*
X100076571Y120717429D01*
X100219428Y120717429D01*
X102719428Y119860286D02*
X102648000Y119788858D01*
X102433714Y119717429D01*
X102290857Y119717429D01*
X102076571Y119788858D01*
X101933714Y119931715D01*
X101862285Y120074572D01*
X101790857Y120360286D01*
X101790857Y120574572D01*
X101862285Y120860286D01*
X101933714Y121003143D01*
X102076571Y121146000D01*
X102290857Y121217429D01*
X102433714Y121217429D01*
X102648000Y121146000D01*
X102719428Y121074572D01*
X103219428Y121217429D02*
X104219428Y121217429D01*
X103219428Y119717429D01*
X104219428Y119717429D01*
X104790857Y120288858D02*
X105933714Y120288858D01*
X106862285Y120574572D02*
X106719428Y120646000D01*
X106648000Y120717429D01*
X106576571Y120860286D01*
X106576571Y120931715D01*
X106648000Y121074572D01*
X106719428Y121146000D01*
X106862285Y121217429D01*
X107148000Y121217429D01*
X107290857Y121146000D01*
X107362285Y121074572D01*
X107433714Y120931715D01*
X107433714Y120860286D01*
X107362285Y120717429D01*
X107290857Y120646000D01*
X107148000Y120574572D01*
X106862285Y120574572D01*
X106719428Y120503143D01*
X106648000Y120431715D01*
X106576571Y120288858D01*
X106576571Y120003143D01*
X106648000Y119860286D01*
X106719428Y119788858D01*
X106862285Y119717429D01*
X107148000Y119717429D01*
X107290857Y119788858D01*
X107362285Y119860286D01*
X107433714Y120003143D01*
X107433714Y120288858D01*
X107362285Y120431715D01*
X107290857Y120503143D01*
X107148000Y120574572D01*
X108362285Y121217429D02*
X108505142Y121217429D01*
X108648000Y121146000D01*
X108719428Y121074572D01*
X108790857Y120931715D01*
X108862285Y120646000D01*
X108862285Y120288858D01*
X108790857Y120003143D01*
X108719428Y119860286D01*
X108648000Y119788858D01*
X108505142Y119717429D01*
X108362285Y119717429D01*
X108219428Y119788858D01*
X108148000Y119860286D01*
X108076571Y120003143D01*
X108005142Y120288858D01*
X108005142Y120646000D01*
X108076571Y120931715D01*
X108148000Y121074572D01*
X108219428Y121146000D01*
X108362285Y121217429D01*
X110290857Y119717429D02*
X109433714Y119717429D01*
X109862285Y119717429D02*
X109862285Y121217429D01*
X109719428Y121003143D01*
X109576571Y120860286D01*
X109433714Y120788858D01*
X111790857Y119860286D02*
X111719428Y119788858D01*
X111505142Y119717429D01*
X111362285Y119717429D01*
X111148000Y119788858D01*
X111005142Y119931715D01*
X110933714Y120074572D01*
X110862285Y120360286D01*
X110862285Y120574572D01*
X110933714Y120860286D01*
X111005142Y121003143D01*
X111148000Y121146000D01*
X111362285Y121217429D01*
X111505142Y121217429D01*
X111719428Y121146000D01*
X111790857Y121074572D01*
X89857285Y108144429D02*
X90428714Y108144429D01*
X90071571Y107144429D02*
X90071571Y108430143D01*
X90143000Y108573000D01*
X90285857Y108644429D01*
X90428714Y108644429D01*
X91143000Y107144429D02*
X91000142Y107215858D01*
X90928714Y107287286D01*
X90857285Y107430143D01*
X90857285Y107858715D01*
X90928714Y108001572D01*
X91000142Y108073000D01*
X91143000Y108144429D01*
X91357285Y108144429D01*
X91500142Y108073000D01*
X91571571Y108001572D01*
X91643000Y107858715D01*
X91643000Y107430143D01*
X91571571Y107287286D01*
X91500142Y107215858D01*
X91357285Y107144429D01*
X91143000Y107144429D01*
X92285857Y107144429D02*
X92285857Y108144429D01*
X92285857Y107858715D02*
X92357285Y108001572D01*
X92428714Y108073000D01*
X92571571Y108144429D01*
X92714428Y108144429D01*
X95214428Y107287286D02*
X95143000Y107215858D01*
X94928714Y107144429D01*
X94785857Y107144429D01*
X94571571Y107215858D01*
X94428714Y107358715D01*
X94357285Y107501572D01*
X94285857Y107787286D01*
X94285857Y108001572D01*
X94357285Y108287286D01*
X94428714Y108430143D01*
X94571571Y108573000D01*
X94785857Y108644429D01*
X94928714Y108644429D01*
X95143000Y108573000D01*
X95214428Y108501572D01*
X95714428Y108644429D02*
X96714428Y108644429D01*
X95714428Y107144429D01*
X96714428Y107144429D01*
X97285857Y107715858D02*
X98428714Y107715858D01*
X99357285Y108001572D02*
X99214428Y108073000D01*
X99143000Y108144429D01*
X99071571Y108287286D01*
X99071571Y108358715D01*
X99143000Y108501572D01*
X99214428Y108573000D01*
X99357285Y108644429D01*
X99643000Y108644429D01*
X99785857Y108573000D01*
X99857285Y108501572D01*
X99928714Y108358715D01*
X99928714Y108287286D01*
X99857285Y108144429D01*
X99785857Y108073000D01*
X99643000Y108001572D01*
X99357285Y108001572D01*
X99214428Y107930143D01*
X99143000Y107858715D01*
X99071571Y107715858D01*
X99071571Y107430143D01*
X99143000Y107287286D01*
X99214428Y107215858D01*
X99357285Y107144429D01*
X99643000Y107144429D01*
X99785857Y107215858D01*
X99857285Y107287286D01*
X99928714Y107430143D01*
X99928714Y107715858D01*
X99857285Y107858715D01*
X99785857Y107930143D01*
X99643000Y108001572D01*
X100857285Y108644429D02*
X101000142Y108644429D01*
X101143000Y108573000D01*
X101214428Y108501572D01*
X101285857Y108358715D01*
X101357285Y108073000D01*
X101357285Y107715858D01*
X101285857Y107430143D01*
X101214428Y107287286D01*
X101143000Y107215858D01*
X101000142Y107144429D01*
X100857285Y107144429D01*
X100714428Y107215858D01*
X100643000Y107287286D01*
X100571571Y107430143D01*
X100500142Y107715858D01*
X100500142Y108073000D01*
X100571571Y108358715D01*
X100643000Y108501572D01*
X100714428Y108573000D01*
X100857285Y108644429D01*
X102285857Y108644429D02*
X102428714Y108644429D01*
X102571571Y108573000D01*
X102643000Y108501572D01*
X102714428Y108358715D01*
X102785857Y108073000D01*
X102785857Y107715858D01*
X102714428Y107430143D01*
X102643000Y107287286D01*
X102571571Y107215858D01*
X102428714Y107144429D01*
X102285857Y107144429D01*
X102143000Y107215858D01*
X102071571Y107287286D01*
X102000142Y107430143D01*
X101928714Y107715858D01*
X101928714Y108073000D01*
X102000142Y108358715D01*
X102071571Y108501572D01*
X102143000Y108573000D01*
X102285857Y108644429D01*
D10*
X70203190Y126408715D02*
X69703190Y126408715D01*
X69941285Y126646810D02*
X69941285Y126813477D01*
X70203190Y126884905D02*
X70203190Y126646810D01*
X69703190Y126646810D01*
X69703190Y126884905D01*
X70203190Y127361096D02*
X70203190Y127075381D01*
X70203190Y127218239D02*
X69703190Y127218239D01*
X69774619Y127170620D01*
X69822238Y127123000D01*
X69846047Y127075381D01*
X66947000Y126130953D02*
X66947000Y126654762D01*
X67663190Y126250000D02*
X67163190Y126250000D01*
X67401285Y126250000D02*
X67401285Y126535715D01*
X67663190Y126535715D02*
X67163190Y126535715D01*
X66947000Y126654762D02*
X66947000Y127083334D01*
X67520333Y126750000D02*
X67520333Y126988096D01*
X67663190Y126702381D02*
X67163190Y126869048D01*
X67663190Y127035715D01*
X66947000Y127083334D02*
X66947000Y127488096D01*
X67663190Y127440477D02*
X67663190Y127202381D01*
X67163190Y127202381D01*
X66947000Y127488096D02*
X66947000Y127869048D01*
X67163190Y127535715D02*
X67163190Y127821429D01*
X67663190Y127678572D02*
X67163190Y127678572D01*
X56787000Y126119000D02*
X56787000Y126619000D01*
X57503190Y126523762D02*
X57265095Y126357096D01*
X57503190Y126238048D02*
X57003190Y126238048D01*
X57003190Y126428524D01*
X57027000Y126476143D01*
X57050809Y126499953D01*
X57098428Y126523762D01*
X57169857Y126523762D01*
X57217476Y126499953D01*
X57241285Y126476143D01*
X57265095Y126428524D01*
X57265095Y126238048D01*
X56787000Y126619000D02*
X56787000Y127119000D01*
X57503190Y126738048D02*
X57003190Y126738048D01*
X57003190Y126857096D01*
X57027000Y126928524D01*
X57074619Y126976143D01*
X57122238Y126999953D01*
X57217476Y127023762D01*
X57288904Y127023762D01*
X57384142Y126999953D01*
X57431761Y126976143D01*
X57479380Y126928524D01*
X57503190Y126857096D01*
X57503190Y126738048D01*
X72743190Y126408715D02*
X72243190Y126408715D01*
X72481285Y126646810D02*
X72481285Y126813477D01*
X72743190Y126884905D02*
X72743190Y126646810D01*
X72243190Y126646810D01*
X72243190Y126884905D01*
X72243190Y127194429D02*
X72243190Y127242048D01*
X72267000Y127289667D01*
X72290809Y127313477D01*
X72338428Y127337286D01*
X72433666Y127361096D01*
X72552714Y127361096D01*
X72647952Y127337286D01*
X72695571Y127313477D01*
X72719380Y127289667D01*
X72743190Y127242048D01*
X72743190Y127194429D01*
X72719380Y127146810D01*
X72695571Y127123000D01*
X72647952Y127099191D01*
X72552714Y127075381D01*
X72433666Y127075381D01*
X72338428Y127099191D01*
X72290809Y127123000D01*
X72267000Y127146810D01*
X72243190Y127194429D01*
X75283190Y123987810D02*
X75045095Y123821143D01*
X75283190Y123702096D02*
X74783190Y123702096D01*
X74783190Y123892572D01*
X74807000Y123940191D01*
X74830809Y123964000D01*
X74878428Y123987810D01*
X74949857Y123987810D01*
X74997476Y123964000D01*
X75021285Y123940191D01*
X75045095Y123892572D01*
X75045095Y123702096D01*
X75021285Y124202096D02*
X75021285Y124368762D01*
X75283190Y124440191D02*
X75283190Y124202096D01*
X74783190Y124202096D01*
X74783190Y124440191D01*
X75259380Y124630667D02*
X75283190Y124702096D01*
X75283190Y124821143D01*
X75259380Y124868762D01*
X75235571Y124892572D01*
X75187952Y124916381D01*
X75140333Y124916381D01*
X75092714Y124892572D01*
X75068904Y124868762D01*
X75045095Y124821143D01*
X75021285Y124725905D01*
X74997476Y124678286D01*
X74973666Y124654477D01*
X74926047Y124630667D01*
X74878428Y124630667D01*
X74830809Y124654477D01*
X74807000Y124678286D01*
X74783190Y124725905D01*
X74783190Y124844953D01*
X74807000Y124916381D01*
X75021285Y125130667D02*
X75021285Y125297334D01*
X75283190Y125368762D02*
X75283190Y125130667D01*
X74783190Y125130667D01*
X74783190Y125368762D01*
X74783190Y125511620D02*
X74783190Y125797334D01*
X75283190Y125654477D02*
X74783190Y125654477D01*
X49422857Y126166620D02*
X49922857Y126166620D01*
X49446666Y126166620D02*
X49422857Y126214239D01*
X49422857Y126309477D01*
X49446666Y126357096D01*
X49470476Y126380905D01*
X49518095Y126404715D01*
X49660952Y126404715D01*
X49708571Y126380905D01*
X49732380Y126357096D01*
X49756190Y126309477D01*
X49756190Y126214239D01*
X49732380Y126166620D01*
X49756190Y126619000D02*
X49256190Y126619000D01*
X49756190Y126833286D02*
X49494285Y126833286D01*
X49446666Y126809477D01*
X49422857Y126761858D01*
X49422857Y126690429D01*
X49446666Y126642810D01*
X49470476Y126619000D01*
X49756190Y127071381D02*
X49422857Y127071381D01*
X49256190Y127071381D02*
X49280000Y127047572D01*
X49303809Y127071381D01*
X49280000Y127095191D01*
X49256190Y127071381D01*
X49303809Y127071381D01*
X54247000Y126210286D02*
X54247000Y126781715D01*
X54463190Y126281715D02*
X54963190Y126400762D01*
X54606047Y126496000D01*
X54963190Y126591239D01*
X54463190Y126710286D01*
X54247000Y126781715D02*
X54247000Y127281715D01*
X54963190Y127186477D02*
X54725095Y127019810D01*
X54963190Y126900762D02*
X54463190Y126900762D01*
X54463190Y127091239D01*
X54487000Y127138858D01*
X54510809Y127162667D01*
X54558428Y127186477D01*
X54629857Y127186477D01*
X54677476Y127162667D01*
X54701285Y127138858D01*
X54725095Y127091239D01*
X54725095Y126900762D01*
X79647000Y126091286D02*
X79647000Y126543667D01*
X80101285Y126210334D02*
X80101285Y126377000D01*
X80363190Y126448429D02*
X80363190Y126210334D01*
X79863190Y126210334D01*
X79863190Y126448429D01*
X79647000Y126543667D02*
X79647000Y127019858D01*
X79863190Y126615096D02*
X80363190Y126948429D01*
X79863190Y126948429D02*
X80363190Y126615096D01*
X79647000Y127019858D02*
X79647000Y127257953D01*
X80363190Y127138905D02*
X79863190Y127138905D01*
X79647000Y127257953D02*
X79647000Y127781762D01*
X80363190Y127377000D02*
X79863190Y127377000D01*
X80363190Y127662715D01*
X79863190Y127662715D01*
X79647000Y127781762D02*
X79647000Y128162715D01*
X79863190Y127829381D02*
X79863190Y128115096D01*
X80363190Y127972239D02*
X79863190Y127972239D01*
X37183190Y125995953D02*
X36683190Y125995953D01*
X36683190Y126115000D01*
X36707000Y126186429D01*
X36754619Y126234048D01*
X36802238Y126257858D01*
X36897476Y126281667D01*
X36968904Y126281667D01*
X37064142Y126257858D01*
X37111761Y126234048D01*
X37159380Y126186429D01*
X37183190Y126115000D01*
X37183190Y125995953D01*
X36683190Y126448334D02*
X36683190Y126757858D01*
X36873666Y126591191D01*
X36873666Y126662620D01*
X36897476Y126710239D01*
X36921285Y126734048D01*
X36968904Y126757858D01*
X37087952Y126757858D01*
X37135571Y126734048D01*
X37159380Y126710239D01*
X37183190Y126662620D01*
X37183190Y126519762D01*
X37159380Y126472143D01*
X37135571Y126448334D01*
X82187000Y123567191D02*
X82187000Y124019572D01*
X82641285Y123686239D02*
X82641285Y123852905D01*
X82903190Y123924334D02*
X82903190Y123686239D01*
X82403190Y123686239D01*
X82403190Y123924334D01*
X82187000Y124019572D02*
X82187000Y124495762D01*
X82403190Y124091000D02*
X82903190Y124424334D01*
X82403190Y124424334D02*
X82903190Y124091000D01*
X82187000Y124495762D02*
X82187000Y125067191D01*
X82403190Y124567191D02*
X82903190Y124686239D01*
X82546047Y124781477D01*
X82903190Y124876715D01*
X82403190Y124995762D01*
X82187000Y125067191D02*
X82187000Y125495762D01*
X82760333Y125162429D02*
X82760333Y125400524D01*
X82903190Y125114810D02*
X82403190Y125281477D01*
X82903190Y125448143D01*
X82187000Y125495762D02*
X82187000Y125733858D01*
X82903190Y125614810D02*
X82403190Y125614810D01*
X82187000Y125733858D02*
X82187000Y126114810D01*
X82403190Y125781477D02*
X82403190Y126067191D01*
X82903190Y125924334D02*
X82403190Y125924334D01*
X84727000Y126079334D02*
X84727000Y126603143D01*
X85443190Y126198381D02*
X84943190Y126198381D01*
X85443190Y126484096D01*
X84943190Y126484096D01*
X84727000Y126603143D02*
X84727000Y127174572D01*
X85443190Y126722191D02*
X84943190Y126722191D01*
X85300333Y126888858D01*
X84943190Y127055524D01*
X85443190Y127055524D01*
X84727000Y127174572D02*
X84727000Y127412667D01*
X85443190Y127293620D02*
X84943190Y127293620D01*
X47216190Y125995953D02*
X46716190Y125995953D01*
X46716190Y126115000D01*
X46740000Y126186429D01*
X46787619Y126234048D01*
X46835238Y126257858D01*
X46930476Y126281667D01*
X47001904Y126281667D01*
X47097142Y126257858D01*
X47144761Y126234048D01*
X47192380Y126186429D01*
X47216190Y126115000D01*
X47216190Y125995953D01*
X46716190Y126448334D02*
X46716190Y126781667D01*
X47216190Y126567381D01*
X42136190Y125995953D02*
X41636190Y125995953D01*
X41636190Y126115000D01*
X41660000Y126186429D01*
X41707619Y126234048D01*
X41755238Y126257858D01*
X41850476Y126281667D01*
X41921904Y126281667D01*
X42017142Y126257858D01*
X42064761Y126234048D01*
X42112380Y126186429D01*
X42136190Y126115000D01*
X42136190Y125995953D01*
X41636190Y126734048D02*
X41636190Y126495953D01*
X41874285Y126472143D01*
X41850476Y126495953D01*
X41826666Y126543572D01*
X41826666Y126662620D01*
X41850476Y126710239D01*
X41874285Y126734048D01*
X41921904Y126757858D01*
X42040952Y126757858D01*
X42088571Y126734048D01*
X42112380Y126710239D01*
X42136190Y126662620D01*
X42136190Y126543572D01*
X42112380Y126495953D01*
X42088571Y126472143D01*
X39596190Y125995953D02*
X39096190Y125995953D01*
X39096190Y126115000D01*
X39120000Y126186429D01*
X39167619Y126234048D01*
X39215238Y126257858D01*
X39310476Y126281667D01*
X39381904Y126281667D01*
X39477142Y126257858D01*
X39524761Y126234048D01*
X39572380Y126186429D01*
X39596190Y126115000D01*
X39596190Y125995953D01*
X39262857Y126710239D02*
X39596190Y126710239D01*
X39072380Y126591191D02*
X39429523Y126472143D01*
X39429523Y126781667D01*
X44676190Y125995953D02*
X44176190Y125995953D01*
X44176190Y126115000D01*
X44200000Y126186429D01*
X44247619Y126234048D01*
X44295238Y126257858D01*
X44390476Y126281667D01*
X44461904Y126281667D01*
X44557142Y126257858D01*
X44604761Y126234048D01*
X44652380Y126186429D01*
X44676190Y126115000D01*
X44676190Y125995953D01*
X44176190Y126710239D02*
X44176190Y126615000D01*
X44200000Y126567381D01*
X44223809Y126543572D01*
X44295238Y126495953D01*
X44390476Y126472143D01*
X44580952Y126472143D01*
X44628571Y126495953D01*
X44652380Y126519762D01*
X44676190Y126567381D01*
X44676190Y126662620D01*
X44652380Y126710239D01*
X44628571Y126734048D01*
X44580952Y126757858D01*
X44461904Y126757858D01*
X44414285Y126734048D01*
X44390476Y126710239D01*
X44366666Y126662620D01*
X44366666Y126567381D01*
X44390476Y126519762D01*
X44414285Y126495953D01*
X44461904Y126472143D01*
X77107000Y126154762D02*
X77107000Y126607143D01*
X77561285Y126273810D02*
X77561285Y126440477D01*
X77823190Y126511905D02*
X77823190Y126273810D01*
X77323190Y126273810D01*
X77323190Y126511905D01*
X77107000Y126607143D02*
X77107000Y127083334D01*
X77323190Y126678572D02*
X77823190Y127011905D01*
X77323190Y127011905D02*
X77823190Y126678572D01*
X77107000Y127083334D02*
X77107000Y127321429D01*
X77823190Y127202381D02*
X77323190Y127202381D01*
X77107000Y127321429D02*
X77107000Y127845239D01*
X77323190Y127535715D02*
X77323190Y127630953D01*
X77347000Y127678572D01*
X77394619Y127726191D01*
X77489857Y127750000D01*
X77656523Y127750000D01*
X77751761Y127726191D01*
X77799380Y127678572D01*
X77823190Y127630953D01*
X77823190Y127535715D01*
X77799380Y127488096D01*
X77751761Y127440477D01*
X77656523Y127416667D01*
X77489857Y127416667D01*
X77394619Y127440477D01*
X77347000Y127488096D01*
X77323190Y127535715D01*
X64647000Y126619048D02*
X64623190Y126571429D01*
X64623190Y126500000D01*
X64647000Y126428572D01*
X64694619Y126380953D01*
X64742238Y126357143D01*
X64837476Y126333334D01*
X64908904Y126333334D01*
X65004142Y126357143D01*
X65051761Y126380953D01*
X65099380Y126428572D01*
X65123190Y126500000D01*
X65123190Y126547620D01*
X65099380Y126619048D01*
X65075571Y126642858D01*
X64908904Y126642858D01*
X64908904Y126547620D01*
X65123190Y126857143D02*
X64623190Y126857143D01*
X65123190Y127142858D01*
X64623190Y127142858D01*
X65123190Y127380953D02*
X64623190Y127380953D01*
X64623190Y127500000D01*
X64647000Y127571429D01*
X64694619Y127619048D01*
X64742238Y127642858D01*
X64837476Y127666667D01*
X64908904Y127666667D01*
X65004142Y127642858D01*
X65051761Y127619048D01*
X65099380Y127571429D01*
X65123190Y127500000D01*
X65123190Y127380953D01*
X61867000Y126103191D02*
X61867000Y126674620D01*
X62583190Y126222239D02*
X62083190Y126222239D01*
X62440333Y126388905D01*
X62083190Y126555572D01*
X62583190Y126555572D01*
X61867000Y126674620D02*
X61867000Y127174620D01*
X62583190Y127079381D02*
X62345095Y126912715D01*
X62583190Y126793667D02*
X62083190Y126793667D01*
X62083190Y126984143D01*
X62107000Y127031762D01*
X62130809Y127055572D01*
X62178428Y127079381D01*
X62249857Y127079381D01*
X62297476Y127055572D01*
X62321285Y127031762D01*
X62345095Y126984143D01*
X62345095Y126793667D01*
X61867000Y127174620D02*
X61867000Y127627000D01*
X62321285Y127293667D02*
X62321285Y127460334D01*
X62583190Y127531762D02*
X62583190Y127293667D01*
X62083190Y127293667D01*
X62083190Y127531762D01*
X61867000Y127627000D02*
X61867000Y128150810D01*
X62630809Y128079381D02*
X62607000Y128031762D01*
X62559380Y127984143D01*
X62487952Y127912715D01*
X62464142Y127865096D01*
X62464142Y127817477D01*
X62583190Y127841286D02*
X62559380Y127793667D01*
X62511761Y127746048D01*
X62416523Y127722239D01*
X62249857Y127722239D01*
X62154619Y127746048D01*
X62107000Y127793667D01*
X62083190Y127841286D01*
X62083190Y127936524D01*
X62107000Y127984143D01*
X62154619Y128031762D01*
X62249857Y128055572D01*
X62416523Y128055572D01*
X62511761Y128031762D01*
X62559380Y127984143D01*
X62583190Y127936524D01*
X62583190Y127841286D01*
X59327000Y123594953D02*
X59327000Y123833048D01*
X60043190Y123714000D02*
X59543190Y123714000D01*
X59327000Y123833048D02*
X59327000Y124356858D01*
X59543190Y124047334D02*
X59543190Y124142572D01*
X59567000Y124190191D01*
X59614619Y124237810D01*
X59709857Y124261620D01*
X59876523Y124261620D01*
X59971761Y124237810D01*
X60019380Y124190191D01*
X60043190Y124142572D01*
X60043190Y124047334D01*
X60019380Y123999715D01*
X59971761Y123952096D01*
X59876523Y123928286D01*
X59709857Y123928286D01*
X59614619Y123952096D01*
X59567000Y123999715D01*
X59543190Y124047334D01*
X59327000Y124356858D02*
X59327000Y124856858D01*
X60043190Y124761620D02*
X59805095Y124594953D01*
X60043190Y124475905D02*
X59543190Y124475905D01*
X59543190Y124666381D01*
X59567000Y124714000D01*
X59590809Y124737810D01*
X59638428Y124761620D01*
X59709857Y124761620D01*
X59757476Y124737810D01*
X59781285Y124714000D01*
X59805095Y124666381D01*
X59805095Y124475905D01*
X59327000Y124856858D02*
X59327000Y125309239D01*
X59781285Y124975905D02*
X59781285Y125142572D01*
X60043190Y125214000D02*
X60043190Y124975905D01*
X59543190Y124975905D01*
X59543190Y125214000D01*
X59327000Y125309239D02*
X59327000Y125833048D01*
X60090809Y125761620D02*
X60067000Y125714000D01*
X60019380Y125666381D01*
X59947952Y125594953D01*
X59924142Y125547334D01*
X59924142Y125499715D01*
X60043190Y125523524D02*
X60019380Y125475905D01*
X59971761Y125428286D01*
X59876523Y125404477D01*
X59709857Y125404477D01*
X59614619Y125428286D01*
X59567000Y125475905D01*
X59543190Y125523524D01*
X59543190Y125618762D01*
X59567000Y125666381D01*
X59614619Y125714000D01*
X59709857Y125737810D01*
X59876523Y125737810D01*
X59971761Y125714000D01*
X60019380Y125666381D01*
X60043190Y125618762D01*
X60043190Y125523524D01*
X51707000Y126222191D02*
X51707000Y126793620D01*
X52423190Y126341239D02*
X51923190Y126341239D01*
X52280333Y126507905D01*
X51923190Y126674572D01*
X52423190Y126674572D01*
X51707000Y126793620D02*
X51707000Y127269810D01*
X52423190Y127174572D02*
X52423190Y126888858D01*
X52423190Y127031715D02*
X51923190Y127031715D01*
X51994619Y126984096D01*
X52042238Y126936477D01*
X52066047Y126888858D01*
X95127000Y126365048D02*
X95103190Y126317429D01*
X95103190Y126246000D01*
X95127000Y126174572D01*
X95174619Y126126953D01*
X95222238Y126103143D01*
X95317476Y126079334D01*
X95388904Y126079334D01*
X95484142Y126103143D01*
X95531761Y126126953D01*
X95579380Y126174572D01*
X95603190Y126246000D01*
X95603190Y126293620D01*
X95579380Y126365048D01*
X95555571Y126388858D01*
X95388904Y126388858D01*
X95388904Y126293620D01*
X95603190Y126603143D02*
X95103190Y126603143D01*
X95603190Y126888858D01*
X95103190Y126888858D01*
X95603190Y127126953D02*
X95103190Y127126953D01*
X95103190Y127246000D01*
X95127000Y127317429D01*
X95174619Y127365048D01*
X95222238Y127388858D01*
X95317476Y127412667D01*
X95388904Y127412667D01*
X95484142Y127388858D01*
X95531761Y127365048D01*
X95579380Y127317429D01*
X95603190Y127246000D01*
X95603190Y127126953D01*
X90047000Y126365048D02*
X90023190Y126317429D01*
X90023190Y126246000D01*
X90047000Y126174572D01*
X90094619Y126126953D01*
X90142238Y126103143D01*
X90237476Y126079334D01*
X90308904Y126079334D01*
X90404142Y126103143D01*
X90451761Y126126953D01*
X90499380Y126174572D01*
X90523190Y126246000D01*
X90523190Y126293620D01*
X90499380Y126365048D01*
X90475571Y126388858D01*
X90308904Y126388858D01*
X90308904Y126293620D01*
X90523190Y126603143D02*
X90023190Y126603143D01*
X90523190Y126888858D01*
X90023190Y126888858D01*
X90523190Y127126953D02*
X90023190Y127126953D01*
X90023190Y127246000D01*
X90047000Y127317429D01*
X90094619Y127365048D01*
X90142238Y127388858D01*
X90237476Y127412667D01*
X90308904Y127412667D01*
X90404142Y127388858D01*
X90451761Y127365048D01*
X90499380Y127317429D01*
X90523190Y127246000D01*
X90523190Y127126953D01*
X92587000Y126365048D02*
X92563190Y126317429D01*
X92563190Y126246000D01*
X92587000Y126174572D01*
X92634619Y126126953D01*
X92682238Y126103143D01*
X92777476Y126079334D01*
X92848904Y126079334D01*
X92944142Y126103143D01*
X92991761Y126126953D01*
X93039380Y126174572D01*
X93063190Y126246000D01*
X93063190Y126293620D01*
X93039380Y126365048D01*
X93015571Y126388858D01*
X92848904Y126388858D01*
X92848904Y126293620D01*
X93063190Y126603143D02*
X92563190Y126603143D01*
X93063190Y126888858D01*
X92563190Y126888858D01*
X93063190Y127126953D02*
X92563190Y127126953D01*
X92563190Y127246000D01*
X92587000Y127317429D01*
X92634619Y127365048D01*
X92682238Y127388858D01*
X92777476Y127412667D01*
X92848904Y127412667D01*
X92944142Y127388858D01*
X92991761Y127365048D01*
X93039380Y127317429D01*
X93063190Y127246000D01*
X93063190Y127126953D01*
X87507000Y126365048D02*
X87483190Y126317429D01*
X87483190Y126246000D01*
X87507000Y126174572D01*
X87554619Y126126953D01*
X87602238Y126103143D01*
X87697476Y126079334D01*
X87768904Y126079334D01*
X87864142Y126103143D01*
X87911761Y126126953D01*
X87959380Y126174572D01*
X87983190Y126246000D01*
X87983190Y126293620D01*
X87959380Y126365048D01*
X87935571Y126388858D01*
X87768904Y126388858D01*
X87768904Y126293620D01*
X87983190Y126603143D02*
X87483190Y126603143D01*
X87983190Y126888858D01*
X87483190Y126888858D01*
X87983190Y127126953D02*
X87483190Y127126953D01*
X87483190Y127246000D01*
X87507000Y127317429D01*
X87554619Y127365048D01*
X87602238Y127388858D01*
X87697476Y127412667D01*
X87768904Y127412667D01*
X87864142Y127388858D01*
X87911761Y127365048D01*
X87959380Y127317429D01*
X87983190Y127246000D01*
X87983190Y127126953D01*
X95127000Y118745048D02*
X95103190Y118697429D01*
X95103190Y118626000D01*
X95127000Y118554572D01*
X95174619Y118506953D01*
X95222238Y118483143D01*
X95317476Y118459334D01*
X95388904Y118459334D01*
X95484142Y118483143D01*
X95531761Y118506953D01*
X95579380Y118554572D01*
X95603190Y118626000D01*
X95603190Y118673620D01*
X95579380Y118745048D01*
X95555571Y118768858D01*
X95388904Y118768858D01*
X95388904Y118673620D01*
X95603190Y118983143D02*
X95103190Y118983143D01*
X95603190Y119268858D01*
X95103190Y119268858D01*
X95603190Y119506953D02*
X95103190Y119506953D01*
X95103190Y119626000D01*
X95127000Y119697429D01*
X95174619Y119745048D01*
X95222238Y119768858D01*
X95317476Y119792667D01*
X95388904Y119792667D01*
X95484142Y119768858D01*
X95531761Y119745048D01*
X95579380Y119697429D01*
X95603190Y119626000D01*
X95603190Y119506953D01*
X92587000Y118745048D02*
X92563190Y118697429D01*
X92563190Y118626000D01*
X92587000Y118554572D01*
X92634619Y118506953D01*
X92682238Y118483143D01*
X92777476Y118459334D01*
X92848904Y118459334D01*
X92944142Y118483143D01*
X92991761Y118506953D01*
X93039380Y118554572D01*
X93063190Y118626000D01*
X93063190Y118673620D01*
X93039380Y118745048D01*
X93015571Y118768858D01*
X92848904Y118768858D01*
X92848904Y118673620D01*
X93063190Y118983143D02*
X92563190Y118983143D01*
X93063190Y119268858D01*
X92563190Y119268858D01*
X93063190Y119506953D02*
X92563190Y119506953D01*
X92563190Y119626000D01*
X92587000Y119697429D01*
X92634619Y119745048D01*
X92682238Y119768858D01*
X92777476Y119792667D01*
X92848904Y119792667D01*
X92944142Y119768858D01*
X92991761Y119745048D01*
X93039380Y119697429D01*
X93063190Y119626000D01*
X93063190Y119506953D01*
X90047000Y118745048D02*
X90023190Y118697429D01*
X90023190Y118626000D01*
X90047000Y118554572D01*
X90094619Y118506953D01*
X90142238Y118483143D01*
X90237476Y118459334D01*
X90308904Y118459334D01*
X90404142Y118483143D01*
X90451761Y118506953D01*
X90499380Y118554572D01*
X90523190Y118626000D01*
X90523190Y118673620D01*
X90499380Y118745048D01*
X90475571Y118768858D01*
X90308904Y118768858D01*
X90308904Y118673620D01*
X90523190Y118983143D02*
X90023190Y118983143D01*
X90523190Y119268858D01*
X90023190Y119268858D01*
X90523190Y119506953D02*
X90023190Y119506953D01*
X90023190Y119626000D01*
X90047000Y119697429D01*
X90094619Y119745048D01*
X90142238Y119768858D01*
X90237476Y119792667D01*
X90308904Y119792667D01*
X90404142Y119768858D01*
X90451761Y119745048D01*
X90499380Y119697429D01*
X90523190Y119626000D01*
X90523190Y119506953D01*
X42263190Y119010953D02*
X41763190Y119010953D01*
X41763190Y119130000D01*
X41787000Y119201429D01*
X41834619Y119249048D01*
X41882238Y119272858D01*
X41977476Y119296667D01*
X42048904Y119296667D01*
X42144142Y119272858D01*
X42191761Y119249048D01*
X42239380Y119201429D01*
X42263190Y119130000D01*
X42263190Y119010953D01*
X41763190Y119606191D02*
X41763190Y119653810D01*
X41787000Y119701429D01*
X41810809Y119725239D01*
X41858428Y119749048D01*
X41953666Y119772858D01*
X42072714Y119772858D01*
X42167952Y119749048D01*
X42215571Y119725239D01*
X42239380Y119701429D01*
X42263190Y119653810D01*
X42263190Y119606191D01*
X42239380Y119558572D01*
X42215571Y119534762D01*
X42167952Y119510953D01*
X42072714Y119487143D01*
X41953666Y119487143D01*
X41858428Y119510953D01*
X41810809Y119534762D01*
X41787000Y119558572D01*
X41763190Y119606191D01*
X44327000Y118745048D02*
X44303190Y118697429D01*
X44303190Y118626000D01*
X44327000Y118554572D01*
X44374619Y118506953D01*
X44422238Y118483143D01*
X44517476Y118459334D01*
X44588904Y118459334D01*
X44684142Y118483143D01*
X44731761Y118506953D01*
X44779380Y118554572D01*
X44803190Y118626000D01*
X44803190Y118673620D01*
X44779380Y118745048D01*
X44755571Y118768858D01*
X44588904Y118768858D01*
X44588904Y118673620D01*
X44803190Y118983143D02*
X44303190Y118983143D01*
X44803190Y119268858D01*
X44303190Y119268858D01*
X44803190Y119506953D02*
X44303190Y119506953D01*
X44303190Y119626000D01*
X44327000Y119697429D01*
X44374619Y119745048D01*
X44422238Y119768858D01*
X44517476Y119792667D01*
X44588904Y119792667D01*
X44684142Y119768858D01*
X44731761Y119745048D01*
X44779380Y119697429D01*
X44803190Y119626000D01*
X44803190Y119506953D01*
X39723190Y119010953D02*
X39223190Y119010953D01*
X39223190Y119130000D01*
X39247000Y119201429D01*
X39294619Y119249048D01*
X39342238Y119272858D01*
X39437476Y119296667D01*
X39508904Y119296667D01*
X39604142Y119272858D01*
X39651761Y119249048D01*
X39699380Y119201429D01*
X39723190Y119130000D01*
X39723190Y119010953D01*
X39723190Y119772858D02*
X39723190Y119487143D01*
X39723190Y119630000D02*
X39223190Y119630000D01*
X39294619Y119582381D01*
X39342238Y119534762D01*
X39366047Y119487143D01*
X47200333Y118657762D02*
X47200333Y118895858D01*
X47343190Y118610143D02*
X46843190Y118776810D01*
X47343190Y118943477D01*
X47343190Y119372048D02*
X47343190Y119086334D01*
X47343190Y119229191D02*
X46843190Y119229191D01*
X46914619Y119181572D01*
X46962238Y119133953D01*
X46986047Y119086334D01*
X46843190Y119824429D02*
X46843190Y119586334D01*
X47081285Y119562524D01*
X47057476Y119586334D01*
X47033666Y119633953D01*
X47033666Y119753000D01*
X47057476Y119800620D01*
X47081285Y119824429D01*
X47128904Y119848239D01*
X47247952Y119848239D01*
X47295571Y119824429D01*
X47319380Y119800620D01*
X47343190Y119753000D01*
X47343190Y119633953D01*
X47319380Y119586334D01*
X47295571Y119562524D01*
X49740333Y118657762D02*
X49740333Y118895858D01*
X49883190Y118610143D02*
X49383190Y118776810D01*
X49883190Y118943477D01*
X49883190Y119372048D02*
X49883190Y119086334D01*
X49883190Y119229191D02*
X49383190Y119229191D01*
X49454619Y119181572D01*
X49502238Y119133953D01*
X49526047Y119086334D01*
X49549857Y119800620D02*
X49883190Y119800620D01*
X49359380Y119681572D02*
X49716523Y119562524D01*
X49716523Y119872048D01*
X37183190Y118883953D02*
X36683190Y118883953D01*
X36683190Y119003000D01*
X36707000Y119074429D01*
X36754619Y119122048D01*
X36802238Y119145858D01*
X36897476Y119169667D01*
X36968904Y119169667D01*
X37064142Y119145858D01*
X37111761Y119122048D01*
X37159380Y119074429D01*
X37183190Y119003000D01*
X37183190Y118883953D01*
X36730809Y119360143D02*
X36707000Y119383953D01*
X36683190Y119431572D01*
X36683190Y119550620D01*
X36707000Y119598239D01*
X36730809Y119622048D01*
X36778428Y119645858D01*
X36826047Y119645858D01*
X36897476Y119622048D01*
X37183190Y119336334D01*
X37183190Y119645858D01*
X80220333Y119149858D02*
X80220333Y119387953D01*
X80363190Y119102239D02*
X79863190Y119268905D01*
X80363190Y119435572D01*
X79910809Y119578429D02*
X79887000Y119602239D01*
X79863190Y119649858D01*
X79863190Y119768905D01*
X79887000Y119816524D01*
X79910809Y119840334D01*
X79958428Y119864143D01*
X80006047Y119864143D01*
X80077476Y119840334D01*
X80363190Y119554620D01*
X80363190Y119864143D01*
X82760333Y119149858D02*
X82760333Y119387953D01*
X82903190Y119102239D02*
X82403190Y119268905D01*
X82903190Y119435572D01*
X82903190Y119864143D02*
X82903190Y119578429D01*
X82903190Y119721286D02*
X82403190Y119721286D01*
X82474619Y119673667D01*
X82522238Y119626048D01*
X82546047Y119578429D01*
X85300333Y119022858D02*
X85300333Y119260953D01*
X85443190Y118975239D02*
X84943190Y119141905D01*
X85443190Y119308572D01*
X84943190Y119570477D02*
X84943190Y119618096D01*
X84967000Y119665715D01*
X84990809Y119689524D01*
X85038428Y119713334D01*
X85133666Y119737143D01*
X85252714Y119737143D01*
X85347952Y119713334D01*
X85395571Y119689524D01*
X85419380Y119665715D01*
X85443190Y119618096D01*
X85443190Y119570477D01*
X85419380Y119522858D01*
X85395571Y119499048D01*
X85347952Y119475239D01*
X85252714Y119451429D01*
X85133666Y119451429D01*
X85038428Y119475239D01*
X84990809Y119499048D01*
X84967000Y119522858D01*
X84943190Y119570477D01*
X54820333Y118657762D02*
X54820333Y118895858D01*
X54963190Y118610143D02*
X54463190Y118776810D01*
X54963190Y118943477D01*
X54963190Y119372048D02*
X54963190Y119086334D01*
X54963190Y119229191D02*
X54463190Y119229191D01*
X54534619Y119181572D01*
X54582238Y119133953D01*
X54606047Y119086334D01*
X54510809Y119562524D02*
X54487000Y119586334D01*
X54463190Y119633953D01*
X54463190Y119753000D01*
X54487000Y119800620D01*
X54510809Y119824429D01*
X54558428Y119848239D01*
X54606047Y119848239D01*
X54677476Y119824429D01*
X54963190Y119538715D01*
X54963190Y119848239D01*
X67520333Y119149858D02*
X67520333Y119387953D01*
X67663190Y119102239D02*
X67163190Y119268905D01*
X67663190Y119435572D01*
X67163190Y119554620D02*
X67163190Y119887953D01*
X67663190Y119673667D01*
X72600333Y119149858D02*
X72600333Y119387953D01*
X72743190Y119102239D02*
X72243190Y119268905D01*
X72743190Y119435572D01*
X72243190Y119840334D02*
X72243190Y119602239D01*
X72481285Y119578429D01*
X72457476Y119602239D01*
X72433666Y119649858D01*
X72433666Y119768905D01*
X72457476Y119816524D01*
X72481285Y119840334D01*
X72528904Y119864143D01*
X72647952Y119864143D01*
X72695571Y119840334D01*
X72719380Y119816524D01*
X72743190Y119768905D01*
X72743190Y119649858D01*
X72719380Y119602239D01*
X72695571Y119578429D01*
X75140333Y119149858D02*
X75140333Y119387953D01*
X75283190Y119102239D02*
X74783190Y119268905D01*
X75283190Y119435572D01*
X74949857Y119816524D02*
X75283190Y119816524D01*
X74759380Y119697477D02*
X75116523Y119578429D01*
X75116523Y119887953D01*
X57360333Y118784762D02*
X57360333Y119022858D01*
X57503190Y118737143D02*
X57003190Y118903810D01*
X57503190Y119070477D01*
X57503190Y119499048D02*
X57503190Y119213334D01*
X57503190Y119356191D02*
X57003190Y119356191D01*
X57074619Y119308572D01*
X57122238Y119260953D01*
X57146047Y119213334D01*
X57503190Y119975239D02*
X57503190Y119689524D01*
X57503190Y119832381D02*
X57003190Y119832381D01*
X57074619Y119784762D01*
X57122238Y119737143D01*
X57146047Y119689524D01*
X70060333Y119149858D02*
X70060333Y119387953D01*
X70203190Y119102239D02*
X69703190Y119268905D01*
X70203190Y119435572D01*
X69703190Y119816524D02*
X69703190Y119721286D01*
X69727000Y119673667D01*
X69750809Y119649858D01*
X69822238Y119602239D01*
X69917476Y119578429D01*
X70107952Y119578429D01*
X70155571Y119602239D01*
X70179380Y119626048D01*
X70203190Y119673667D01*
X70203190Y119768905D01*
X70179380Y119816524D01*
X70155571Y119840334D01*
X70107952Y119864143D01*
X69988904Y119864143D01*
X69941285Y119840334D01*
X69917476Y119816524D01*
X69893666Y119768905D01*
X69893666Y119673667D01*
X69917476Y119626048D01*
X69941285Y119602239D01*
X69988904Y119578429D01*
X64980333Y119149858D02*
X64980333Y119387953D01*
X65123190Y119102239D02*
X64623190Y119268905D01*
X65123190Y119435572D01*
X64837476Y119673667D02*
X64813666Y119626048D01*
X64789857Y119602239D01*
X64742238Y119578429D01*
X64718428Y119578429D01*
X64670809Y119602239D01*
X64647000Y119626048D01*
X64623190Y119673667D01*
X64623190Y119768905D01*
X64647000Y119816524D01*
X64670809Y119840334D01*
X64718428Y119864143D01*
X64742238Y119864143D01*
X64789857Y119840334D01*
X64813666Y119816524D01*
X64837476Y119768905D01*
X64837476Y119673667D01*
X64861285Y119626048D01*
X64885095Y119602239D01*
X64932714Y119578429D01*
X65027952Y119578429D01*
X65075571Y119602239D01*
X65099380Y119626048D01*
X65123190Y119673667D01*
X65123190Y119768905D01*
X65099380Y119816524D01*
X65075571Y119840334D01*
X65027952Y119864143D01*
X64932714Y119864143D01*
X64885095Y119840334D01*
X64861285Y119816524D01*
X64837476Y119768905D01*
X59900333Y118784762D02*
X59900333Y119022858D01*
X60043190Y118737143D02*
X59543190Y118903810D01*
X60043190Y119070477D01*
X60043190Y119499048D02*
X60043190Y119213334D01*
X60043190Y119356191D02*
X59543190Y119356191D01*
X59614619Y119308572D01*
X59662238Y119260953D01*
X59686047Y119213334D01*
X59543190Y119808572D02*
X59543190Y119856191D01*
X59567000Y119903810D01*
X59590809Y119927620D01*
X59638428Y119951429D01*
X59733666Y119975239D01*
X59852714Y119975239D01*
X59947952Y119951429D01*
X59995571Y119927620D01*
X60019380Y119903810D01*
X60043190Y119856191D01*
X60043190Y119808572D01*
X60019380Y119760953D01*
X59995571Y119737143D01*
X59947952Y119713334D01*
X59852714Y119689524D01*
X59733666Y119689524D01*
X59638428Y119713334D01*
X59590809Y119737143D01*
X59567000Y119760953D01*
X59543190Y119808572D01*
X62440333Y119149858D02*
X62440333Y119387953D01*
X62583190Y119102239D02*
X62083190Y119268905D01*
X62583190Y119435572D01*
X62583190Y119626048D02*
X62583190Y119721286D01*
X62559380Y119768905D01*
X62535571Y119792715D01*
X62464142Y119840334D01*
X62368904Y119864143D01*
X62178428Y119864143D01*
X62130809Y119840334D01*
X62107000Y119816524D01*
X62083190Y119768905D01*
X62083190Y119673667D01*
X62107000Y119626048D01*
X62130809Y119602239D01*
X62178428Y119578429D01*
X62297476Y119578429D01*
X62345095Y119602239D01*
X62368904Y119626048D01*
X62392714Y119673667D01*
X62392714Y119768905D01*
X62368904Y119816524D01*
X62345095Y119840334D01*
X62297476Y119864143D01*
X52280333Y118657762D02*
X52280333Y118895858D01*
X52423190Y118610143D02*
X51923190Y118776810D01*
X52423190Y118943477D01*
X52423190Y119372048D02*
X52423190Y119086334D01*
X52423190Y119229191D02*
X51923190Y119229191D01*
X51994619Y119181572D01*
X52042238Y119133953D01*
X52066047Y119086334D01*
X51923190Y119538715D02*
X51923190Y119848239D01*
X52113666Y119681572D01*
X52113666Y119753000D01*
X52137476Y119800620D01*
X52161285Y119824429D01*
X52208904Y119848239D01*
X52327952Y119848239D01*
X52375571Y119824429D01*
X52399380Y119800620D01*
X52423190Y119753000D01*
X52423190Y119610143D01*
X52399380Y119562524D01*
X52375571Y119538715D01*
X87507000Y118745048D02*
X87483190Y118697429D01*
X87483190Y118626000D01*
X87507000Y118554572D01*
X87554619Y118506953D01*
X87602238Y118483143D01*
X87697476Y118459334D01*
X87768904Y118459334D01*
X87864142Y118483143D01*
X87911761Y118506953D01*
X87959380Y118554572D01*
X87983190Y118626000D01*
X87983190Y118673620D01*
X87959380Y118745048D01*
X87935571Y118768858D01*
X87768904Y118768858D01*
X87768904Y118673620D01*
X87983190Y118983143D02*
X87483190Y118983143D01*
X87983190Y119268858D01*
X87483190Y119268858D01*
X87983190Y119506953D02*
X87483190Y119506953D01*
X87483190Y119626000D01*
X87507000Y119697429D01*
X87554619Y119745048D01*
X87602238Y119768858D01*
X87697476Y119792667D01*
X87768904Y119792667D01*
X87864142Y119768858D01*
X87911761Y119745048D01*
X87959380Y119697429D01*
X87983190Y119626000D01*
X87983190Y119506953D01*
X77680333Y119149858D02*
X77680333Y119387953D01*
X77823190Y119102239D02*
X77323190Y119268905D01*
X77823190Y119435572D01*
X77323190Y119554620D02*
X77323190Y119864143D01*
X77513666Y119697477D01*
X77513666Y119768905D01*
X77537476Y119816524D01*
X77561285Y119840334D01*
X77608904Y119864143D01*
X77727952Y119864143D01*
X77775571Y119840334D01*
X77799380Y119816524D01*
X77823190Y119768905D01*
X77823190Y119626048D01*
X77799380Y119578429D01*
X77775571Y119554620D01*
X87665714Y102735143D02*
X87665714Y103116096D01*
X87856190Y102925620D02*
X87475238Y102925620D01*
X87356190Y103592286D02*
X87356190Y103354191D01*
X87594285Y103330381D01*
X87570476Y103354191D01*
X87546666Y103401810D01*
X87546666Y103520858D01*
X87570476Y103568477D01*
X87594285Y103592286D01*
X87641904Y103616096D01*
X87760952Y103616096D01*
X87808571Y103592286D01*
X87832380Y103568477D01*
X87856190Y103520858D01*
X87856190Y103401810D01*
X87832380Y103354191D01*
X87808571Y103330381D01*
X87356190Y103758953D02*
X87856190Y103925620D01*
X87356190Y104092286D01*
X80236190Y103008953D02*
X79736190Y103008953D01*
X79736190Y103128000D01*
X79760000Y103199429D01*
X79807619Y103247048D01*
X79855238Y103270858D01*
X79950476Y103294667D01*
X80021904Y103294667D01*
X80117142Y103270858D01*
X80164761Y103247048D01*
X80212380Y103199429D01*
X80236190Y103128000D01*
X80236190Y103008953D01*
X79736190Y103747048D02*
X79736190Y103508953D01*
X79974285Y103485143D01*
X79950476Y103508953D01*
X79926666Y103556572D01*
X79926666Y103675620D01*
X79950476Y103723239D01*
X79974285Y103747048D01*
X80021904Y103770858D01*
X80140952Y103770858D01*
X80188571Y103747048D01*
X80212380Y103723239D01*
X80236190Y103675620D01*
X80236190Y103556572D01*
X80212380Y103508953D01*
X80188571Y103485143D01*
X77696190Y103008953D02*
X77196190Y103008953D01*
X77196190Y103128000D01*
X77220000Y103199429D01*
X77267619Y103247048D01*
X77315238Y103270858D01*
X77410476Y103294667D01*
X77481904Y103294667D01*
X77577142Y103270858D01*
X77624761Y103247048D01*
X77672380Y103199429D01*
X77696190Y103128000D01*
X77696190Y103008953D01*
X77196190Y103723239D02*
X77196190Y103628000D01*
X77220000Y103580381D01*
X77243809Y103556572D01*
X77315238Y103508953D01*
X77410476Y103485143D01*
X77600952Y103485143D01*
X77648571Y103508953D01*
X77672380Y103532762D01*
X77696190Y103580381D01*
X77696190Y103675620D01*
X77672380Y103723239D01*
X77648571Y103747048D01*
X77600952Y103770858D01*
X77481904Y103770858D01*
X77434285Y103747048D01*
X77410476Y103723239D01*
X77386666Y103675620D01*
X77386666Y103580381D01*
X77410476Y103532762D01*
X77434285Y103508953D01*
X77481904Y103485143D01*
X82776190Y103008953D02*
X82276190Y103008953D01*
X82276190Y103128000D01*
X82300000Y103199429D01*
X82347619Y103247048D01*
X82395238Y103270858D01*
X82490476Y103294667D01*
X82561904Y103294667D01*
X82657142Y103270858D01*
X82704761Y103247048D01*
X82752380Y103199429D01*
X82776190Y103128000D01*
X82776190Y103008953D01*
X82442857Y103723239D02*
X82776190Y103723239D01*
X82252380Y103604191D02*
X82609523Y103485143D01*
X82609523Y103794667D01*
X75156190Y103008953D02*
X74656190Y103008953D01*
X74656190Y103128000D01*
X74680000Y103199429D01*
X74727619Y103247048D01*
X74775238Y103270858D01*
X74870476Y103294667D01*
X74941904Y103294667D01*
X75037142Y103270858D01*
X75084761Y103247048D01*
X75132380Y103199429D01*
X75156190Y103128000D01*
X75156190Y103008953D01*
X74656190Y103461334D02*
X74656190Y103794667D01*
X75156190Y103580381D01*
X72282857Y102925620D02*
X72782857Y102925620D01*
X72306666Y102925620D02*
X72282857Y102973239D01*
X72282857Y103068477D01*
X72306666Y103116096D01*
X72330476Y103139905D01*
X72378095Y103163715D01*
X72520952Y103163715D01*
X72568571Y103139905D01*
X72592380Y103116096D01*
X72616190Y103068477D01*
X72616190Y102973239D01*
X72592380Y102925620D01*
X72616190Y103378000D02*
X72116190Y103378000D01*
X72616190Y103592286D02*
X72354285Y103592286D01*
X72306666Y103568477D01*
X72282857Y103520858D01*
X72282857Y103449429D01*
X72306666Y103401810D01*
X72330476Y103378000D01*
X72616190Y103830381D02*
X72282857Y103830381D01*
X72116190Y103830381D02*
X72140000Y103806572D01*
X72163809Y103830381D01*
X72140000Y103854191D01*
X72116190Y103830381D01*
X72163809Y103830381D01*
X85316190Y103008953D02*
X84816190Y103008953D01*
X84816190Y103128000D01*
X84840000Y103199429D01*
X84887619Y103247048D01*
X84935238Y103270858D01*
X85030476Y103294667D01*
X85101904Y103294667D01*
X85197142Y103270858D01*
X85244761Y103247048D01*
X85292380Y103199429D01*
X85316190Y103128000D01*
X85316190Y103008953D01*
X84816190Y103461334D02*
X84816190Y103770858D01*
X85006666Y103604191D01*
X85006666Y103675620D01*
X85030476Y103723239D01*
X85054285Y103747048D01*
X85101904Y103770858D01*
X85220952Y103770858D01*
X85268571Y103747048D01*
X85292380Y103723239D01*
X85316190Y103675620D01*
X85316190Y103532762D01*
X85292380Y103485143D01*
X85268571Y103461334D01*
X41420000Y102723286D02*
X41420000Y103175667D01*
X41874285Y102842334D02*
X41874285Y103009000D01*
X42136190Y103080429D02*
X42136190Y102842334D01*
X41636190Y102842334D01*
X41636190Y103080429D01*
X41420000Y103175667D02*
X41420000Y103651858D01*
X41636190Y103247096D02*
X42136190Y103580429D01*
X41636190Y103580429D02*
X42136190Y103247096D01*
X41420000Y103651858D02*
X41420000Y103889953D01*
X42136190Y103770905D02*
X41636190Y103770905D01*
X41420000Y103889953D02*
X41420000Y104413762D01*
X42136190Y104009000D02*
X41636190Y104009000D01*
X42136190Y104294715D01*
X41636190Y104294715D01*
X41420000Y104413762D02*
X41420000Y104794715D01*
X41636190Y104461381D02*
X41636190Y104747096D01*
X42136190Y104604239D02*
X41636190Y104604239D01*
X38880000Y102739191D02*
X38880000Y103191572D01*
X39334285Y102858239D02*
X39334285Y103024905D01*
X39596190Y103096334D02*
X39596190Y102858239D01*
X39096190Y102858239D01*
X39096190Y103096334D01*
X38880000Y103191572D02*
X38880000Y103667762D01*
X39096190Y103263000D02*
X39596190Y103596334D01*
X39096190Y103596334D02*
X39596190Y103263000D01*
X38880000Y103667762D02*
X38880000Y104239191D01*
X39096190Y103739191D02*
X39596190Y103858239D01*
X39239047Y103953477D01*
X39596190Y104048715D01*
X39096190Y104167762D01*
X38880000Y104239191D02*
X38880000Y104667762D01*
X39453333Y104334429D02*
X39453333Y104572524D01*
X39596190Y104286810D02*
X39096190Y104453477D01*
X39596190Y104620143D01*
X38880000Y104667762D02*
X38880000Y104905858D01*
X39596190Y104786810D02*
X39096190Y104786810D01*
X38880000Y104905858D02*
X38880000Y105286810D01*
X39096190Y104953477D02*
X39096190Y105239191D01*
X39596190Y105096334D02*
X39096190Y105096334D01*
X36340000Y102711334D02*
X36340000Y103235143D01*
X37056190Y102830381D02*
X36556190Y102830381D01*
X37056190Y103116096D01*
X36556190Y103116096D01*
X36340000Y103235143D02*
X36340000Y103806572D01*
X37056190Y103354191D02*
X36556190Y103354191D01*
X36913333Y103520858D01*
X36556190Y103687524D01*
X37056190Y103687524D01*
X36340000Y103806572D02*
X36340000Y104044667D01*
X37056190Y103925620D02*
X36556190Y103925620D01*
X66820000Y102842286D02*
X66820000Y103413715D01*
X67036190Y102913715D02*
X67536190Y103032762D01*
X67179047Y103128000D01*
X67536190Y103223239D01*
X67036190Y103342286D01*
X66820000Y103413715D02*
X66820000Y103913715D01*
X67536190Y103818477D02*
X67298095Y103651810D01*
X67536190Y103532762D02*
X67036190Y103532762D01*
X67036190Y103723239D01*
X67060000Y103770858D01*
X67083809Y103794667D01*
X67131428Y103818477D01*
X67202857Y103818477D01*
X67250476Y103794667D01*
X67274285Y103770858D01*
X67298095Y103723239D01*
X67298095Y103532762D01*
X54120000Y102762953D02*
X54120000Y103286762D01*
X54836190Y102882000D02*
X54336190Y102882000D01*
X54574285Y102882000D02*
X54574285Y103167715D01*
X54836190Y103167715D02*
X54336190Y103167715D01*
X54120000Y103286762D02*
X54120000Y103715334D01*
X54693333Y103382000D02*
X54693333Y103620096D01*
X54836190Y103334381D02*
X54336190Y103501048D01*
X54836190Y103667715D01*
X54120000Y103715334D02*
X54120000Y104120096D01*
X54836190Y104072477D02*
X54836190Y103834381D01*
X54336190Y103834381D01*
X54120000Y104120096D02*
X54120000Y104501048D01*
X54336190Y104167715D02*
X54336190Y104453429D01*
X54836190Y104310572D02*
X54336190Y104310572D01*
X49756190Y102913715D02*
X49256190Y102913715D01*
X49494285Y103151810D02*
X49494285Y103318477D01*
X49756190Y103389905D02*
X49756190Y103151810D01*
X49256190Y103151810D01*
X49256190Y103389905D01*
X49256190Y103699429D02*
X49256190Y103747048D01*
X49280000Y103794667D01*
X49303809Y103818477D01*
X49351428Y103842286D01*
X49446666Y103866096D01*
X49565714Y103866096D01*
X49660952Y103842286D01*
X49708571Y103818477D01*
X49732380Y103794667D01*
X49756190Y103747048D01*
X49756190Y103699429D01*
X49732380Y103651810D01*
X49708571Y103628000D01*
X49660952Y103604191D01*
X49565714Y103580381D01*
X49446666Y103580381D01*
X49351428Y103604191D01*
X49303809Y103628000D01*
X49280000Y103651810D01*
X49256190Y103699429D01*
X47216190Y103032810D02*
X46978095Y102866143D01*
X47216190Y102747096D02*
X46716190Y102747096D01*
X46716190Y102937572D01*
X46740000Y102985191D01*
X46763809Y103009000D01*
X46811428Y103032810D01*
X46882857Y103032810D01*
X46930476Y103009000D01*
X46954285Y102985191D01*
X46978095Y102937572D01*
X46978095Y102747096D01*
X46954285Y103247096D02*
X46954285Y103413762D01*
X47216190Y103485191D02*
X47216190Y103247096D01*
X46716190Y103247096D01*
X46716190Y103485191D01*
X47192380Y103675667D02*
X47216190Y103747096D01*
X47216190Y103866143D01*
X47192380Y103913762D01*
X47168571Y103937572D01*
X47120952Y103961381D01*
X47073333Y103961381D01*
X47025714Y103937572D01*
X47001904Y103913762D01*
X46978095Y103866143D01*
X46954285Y103770905D01*
X46930476Y103723286D01*
X46906666Y103699477D01*
X46859047Y103675667D01*
X46811428Y103675667D01*
X46763809Y103699477D01*
X46740000Y103723286D01*
X46716190Y103770905D01*
X46716190Y103889953D01*
X46740000Y103961381D01*
X46954285Y104175667D02*
X46954285Y104342334D01*
X47216190Y104413762D02*
X47216190Y104175667D01*
X46716190Y104175667D01*
X46716190Y104413762D01*
X46716190Y104556620D02*
X46716190Y104842334D01*
X47216190Y104699477D02*
X46716190Y104699477D01*
X64280000Y102878000D02*
X64280000Y103378000D01*
X64996190Y103282762D02*
X64758095Y103116096D01*
X64996190Y102997048D02*
X64496190Y102997048D01*
X64496190Y103187524D01*
X64520000Y103235143D01*
X64543809Y103258953D01*
X64591428Y103282762D01*
X64662857Y103282762D01*
X64710476Y103258953D01*
X64734285Y103235143D01*
X64758095Y103187524D01*
X64758095Y102997048D01*
X64280000Y103378000D02*
X64280000Y103878000D01*
X64996190Y103497048D02*
X64496190Y103497048D01*
X64496190Y103616096D01*
X64520000Y103687524D01*
X64567619Y103735143D01*
X64615238Y103758953D01*
X64710476Y103782762D01*
X64781904Y103782762D01*
X64877142Y103758953D01*
X64924761Y103735143D01*
X64972380Y103687524D01*
X64996190Y103616096D01*
X64996190Y103497048D01*
X52296190Y102913715D02*
X51796190Y102913715D01*
X52034285Y103151810D02*
X52034285Y103318477D01*
X52296190Y103389905D02*
X52296190Y103151810D01*
X51796190Y103151810D01*
X51796190Y103389905D01*
X52296190Y103866096D02*
X52296190Y103580381D01*
X52296190Y103723239D02*
X51796190Y103723239D01*
X51867619Y103675620D01*
X51915238Y103628000D01*
X51939047Y103580381D01*
X56900000Y102997048D02*
X56876190Y102949429D01*
X56876190Y102878000D01*
X56900000Y102806572D01*
X56947619Y102758953D01*
X56995238Y102735143D01*
X57090476Y102711334D01*
X57161904Y102711334D01*
X57257142Y102735143D01*
X57304761Y102758953D01*
X57352380Y102806572D01*
X57376190Y102878000D01*
X57376190Y102925620D01*
X57352380Y102997048D01*
X57328571Y103020858D01*
X57161904Y103020858D01*
X57161904Y102925620D01*
X57376190Y103235143D02*
X56876190Y103235143D01*
X57376190Y103520858D01*
X56876190Y103520858D01*
X57376190Y103758953D02*
X56876190Y103758953D01*
X56876190Y103878000D01*
X56900000Y103949429D01*
X56947619Y103997048D01*
X56995238Y104020858D01*
X57090476Y104044667D01*
X57161904Y104044667D01*
X57257142Y104020858D01*
X57304761Y103997048D01*
X57352380Y103949429D01*
X57376190Y103878000D01*
X57376190Y103758953D01*
X61740000Y102766953D02*
X61740000Y103005048D01*
X62456190Y102886000D02*
X61956190Y102886000D01*
X61740000Y103005048D02*
X61740000Y103528858D01*
X61956190Y103219334D02*
X61956190Y103314572D01*
X61980000Y103362191D01*
X62027619Y103409810D01*
X62122857Y103433620D01*
X62289523Y103433620D01*
X62384761Y103409810D01*
X62432380Y103362191D01*
X62456190Y103314572D01*
X62456190Y103219334D01*
X62432380Y103171715D01*
X62384761Y103124096D01*
X62289523Y103100286D01*
X62122857Y103100286D01*
X62027619Y103124096D01*
X61980000Y103171715D01*
X61956190Y103219334D01*
X61740000Y103528858D02*
X61740000Y104028858D01*
X62456190Y103933620D02*
X62218095Y103766953D01*
X62456190Y103647905D02*
X61956190Y103647905D01*
X61956190Y103838381D01*
X61980000Y103886000D01*
X62003809Y103909810D01*
X62051428Y103933620D01*
X62122857Y103933620D01*
X62170476Y103909810D01*
X62194285Y103886000D01*
X62218095Y103838381D01*
X62218095Y103647905D01*
X61740000Y104028858D02*
X61740000Y104481239D01*
X62194285Y104147905D02*
X62194285Y104314572D01*
X62456190Y104386000D02*
X62456190Y104147905D01*
X61956190Y104147905D01*
X61956190Y104386000D01*
X61740000Y104481239D02*
X61740000Y105005048D01*
X62503809Y104933620D02*
X62480000Y104886000D01*
X62432380Y104838381D01*
X62360952Y104766953D01*
X62337142Y104719334D01*
X62337142Y104671715D01*
X62456190Y104695524D02*
X62432380Y104647905D01*
X62384761Y104600286D01*
X62289523Y104576477D01*
X62122857Y104576477D01*
X62027619Y104600286D01*
X61980000Y104647905D01*
X61956190Y104695524D01*
X61956190Y104790762D01*
X61980000Y104838381D01*
X62027619Y104886000D01*
X62122857Y104909810D01*
X62289523Y104909810D01*
X62384761Y104886000D01*
X62432380Y104838381D01*
X62456190Y104790762D01*
X62456190Y104695524D01*
X59200000Y102735191D02*
X59200000Y103306620D01*
X59916190Y102854239D02*
X59416190Y102854239D01*
X59773333Y103020905D01*
X59416190Y103187572D01*
X59916190Y103187572D01*
X59200000Y103306620D02*
X59200000Y103806620D01*
X59916190Y103711381D02*
X59678095Y103544715D01*
X59916190Y103425667D02*
X59416190Y103425667D01*
X59416190Y103616143D01*
X59440000Y103663762D01*
X59463809Y103687572D01*
X59511428Y103711381D01*
X59582857Y103711381D01*
X59630476Y103687572D01*
X59654285Y103663762D01*
X59678095Y103616143D01*
X59678095Y103425667D01*
X59200000Y103806620D02*
X59200000Y104259000D01*
X59654285Y103925667D02*
X59654285Y104092334D01*
X59916190Y104163762D02*
X59916190Y103925667D01*
X59416190Y103925667D01*
X59416190Y104163762D01*
X59200000Y104259000D02*
X59200000Y104782810D01*
X59963809Y104711381D02*
X59940000Y104663762D01*
X59892380Y104616143D01*
X59820952Y104544715D01*
X59797142Y104497096D01*
X59797142Y104449477D01*
X59916190Y104473286D02*
X59892380Y104425667D01*
X59844761Y104378048D01*
X59749523Y104354239D01*
X59582857Y104354239D01*
X59487619Y104378048D01*
X59440000Y104425667D01*
X59416190Y104473286D01*
X59416190Y104568524D01*
X59440000Y104616143D01*
X59487619Y104663762D01*
X59582857Y104687572D01*
X59749523Y104687572D01*
X59844761Y104663762D01*
X59892380Y104616143D01*
X59916190Y104568524D01*
X59916190Y104473286D01*
X69360000Y102854191D02*
X69360000Y103425620D01*
X70076190Y102973239D02*
X69576190Y102973239D01*
X69933333Y103139905D01*
X69576190Y103306572D01*
X70076190Y103306572D01*
X69360000Y103425620D02*
X69360000Y103901810D01*
X70076190Y103806572D02*
X70076190Y103520858D01*
X70076190Y103663715D02*
X69576190Y103663715D01*
X69647619Y103616096D01*
X69695238Y103568477D01*
X69719047Y103520858D01*
X34040000Y102997048D02*
X34016190Y102949429D01*
X34016190Y102878000D01*
X34040000Y102806572D01*
X34087619Y102758953D01*
X34135238Y102735143D01*
X34230476Y102711334D01*
X34301904Y102711334D01*
X34397142Y102735143D01*
X34444761Y102758953D01*
X34492380Y102806572D01*
X34516190Y102878000D01*
X34516190Y102925620D01*
X34492380Y102997048D01*
X34468571Y103020858D01*
X34301904Y103020858D01*
X34301904Y102925620D01*
X34516190Y103235143D02*
X34016190Y103235143D01*
X34516190Y103520858D01*
X34016190Y103520858D01*
X34516190Y103758953D02*
X34016190Y103758953D01*
X34016190Y103878000D01*
X34040000Y103949429D01*
X34087619Y103997048D01*
X34135238Y104020858D01*
X34230476Y104044667D01*
X34301904Y104044667D01*
X34397142Y104020858D01*
X34444761Y103997048D01*
X34492380Y103949429D01*
X34516190Y103878000D01*
X34516190Y103758953D01*
X43960000Y102659762D02*
X43960000Y103112143D01*
X44414285Y102778810D02*
X44414285Y102945477D01*
X44676190Y103016905D02*
X44676190Y102778810D01*
X44176190Y102778810D01*
X44176190Y103016905D01*
X43960000Y103112143D02*
X43960000Y103588334D01*
X44176190Y103183572D02*
X44676190Y103516905D01*
X44176190Y103516905D02*
X44676190Y103183572D01*
X43960000Y103588334D02*
X43960000Y103826429D01*
X44676190Y103707381D02*
X44176190Y103707381D01*
X43960000Y103826429D02*
X43960000Y104350239D01*
X44176190Y104040715D02*
X44176190Y104135953D01*
X44200000Y104183572D01*
X44247619Y104231191D01*
X44342857Y104255000D01*
X44509523Y104255000D01*
X44604761Y104231191D01*
X44652380Y104183572D01*
X44676190Y104135953D01*
X44676190Y104040715D01*
X44652380Y103993096D01*
X44604761Y103945477D01*
X44509523Y103921667D01*
X44342857Y103921667D01*
X44247619Y103945477D01*
X44200000Y103993096D01*
X44176190Y104040715D01*
X87665714Y111371143D02*
X87665714Y111752096D01*
X87856190Y111561620D02*
X87475238Y111561620D01*
X87356190Y112228286D02*
X87356190Y111990191D01*
X87594285Y111966381D01*
X87570476Y111990191D01*
X87546666Y112037810D01*
X87546666Y112156858D01*
X87570476Y112204477D01*
X87594285Y112228286D01*
X87641904Y112252096D01*
X87760952Y112252096D01*
X87808571Y112228286D01*
X87832380Y112204477D01*
X87856190Y112156858D01*
X87856190Y112037810D01*
X87832380Y111990191D01*
X87808571Y111966381D01*
X87356190Y112394953D02*
X87856190Y112561620D01*
X87356190Y112728286D01*
X85316190Y111644953D02*
X84816190Y111644953D01*
X84816190Y111764000D01*
X84840000Y111835429D01*
X84887619Y111883048D01*
X84935238Y111906858D01*
X85030476Y111930667D01*
X85101904Y111930667D01*
X85197142Y111906858D01*
X85244761Y111883048D01*
X85292380Y111835429D01*
X85316190Y111764000D01*
X85316190Y111644953D01*
X84863809Y112121143D02*
X84840000Y112144953D01*
X84816190Y112192572D01*
X84816190Y112311620D01*
X84840000Y112359239D01*
X84863809Y112383048D01*
X84911428Y112406858D01*
X84959047Y112406858D01*
X85030476Y112383048D01*
X85316190Y112097334D01*
X85316190Y112406858D01*
X80236190Y111644953D02*
X79736190Y111644953D01*
X79736190Y111764000D01*
X79760000Y111835429D01*
X79807619Y111883048D01*
X79855238Y111906858D01*
X79950476Y111930667D01*
X80021904Y111930667D01*
X80117142Y111906858D01*
X80164761Y111883048D01*
X80212380Y111835429D01*
X80236190Y111764000D01*
X80236190Y111644953D01*
X79736190Y112240191D02*
X79736190Y112287810D01*
X79760000Y112335429D01*
X79783809Y112359239D01*
X79831428Y112383048D01*
X79926666Y112406858D01*
X80045714Y112406858D01*
X80140952Y112383048D01*
X80188571Y112359239D01*
X80212380Y112335429D01*
X80236190Y112287810D01*
X80236190Y112240191D01*
X80212380Y112192572D01*
X80188571Y112168762D01*
X80140952Y112144953D01*
X80045714Y112121143D01*
X79926666Y112121143D01*
X79831428Y112144953D01*
X79783809Y112168762D01*
X79760000Y112192572D01*
X79736190Y112240191D01*
X77220000Y111633048D02*
X77196190Y111585429D01*
X77196190Y111514000D01*
X77220000Y111442572D01*
X77267619Y111394953D01*
X77315238Y111371143D01*
X77410476Y111347334D01*
X77481904Y111347334D01*
X77577142Y111371143D01*
X77624761Y111394953D01*
X77672380Y111442572D01*
X77696190Y111514000D01*
X77696190Y111561620D01*
X77672380Y111633048D01*
X77648571Y111656858D01*
X77481904Y111656858D01*
X77481904Y111561620D01*
X77696190Y111871143D02*
X77196190Y111871143D01*
X77696190Y112156858D01*
X77196190Y112156858D01*
X77696190Y112394953D02*
X77196190Y112394953D01*
X77196190Y112514000D01*
X77220000Y112585429D01*
X77267619Y112633048D01*
X77315238Y112656858D01*
X77410476Y112680667D01*
X77481904Y112680667D01*
X77577142Y112656858D01*
X77624761Y112633048D01*
X77672380Y112585429D01*
X77696190Y112514000D01*
X77696190Y112394953D01*
X75013333Y111418762D02*
X75013333Y111656858D01*
X75156190Y111371143D02*
X74656190Y111537810D01*
X75156190Y111704477D01*
X75156190Y112133048D02*
X75156190Y111847334D01*
X75156190Y111990191D02*
X74656190Y111990191D01*
X74727619Y111942572D01*
X74775238Y111894953D01*
X74799047Y111847334D01*
X74656190Y112585429D02*
X74656190Y112347334D01*
X74894285Y112323524D01*
X74870476Y112347334D01*
X74846666Y112394953D01*
X74846666Y112514000D01*
X74870476Y112561620D01*
X74894285Y112585429D01*
X74941904Y112609239D01*
X75060952Y112609239D01*
X75108571Y112585429D01*
X75132380Y112561620D01*
X75156190Y112514000D01*
X75156190Y112394953D01*
X75132380Y112347334D01*
X75108571Y112323524D01*
X72473333Y111418762D02*
X72473333Y111656858D01*
X72616190Y111371143D02*
X72116190Y111537810D01*
X72616190Y111704477D01*
X72616190Y112133048D02*
X72616190Y111847334D01*
X72616190Y111990191D02*
X72116190Y111990191D01*
X72187619Y111942572D01*
X72235238Y111894953D01*
X72259047Y111847334D01*
X72282857Y112561620D02*
X72616190Y112561620D01*
X72092380Y112442572D02*
X72449523Y112323524D01*
X72449523Y112633048D01*
X82776190Y111644953D02*
X82276190Y111644953D01*
X82276190Y111764000D01*
X82300000Y111835429D01*
X82347619Y111883048D01*
X82395238Y111906858D01*
X82490476Y111930667D01*
X82561904Y111930667D01*
X82657142Y111906858D01*
X82704761Y111883048D01*
X82752380Y111835429D01*
X82776190Y111764000D01*
X82776190Y111644953D01*
X82776190Y112406858D02*
X82776190Y112121143D01*
X82776190Y112264000D02*
X82276190Y112264000D01*
X82347619Y112216381D01*
X82395238Y112168762D01*
X82419047Y112121143D01*
X67393333Y111418762D02*
X67393333Y111656858D01*
X67536190Y111371143D02*
X67036190Y111537810D01*
X67536190Y111704477D01*
X67536190Y112133048D02*
X67536190Y111847334D01*
X67536190Y111990191D02*
X67036190Y111990191D01*
X67107619Y111942572D01*
X67155238Y111894953D01*
X67179047Y111847334D01*
X67083809Y112323524D02*
X67060000Y112347334D01*
X67036190Y112394953D01*
X67036190Y112514000D01*
X67060000Y112561620D01*
X67083809Y112585429D01*
X67131428Y112609239D01*
X67179047Y112609239D01*
X67250476Y112585429D01*
X67536190Y112299715D01*
X67536190Y112609239D01*
X64853333Y111418762D02*
X64853333Y111656858D01*
X64996190Y111371143D02*
X64496190Y111537810D01*
X64996190Y111704477D01*
X64996190Y112133048D02*
X64996190Y111847334D01*
X64996190Y111990191D02*
X64496190Y111990191D01*
X64567619Y111942572D01*
X64615238Y111894953D01*
X64639047Y111847334D01*
X64996190Y112609239D02*
X64996190Y112323524D01*
X64996190Y112466381D02*
X64496190Y112466381D01*
X64567619Y112418762D01*
X64615238Y112371143D01*
X64639047Y112323524D01*
X62313333Y111418762D02*
X62313333Y111656858D01*
X62456190Y111371143D02*
X61956190Y111537810D01*
X62456190Y111704477D01*
X62456190Y112133048D02*
X62456190Y111847334D01*
X62456190Y111990191D02*
X61956190Y111990191D01*
X62027619Y111942572D01*
X62075238Y111894953D01*
X62099047Y111847334D01*
X61956190Y112442572D02*
X61956190Y112490191D01*
X61980000Y112537810D01*
X62003809Y112561620D01*
X62051428Y112585429D01*
X62146666Y112609239D01*
X62265714Y112609239D01*
X62360952Y112585429D01*
X62408571Y112561620D01*
X62432380Y112537810D01*
X62456190Y112490191D01*
X62456190Y112442572D01*
X62432380Y112394953D01*
X62408571Y112371143D01*
X62360952Y112347334D01*
X62265714Y112323524D01*
X62146666Y112323524D01*
X62051428Y112347334D01*
X62003809Y112371143D01*
X61980000Y112394953D01*
X61956190Y112442572D01*
X59773333Y111656858D02*
X59773333Y111894953D01*
X59916190Y111609239D02*
X59416190Y111775905D01*
X59916190Y111942572D01*
X59916190Y112133048D02*
X59916190Y112228286D01*
X59892380Y112275905D01*
X59868571Y112299715D01*
X59797142Y112347334D01*
X59701904Y112371143D01*
X59511428Y112371143D01*
X59463809Y112347334D01*
X59440000Y112323524D01*
X59416190Y112275905D01*
X59416190Y112180667D01*
X59440000Y112133048D01*
X59463809Y112109239D01*
X59511428Y112085429D01*
X59630476Y112085429D01*
X59678095Y112109239D01*
X59701904Y112133048D01*
X59725714Y112180667D01*
X59725714Y112275905D01*
X59701904Y112323524D01*
X59678095Y112347334D01*
X59630476Y112371143D01*
X69933333Y111418762D02*
X69933333Y111656858D01*
X70076190Y111371143D02*
X69576190Y111537810D01*
X70076190Y111704477D01*
X70076190Y112133048D02*
X70076190Y111847334D01*
X70076190Y111990191D02*
X69576190Y111990191D01*
X69647619Y111942572D01*
X69695238Y111894953D01*
X69719047Y111847334D01*
X69576190Y112299715D02*
X69576190Y112609239D01*
X69766666Y112442572D01*
X69766666Y112514000D01*
X69790476Y112561620D01*
X69814285Y112585429D01*
X69861904Y112609239D01*
X69980952Y112609239D01*
X70028571Y112585429D01*
X70052380Y112561620D01*
X70076190Y112514000D01*
X70076190Y112371143D01*
X70052380Y112323524D01*
X70028571Y112299715D01*
X54693333Y111656858D02*
X54693333Y111894953D01*
X54836190Y111609239D02*
X54336190Y111775905D01*
X54836190Y111942572D01*
X54336190Y112061620D02*
X54336190Y112394953D01*
X54836190Y112180667D01*
X52153333Y111656858D02*
X52153333Y111894953D01*
X52296190Y111609239D02*
X51796190Y111775905D01*
X52296190Y111942572D01*
X51796190Y112323524D02*
X51796190Y112228286D01*
X51820000Y112180667D01*
X51843809Y112156858D01*
X51915238Y112109239D01*
X52010476Y112085429D01*
X52200952Y112085429D01*
X52248571Y112109239D01*
X52272380Y112133048D01*
X52296190Y112180667D01*
X52296190Y112275905D01*
X52272380Y112323524D01*
X52248571Y112347334D01*
X52200952Y112371143D01*
X52081904Y112371143D01*
X52034285Y112347334D01*
X52010476Y112323524D01*
X51986666Y112275905D01*
X51986666Y112180667D01*
X52010476Y112133048D01*
X52034285Y112109239D01*
X52081904Y112085429D01*
X49613333Y111656858D02*
X49613333Y111894953D01*
X49756190Y111609239D02*
X49256190Y111775905D01*
X49756190Y111942572D01*
X49256190Y112347334D02*
X49256190Y112109239D01*
X49494285Y112085429D01*
X49470476Y112109239D01*
X49446666Y112156858D01*
X49446666Y112275905D01*
X49470476Y112323524D01*
X49494285Y112347334D01*
X49541904Y112371143D01*
X49660952Y112371143D01*
X49708571Y112347334D01*
X49732380Y112323524D01*
X49756190Y112275905D01*
X49756190Y112156858D01*
X49732380Y112109239D01*
X49708571Y112085429D01*
X47073333Y111656858D02*
X47073333Y111894953D01*
X47216190Y111609239D02*
X46716190Y111775905D01*
X47216190Y111942572D01*
X46882857Y112323524D02*
X47216190Y112323524D01*
X46692380Y112204477D02*
X47049523Y112085429D01*
X47049523Y112394953D01*
X57233333Y111656858D02*
X57233333Y111894953D01*
X57376190Y111609239D02*
X56876190Y111775905D01*
X57376190Y111942572D01*
X57090476Y112180667D02*
X57066666Y112133048D01*
X57042857Y112109239D01*
X56995238Y112085429D01*
X56971428Y112085429D01*
X56923809Y112109239D01*
X56900000Y112133048D01*
X56876190Y112180667D01*
X56876190Y112275905D01*
X56900000Y112323524D01*
X56923809Y112347334D01*
X56971428Y112371143D01*
X56995238Y112371143D01*
X57042857Y112347334D01*
X57066666Y112323524D01*
X57090476Y112275905D01*
X57090476Y112180667D01*
X57114285Y112133048D01*
X57138095Y112109239D01*
X57185714Y112085429D01*
X57280952Y112085429D01*
X57328571Y112109239D01*
X57352380Y112133048D01*
X57376190Y112180667D01*
X57376190Y112275905D01*
X57352380Y112323524D01*
X57328571Y112347334D01*
X57280952Y112371143D01*
X57185714Y112371143D01*
X57138095Y112347334D01*
X57114285Y112323524D01*
X57090476Y112275905D01*
X44533333Y111656858D02*
X44533333Y111894953D01*
X44676190Y111609239D02*
X44176190Y111775905D01*
X44676190Y111942572D01*
X44176190Y112061620D02*
X44176190Y112371143D01*
X44366666Y112204477D01*
X44366666Y112275905D01*
X44390476Y112323524D01*
X44414285Y112347334D01*
X44461904Y112371143D01*
X44580952Y112371143D01*
X44628571Y112347334D01*
X44652380Y112323524D01*
X44676190Y112275905D01*
X44676190Y112133048D01*
X44652380Y112085429D01*
X44628571Y112061620D01*
X41993333Y111656858D02*
X41993333Y111894953D01*
X42136190Y111609239D02*
X41636190Y111775905D01*
X42136190Y111942572D01*
X41683809Y112085429D02*
X41660000Y112109239D01*
X41636190Y112156858D01*
X41636190Y112275905D01*
X41660000Y112323524D01*
X41683809Y112347334D01*
X41731428Y112371143D01*
X41779047Y112371143D01*
X41850476Y112347334D01*
X42136190Y112061620D01*
X42136190Y112371143D01*
X39453333Y111656858D02*
X39453333Y111894953D01*
X39596190Y111609239D02*
X39096190Y111775905D01*
X39596190Y111942572D01*
X39596190Y112371143D02*
X39596190Y112085429D01*
X39596190Y112228286D02*
X39096190Y112228286D01*
X39167619Y112180667D01*
X39215238Y112133048D01*
X39239047Y112085429D01*
X36913333Y111656858D02*
X36913333Y111894953D01*
X37056190Y111609239D02*
X36556190Y111775905D01*
X37056190Y111942572D01*
X36556190Y112204477D02*
X36556190Y112252096D01*
X36580000Y112299715D01*
X36603809Y112323524D01*
X36651428Y112347334D01*
X36746666Y112371143D01*
X36865714Y112371143D01*
X36960952Y112347334D01*
X37008571Y112323524D01*
X37032380Y112299715D01*
X37056190Y112252096D01*
X37056190Y112204477D01*
X37032380Y112156858D01*
X37008571Y112133048D01*
X36960952Y112109239D01*
X36865714Y112085429D01*
X36746666Y112085429D01*
X36651428Y112109239D01*
X36603809Y112133048D01*
X36580000Y112156858D01*
X36556190Y112204477D01*
X34040000Y111633048D02*
X34016190Y111585429D01*
X34016190Y111514000D01*
X34040000Y111442572D01*
X34087619Y111394953D01*
X34135238Y111371143D01*
X34230476Y111347334D01*
X34301904Y111347334D01*
X34397142Y111371143D01*
X34444761Y111394953D01*
X34492380Y111442572D01*
X34516190Y111514000D01*
X34516190Y111561620D01*
X34492380Y111633048D01*
X34468571Y111656858D01*
X34301904Y111656858D01*
X34301904Y111561620D01*
X34516190Y111871143D02*
X34016190Y111871143D01*
X34516190Y112156858D01*
X34016190Y112156858D01*
X34516190Y112394953D02*
X34016190Y112394953D01*
X34016190Y112514000D01*
X34040000Y112585429D01*
X34087619Y112633048D01*
X34135238Y112656858D01*
X34230476Y112680667D01*
X34301904Y112680667D01*
X34397142Y112656858D01*
X34444761Y112633048D01*
X34492380Y112585429D01*
X34516190Y112514000D01*
X34516190Y112394953D01*
D11*
X48521952Y78795620D02*
X47950523Y78795620D01*
X48236238Y78795620D02*
X48236238Y79795620D01*
X48141000Y79652762D01*
X48045761Y79557524D01*
X47950523Y79509905D01*
X48950523Y78795620D02*
X48950523Y79795620D01*
X49045761Y79176572D02*
X49331476Y78795620D01*
X49331476Y79462286D02*
X48950523Y79081334D01*
X21420619Y66789048D02*
X21420619Y67360477D01*
X21420619Y67074762D02*
X22420619Y67074762D01*
X22277761Y67170000D01*
X22182523Y67265239D01*
X22134904Y67360477D01*
X21420619Y66360477D02*
X22420619Y66360477D01*
X21801571Y66265239D02*
X21420619Y65979524D01*
X22087285Y65979524D02*
X21706333Y66360477D01*
X35380952Y7333334D02*
X35857142Y7333334D01*
X35285714Y7047620D02*
X35619047Y8047620D01*
X35952380Y7047620D01*
X36285714Y7047620D02*
X36285714Y7714286D01*
X36285714Y7523810D02*
X36333333Y7619048D01*
X36380952Y7666667D01*
X36476190Y7714286D01*
X36571428Y7714286D01*
X37333333Y7047620D02*
X37333333Y8047620D01*
X37333333Y7095239D02*
X37238095Y7047620D01*
X37047619Y7047620D01*
X36952380Y7095239D01*
X36904761Y7142858D01*
X36857142Y7238096D01*
X36857142Y7523810D01*
X36904761Y7619048D01*
X36952380Y7666667D01*
X37047619Y7714286D01*
X37238095Y7714286D01*
X37333333Y7666667D01*
X38238095Y7714286D02*
X38238095Y7047620D01*
X37809523Y7714286D02*
X37809523Y7190477D01*
X37857142Y7095239D01*
X37952380Y7047620D01*
X38095238Y7047620D01*
X38190476Y7095239D01*
X38238095Y7142858D01*
X38714285Y7047620D02*
X38714285Y7714286D01*
X38714285Y8047620D02*
X38666666Y8000000D01*
X38714285Y7952381D01*
X38761904Y8000000D01*
X38714285Y8047620D01*
X38714285Y7952381D01*
X39190476Y7714286D02*
X39190476Y7047620D01*
X39190476Y7619048D02*
X39238095Y7666667D01*
X39333333Y7714286D01*
X39476190Y7714286D01*
X39571428Y7666667D01*
X39619047Y7571429D01*
X39619047Y7047620D01*
X40238095Y7047620D02*
X40142857Y7095239D01*
X40095238Y7142858D01*
X40047619Y7238096D01*
X40047619Y7523810D01*
X40095238Y7619048D01*
X40142857Y7666667D01*
X40238095Y7714286D01*
X40380952Y7714286D01*
X40476190Y7666667D01*
X40523809Y7619048D01*
X40571428Y7523810D01*
X40571428Y7238096D01*
X40523809Y7142858D01*
X40476190Y7095239D01*
X40380952Y7047620D01*
X40238095Y7047620D01*
X41761904Y7047620D02*
X41761904Y8047620D01*
X42142857Y8047620D01*
X42238095Y8000000D01*
X42285714Y7952381D01*
X42333333Y7857143D01*
X42333333Y7714286D01*
X42285714Y7619048D01*
X42238095Y7571429D01*
X42142857Y7523810D01*
X41761904Y7523810D01*
X42761904Y7047620D02*
X42761904Y7714286D01*
X42761904Y7523810D02*
X42809523Y7619048D01*
X42857142Y7666667D01*
X42952380Y7714286D01*
X43047619Y7714286D01*
X43523809Y7047620D02*
X43428571Y7095239D01*
X43380952Y7142858D01*
X43333333Y7238096D01*
X43333333Y7523810D01*
X43380952Y7619048D01*
X43428571Y7666667D01*
X43523809Y7714286D01*
X43666666Y7714286D01*
X43761904Y7666667D01*
X43809523Y7619048D01*
X43857142Y7523810D01*
X43857142Y7238096D01*
X43809523Y7142858D01*
X43761904Y7095239D01*
X43666666Y7047620D01*
X43523809Y7047620D01*
X45047619Y7047620D02*
X45047619Y8047620D01*
X45380952Y7333334D01*
X45714285Y8047620D01*
X45714285Y7047620D01*
X46190476Y7047620D02*
X46190476Y7714286D01*
X46190476Y8047620D02*
X46142857Y8000000D01*
X46190476Y7952381D01*
X46238095Y8000000D01*
X46190476Y8047620D01*
X46190476Y7952381D01*
X46666666Y7714286D02*
X46666666Y7047620D01*
X46666666Y7619048D02*
X46714285Y7666667D01*
X46809523Y7714286D01*
X46952380Y7714286D01*
X47047619Y7666667D01*
X47095238Y7571429D01*
X47095238Y7047620D01*
X47571428Y7047620D02*
X47571428Y7714286D01*
X47571428Y8047620D02*
X47523809Y8000000D01*
X47571428Y7952381D01*
X47619047Y8000000D01*
X47571428Y8047620D01*
X47571428Y7952381D01*
X95309523Y52452381D02*
X95357142Y52500000D01*
X95452380Y52547620D01*
X95690476Y52547620D01*
X95785714Y52500000D01*
X95833333Y52452381D01*
X95880952Y52357143D01*
X95880952Y52261905D01*
X95833333Y52119048D01*
X95261904Y51547620D01*
X95880952Y51547620D01*
X96214285Y52547620D02*
X96880952Y52547620D01*
X96452380Y51547620D01*
X97738095Y52547620D02*
X97261904Y52547620D01*
X97214285Y52071429D01*
X97261904Y52119048D01*
X97357142Y52166667D01*
X97595238Y52166667D01*
X97690476Y52119048D01*
X97738095Y52071429D01*
X97785714Y51976191D01*
X97785714Y51738096D01*
X97738095Y51642858D01*
X97690476Y51595239D01*
X97595238Y51547620D01*
X97357142Y51547620D01*
X97261904Y51595239D01*
X97214285Y51642858D01*
X98738095Y51547620D02*
X98166666Y51547620D01*
X98452380Y51547620D02*
X98452380Y52547620D01*
X98357142Y52404762D01*
X98261904Y52309524D01*
X98166666Y52261905D01*
X99119047Y52452381D02*
X99166666Y52500000D01*
X99261904Y52547620D01*
X99500000Y52547620D01*
X99595238Y52500000D01*
X99642857Y52452381D01*
X99690476Y52357143D01*
X99690476Y52261905D01*
X99642857Y52119048D01*
X99071428Y51547620D01*
X99690476Y51547620D01*
X34476190Y52119048D02*
X34380952Y52166667D01*
X34333333Y52214286D01*
X34285714Y52309524D01*
X34285714Y52357143D01*
X34333333Y52452381D01*
X34380952Y52500000D01*
X34476190Y52547620D01*
X34666666Y52547620D01*
X34761904Y52500000D01*
X34809523Y52452381D01*
X34857142Y52357143D01*
X34857142Y52309524D01*
X34809523Y52214286D01*
X34761904Y52166667D01*
X34666666Y52119048D01*
X34476190Y52119048D01*
X34380952Y52071429D01*
X34333333Y52023810D01*
X34285714Y51928572D01*
X34285714Y51738096D01*
X34333333Y51642858D01*
X34380952Y51595239D01*
X34476190Y51547620D01*
X34666666Y51547620D01*
X34761904Y51595239D01*
X34809523Y51642858D01*
X34857142Y51738096D01*
X34857142Y51928572D01*
X34809523Y52023810D01*
X34761904Y52071429D01*
X34666666Y52119048D01*
X35238095Y52452381D02*
X35285714Y52500000D01*
X35380952Y52547620D01*
X35619047Y52547620D01*
X35714285Y52500000D01*
X35761904Y52452381D01*
X35809523Y52357143D01*
X35809523Y52261905D01*
X35761904Y52119048D01*
X35190476Y51547620D01*
X35809523Y51547620D01*
X36714285Y52547620D02*
X36238095Y52547620D01*
X36190476Y52071429D01*
X36238095Y52119048D01*
X36333333Y52166667D01*
X36571428Y52166667D01*
X36666666Y52119048D01*
X36714285Y52071429D01*
X36761904Y51976191D01*
X36761904Y51738096D01*
X36714285Y51642858D01*
X36666666Y51595239D01*
X36571428Y51547620D01*
X36333333Y51547620D01*
X36238095Y51595239D01*
X36190476Y51642858D01*
X37666666Y52547620D02*
X37190476Y52547620D01*
X37142857Y52071429D01*
X37190476Y52119048D01*
X37285714Y52166667D01*
X37523809Y52166667D01*
X37619047Y52119048D01*
X37666666Y52071429D01*
X37714285Y51976191D01*
X37714285Y51738096D01*
X37666666Y51642858D01*
X37619047Y51595239D01*
X37523809Y51547620D01*
X37285714Y51547620D01*
X37190476Y51595239D01*
X37142857Y51642858D01*
X111404761Y68197620D02*
X110928571Y68197620D01*
X110928571Y69197620D01*
X111690476Y68245239D02*
X111833333Y68197620D01*
X112071428Y68197620D01*
X112166666Y68245239D01*
X112214285Y68292858D01*
X112261904Y68388096D01*
X112261904Y68483334D01*
X112214285Y68578572D01*
X112166666Y68626191D01*
X112071428Y68673810D01*
X111880952Y68721429D01*
X111785714Y68769048D01*
X111738095Y68816667D01*
X111690476Y68911905D01*
X111690476Y69007143D01*
X111738095Y69102381D01*
X111785714Y69150000D01*
X111880952Y69197620D01*
X112119047Y69197620D01*
X112261904Y69150000D01*
X113166666Y69197620D02*
X112690476Y69197620D01*
X112642857Y68721429D01*
X112690476Y68769048D01*
X112785714Y68816667D01*
X113023809Y68816667D01*
X113119047Y68769048D01*
X113166666Y68721429D01*
X113214285Y68626191D01*
X113214285Y68388096D01*
X113166666Y68292858D01*
X113119047Y68245239D01*
X113023809Y68197620D01*
X112785714Y68197620D01*
X112690476Y68245239D01*
X112642857Y68292858D01*
X114071428Y68864286D02*
X114071428Y68197620D01*
X113833333Y69245239D02*
X113595238Y68530953D01*
X114214285Y68530953D01*
X115119047Y68197620D02*
X114547619Y68197620D01*
X114833333Y68197620D02*
X114833333Y69197620D01*
X114738095Y69054762D01*
X114642857Y68959524D01*
X114547619Y68911905D01*
X76404761Y68197620D02*
X75928571Y68197620D01*
X75928571Y69197620D01*
X76690476Y68245239D02*
X76833333Y68197620D01*
X77071428Y68197620D01*
X77166666Y68245239D01*
X77214285Y68292858D01*
X77261904Y68388096D01*
X77261904Y68483334D01*
X77214285Y68578572D01*
X77166666Y68626191D01*
X77071428Y68673810D01*
X76880952Y68721429D01*
X76785714Y68769048D01*
X76738095Y68816667D01*
X76690476Y68911905D01*
X76690476Y69007143D01*
X76738095Y69102381D01*
X76785714Y69150000D01*
X76880952Y69197620D01*
X77119047Y69197620D01*
X77261904Y69150000D01*
X77642857Y69102381D02*
X77690476Y69150000D01*
X77785714Y69197620D01*
X78023809Y69197620D01*
X78119047Y69150000D01*
X78166666Y69102381D01*
X78214285Y69007143D01*
X78214285Y68911905D01*
X78166666Y68769048D01*
X77595238Y68197620D01*
X78214285Y68197620D01*
X78547619Y69197620D02*
X79214285Y69197620D01*
X78785714Y68197620D01*
X79500000Y69197620D02*
X80119047Y69197620D01*
X79785714Y68816667D01*
X79928571Y68816667D01*
X80023809Y68769048D01*
X80071428Y68721429D01*
X80119047Y68626191D01*
X80119047Y68388096D01*
X80071428Y68292858D01*
X80023809Y68245239D01*
X79928571Y68197620D01*
X79642857Y68197620D01*
X79547619Y68245239D01*
X79500000Y68292858D01*
X47904761Y67697620D02*
X47428571Y67697620D01*
X47428571Y68697620D01*
X48190476Y67745239D02*
X48333333Y67697620D01*
X48571428Y67697620D01*
X48666666Y67745239D01*
X48714285Y67792858D01*
X48761904Y67888096D01*
X48761904Y67983334D01*
X48714285Y68078572D01*
X48666666Y68126191D01*
X48571428Y68173810D01*
X48380952Y68221429D01*
X48285714Y68269048D01*
X48238095Y68316667D01*
X48190476Y68411905D01*
X48190476Y68507143D01*
X48238095Y68602381D01*
X48285714Y68650000D01*
X48380952Y68697620D01*
X48619047Y68697620D01*
X48761904Y68650000D01*
X49142857Y68602381D02*
X49190476Y68650000D01*
X49285714Y68697620D01*
X49523809Y68697620D01*
X49619047Y68650000D01*
X49666666Y68602381D01*
X49714285Y68507143D01*
X49714285Y68411905D01*
X49666666Y68269048D01*
X49095238Y67697620D01*
X49714285Y67697620D01*
X50047619Y68697620D02*
X50714285Y68697620D01*
X50285714Y67697620D01*
X51000000Y68697620D02*
X51619047Y68697620D01*
X51285714Y68316667D01*
X51428571Y68316667D01*
X51523809Y68269048D01*
X51571428Y68221429D01*
X51619047Y68126191D01*
X51619047Y67888096D01*
X51571428Y67792858D01*
X51523809Y67745239D01*
X51428571Y67697620D01*
X51142857Y67697620D01*
X51047619Y67745239D01*
X51000000Y67792858D01*
X91904761Y80847620D02*
X91428571Y80847620D01*
X91428571Y81847620D01*
X92190476Y80895239D02*
X92333333Y80847620D01*
X92571428Y80847620D01*
X92666666Y80895239D01*
X92714285Y80942858D01*
X92761904Y81038096D01*
X92761904Y81133334D01*
X92714285Y81228572D01*
X92666666Y81276191D01*
X92571428Y81323810D01*
X92380952Y81371429D01*
X92285714Y81419048D01*
X92238095Y81466667D01*
X92190476Y81561905D01*
X92190476Y81657143D01*
X92238095Y81752381D01*
X92285714Y81800000D01*
X92380952Y81847620D01*
X92619047Y81847620D01*
X92761904Y81800000D01*
X93714285Y80847620D02*
X93142857Y80847620D01*
X93428571Y80847620D02*
X93428571Y81847620D01*
X93333333Y81704762D01*
X93238095Y81609524D01*
X93142857Y81561905D01*
X94047619Y81847620D02*
X94666666Y81847620D01*
X94333333Y81466667D01*
X94476190Y81466667D01*
X94571428Y81419048D01*
X94619047Y81371429D01*
X94666666Y81276191D01*
X94666666Y81038096D01*
X94619047Y80942858D01*
X94571428Y80895239D01*
X94476190Y80847620D01*
X94190476Y80847620D01*
X94095238Y80895239D01*
X94047619Y80942858D01*
X95142857Y80847620D02*
X95333333Y80847620D01*
X95428571Y80895239D01*
X95476190Y80942858D01*
X95571428Y81085715D01*
X95619047Y81276191D01*
X95619047Y81657143D01*
X95571428Y81752381D01*
X95523809Y81800000D01*
X95428571Y81847620D01*
X95238095Y81847620D01*
X95142857Y81800000D01*
X95095238Y81752381D01*
X95047619Y81657143D01*
X95047619Y81419048D01*
X95095238Y81323810D01*
X95142857Y81276191D01*
X95238095Y81228572D01*
X95428571Y81228572D01*
X95523809Y81276191D01*
X95571428Y81323810D01*
X95619047Y81419048D01*
X66380952Y80347620D02*
X65904761Y80347620D01*
X65904761Y81347620D01*
X66666666Y80395239D02*
X66809523Y80347620D01*
X67047619Y80347620D01*
X67142857Y80395239D01*
X67190476Y80442858D01*
X67238095Y80538096D01*
X67238095Y80633334D01*
X67190476Y80728572D01*
X67142857Y80776191D01*
X67047619Y80823810D01*
X66857142Y80871429D01*
X66761904Y80919048D01*
X66714285Y80966667D01*
X66666666Y81061905D01*
X66666666Y81157143D01*
X66714285Y81252381D01*
X66761904Y81300000D01*
X66857142Y81347620D01*
X67095238Y81347620D01*
X67238095Y81300000D01*
X67571428Y81347620D02*
X68190476Y81347620D01*
X67857142Y80966667D01*
X68000000Y80966667D01*
X68095238Y80919048D01*
X68142857Y80871429D01*
X68190476Y80776191D01*
X68190476Y80538096D01*
X68142857Y80442858D01*
X68095238Y80395239D01*
X68000000Y80347620D01*
X67714285Y80347620D01*
X67619047Y80395239D01*
X67571428Y80442858D01*
X68809523Y81347620D02*
X68904761Y81347620D01*
X69000000Y81300000D01*
X69047619Y81252381D01*
X69095238Y81157143D01*
X69142857Y80966667D01*
X69142857Y80728572D01*
X69095238Y80538096D01*
X69047619Y80442858D01*
X69000000Y80395239D01*
X68904761Y80347620D01*
X68809523Y80347620D01*
X68714285Y80395239D01*
X68666666Y80442858D01*
X68619047Y80538096D01*
X68571428Y80728572D01*
X68571428Y80966667D01*
X68619047Y81157143D01*
X68666666Y81252381D01*
X68714285Y81300000D01*
X68809523Y81347620D01*
X36292952Y80720620D02*
X35816761Y80720620D01*
X35816761Y81720620D01*
X36578666Y80768239D02*
X36721523Y80720620D01*
X36959619Y80720620D01*
X37054857Y80768239D01*
X37102476Y80815858D01*
X37150095Y80911096D01*
X37150095Y81006334D01*
X37102476Y81101572D01*
X37054857Y81149191D01*
X36959619Y81196810D01*
X36769142Y81244429D01*
X36673904Y81292048D01*
X36626285Y81339667D01*
X36578666Y81434905D01*
X36578666Y81530143D01*
X36626285Y81625381D01*
X36673904Y81673000D01*
X36769142Y81720620D01*
X37007238Y81720620D01*
X37150095Y81673000D01*
X37483428Y81720620D02*
X38102476Y81720620D01*
X37769142Y81339667D01*
X37912000Y81339667D01*
X38007238Y81292048D01*
X38054857Y81244429D01*
X38102476Y81149191D01*
X38102476Y80911096D01*
X38054857Y80815858D01*
X38007238Y80768239D01*
X37912000Y80720620D01*
X37626285Y80720620D01*
X37531047Y80768239D01*
X37483428Y80815858D01*
X38483428Y81625381D02*
X38531047Y81673000D01*
X38626285Y81720620D01*
X38864380Y81720620D01*
X38959619Y81673000D01*
X39007238Y81625381D01*
X39054857Y81530143D01*
X39054857Y81434905D01*
X39007238Y81292048D01*
X38435809Y80720620D01*
X39054857Y80720620D01*
X114380952Y93807620D02*
X113904761Y93807620D01*
X113904761Y94807620D01*
X114666666Y93855239D02*
X114809523Y93807620D01*
X115047619Y93807620D01*
X115142857Y93855239D01*
X115190476Y93902858D01*
X115238095Y93998096D01*
X115238095Y94093334D01*
X115190476Y94188572D01*
X115142857Y94236191D01*
X115047619Y94283810D01*
X114857142Y94331429D01*
X114761904Y94379048D01*
X114714285Y94426667D01*
X114666666Y94521905D01*
X114666666Y94617143D01*
X114714285Y94712381D01*
X114761904Y94760000D01*
X114857142Y94807620D01*
X115095238Y94807620D01*
X115238095Y94760000D01*
X115571428Y94807620D02*
X116190476Y94807620D01*
X115857142Y94426667D01*
X116000000Y94426667D01*
X116095238Y94379048D01*
X116142857Y94331429D01*
X116190476Y94236191D01*
X116190476Y93998096D01*
X116142857Y93902858D01*
X116095238Y93855239D01*
X116000000Y93807620D01*
X115714285Y93807620D01*
X115619047Y93855239D01*
X115571428Y93902858D01*
X116571428Y94712381D02*
X116619047Y94760000D01*
X116714285Y94807620D01*
X116952380Y94807620D01*
X117047619Y94760000D01*
X117095238Y94712381D01*
X117142857Y94617143D01*
X117142857Y94521905D01*
X117095238Y94379048D01*
X116523809Y93807620D01*
X117142857Y93807620D01*
X88880952Y93307620D02*
X88404761Y93307620D01*
X88404761Y94307620D01*
X89166666Y93355239D02*
X89309523Y93307620D01*
X89547619Y93307620D01*
X89642857Y93355239D01*
X89690476Y93402858D01*
X89738095Y93498096D01*
X89738095Y93593334D01*
X89690476Y93688572D01*
X89642857Y93736191D01*
X89547619Y93783810D01*
X89357142Y93831429D01*
X89261904Y93879048D01*
X89214285Y93926667D01*
X89166666Y94021905D01*
X89166666Y94117143D01*
X89214285Y94212381D01*
X89261904Y94260000D01*
X89357142Y94307620D01*
X89595238Y94307620D01*
X89738095Y94260000D01*
X90119047Y94212381D02*
X90166666Y94260000D01*
X90261904Y94307620D01*
X90500000Y94307620D01*
X90595238Y94260000D01*
X90642857Y94212381D01*
X90690476Y94117143D01*
X90690476Y94021905D01*
X90642857Y93879048D01*
X90071428Y93307620D01*
X90690476Y93307620D01*
X91023809Y94307620D02*
X91690476Y94307620D01*
X91261904Y93307620D01*
X65880952Y94307620D02*
X65404761Y94307620D01*
X65404761Y95307620D01*
X66166666Y94355239D02*
X66309523Y94307620D01*
X66547619Y94307620D01*
X66642857Y94355239D01*
X66690476Y94402858D01*
X66738095Y94498096D01*
X66738095Y94593334D01*
X66690476Y94688572D01*
X66642857Y94736191D01*
X66547619Y94783810D01*
X66357142Y94831429D01*
X66261904Y94879048D01*
X66214285Y94926667D01*
X66166666Y95021905D01*
X66166666Y95117143D01*
X66214285Y95212381D01*
X66261904Y95260000D01*
X66357142Y95307620D01*
X66595238Y95307620D01*
X66738095Y95260000D01*
X67690476Y94307620D02*
X67119047Y94307620D01*
X67404761Y94307620D02*
X67404761Y95307620D01*
X67309523Y95164762D01*
X67214285Y95069524D01*
X67119047Y95021905D01*
X68309523Y95307620D02*
X68404761Y95307620D01*
X68500000Y95260000D01*
X68547619Y95212381D01*
X68595238Y95117143D01*
X68642857Y94926667D01*
X68642857Y94688572D01*
X68595238Y94498096D01*
X68547619Y94402858D01*
X68500000Y94355239D01*
X68404761Y94307620D01*
X68309523Y94307620D01*
X68214285Y94355239D01*
X68166666Y94402858D01*
X68119047Y94498096D01*
X68071428Y94688572D01*
X68071428Y94926667D01*
X68119047Y95117143D01*
X68166666Y95212381D01*
X68214285Y95260000D01*
X68309523Y95307620D01*
X41880952Y94307620D02*
X41404761Y94307620D01*
X41404761Y95307620D01*
X42166666Y94355239D02*
X42309523Y94307620D01*
X42547619Y94307620D01*
X42642857Y94355239D01*
X42690476Y94402858D01*
X42738095Y94498096D01*
X42738095Y94593334D01*
X42690476Y94688572D01*
X42642857Y94736191D01*
X42547619Y94783810D01*
X42357142Y94831429D01*
X42261904Y94879048D01*
X42214285Y94926667D01*
X42166666Y95021905D01*
X42166666Y95117143D01*
X42214285Y95212381D01*
X42261904Y95260000D01*
X42357142Y95307620D01*
X42595238Y95307620D01*
X42738095Y95260000D01*
X43119047Y95212381D02*
X43166666Y95260000D01*
X43261904Y95307620D01*
X43500000Y95307620D01*
X43595238Y95260000D01*
X43642857Y95212381D01*
X43690476Y95117143D01*
X43690476Y95021905D01*
X43642857Y94879048D01*
X43071428Y94307620D01*
X43690476Y94307620D01*
X44023809Y95307620D02*
X44690476Y95307620D01*
X44261904Y94307620D01*
X19880952Y93807620D02*
X19404761Y93807620D01*
X19404761Y94807620D01*
X20166666Y93855239D02*
X20309523Y93807620D01*
X20547619Y93807620D01*
X20642857Y93855239D01*
X20690476Y93902858D01*
X20738095Y93998096D01*
X20738095Y94093334D01*
X20690476Y94188572D01*
X20642857Y94236191D01*
X20547619Y94283810D01*
X20357142Y94331429D01*
X20261904Y94379048D01*
X20214285Y94426667D01*
X20166666Y94521905D01*
X20166666Y94617143D01*
X20214285Y94712381D01*
X20261904Y94760000D01*
X20357142Y94807620D01*
X20595238Y94807620D01*
X20738095Y94760000D01*
X21357142Y94807620D02*
X21452380Y94807620D01*
X21547619Y94760000D01*
X21595238Y94712381D01*
X21642857Y94617143D01*
X21690476Y94426667D01*
X21690476Y94188572D01*
X21642857Y93998096D01*
X21595238Y93902858D01*
X21547619Y93855239D01*
X21452380Y93807620D01*
X21357142Y93807620D01*
X21261904Y93855239D01*
X21214285Y93902858D01*
X21166666Y93998096D01*
X21119047Y94188572D01*
X21119047Y94426667D01*
X21166666Y94617143D01*
X21214285Y94712381D01*
X21261904Y94760000D01*
X21357142Y94807620D01*
X22547619Y94474286D02*
X22547619Y93807620D01*
X22309523Y94855239D02*
X22071428Y94140953D01*
X22690476Y94140953D01*
X62857142Y56547620D02*
X62952380Y56547620D01*
X63047619Y56500000D01*
X63095238Y56452381D01*
X63142857Y56357143D01*
X63190476Y56166667D01*
X63190476Y55928572D01*
X63142857Y55738096D01*
X63095238Y55642858D01*
X63047619Y55595239D01*
X62952380Y55547620D01*
X62857142Y55547620D01*
X62761904Y55595239D01*
X62714285Y55642858D01*
X62666666Y55738096D01*
X62619047Y55928572D01*
X62619047Y56166667D01*
X62666666Y56357143D01*
X62714285Y56452381D01*
X62761904Y56500000D01*
X62857142Y56547620D01*
X63619047Y55642858D02*
X63666666Y55595239D01*
X63619047Y55547620D01*
X63571428Y55595239D01*
X63619047Y55642858D01*
X63619047Y55547620D01*
X64619047Y55547620D02*
X64047619Y55547620D01*
X64333333Y55547620D02*
X64333333Y56547620D01*
X64238095Y56404762D01*
X64142857Y56309524D01*
X64047619Y56261905D01*
X65476190Y56214286D02*
X65476190Y55547620D01*
X65047619Y56214286D02*
X65047619Y55690477D01*
X65095238Y55595239D01*
X65190476Y55547620D01*
X65333333Y55547620D01*
X65428571Y55595239D01*
X65476190Y55642858D01*
X66285714Y56071429D02*
X65952380Y56071429D01*
X65952380Y55547620D02*
X65952380Y56547620D01*
X66428571Y56547620D01*
X73357142Y56547620D02*
X73452380Y56547620D01*
X73547619Y56500000D01*
X73595238Y56452381D01*
X73642857Y56357143D01*
X73690476Y56166667D01*
X73690476Y55928572D01*
X73642857Y55738096D01*
X73595238Y55642858D01*
X73547619Y55595239D01*
X73452380Y55547620D01*
X73357142Y55547620D01*
X73261904Y55595239D01*
X73214285Y55642858D01*
X73166666Y55738096D01*
X73119047Y55928572D01*
X73119047Y56166667D01*
X73166666Y56357143D01*
X73214285Y56452381D01*
X73261904Y56500000D01*
X73357142Y56547620D01*
X74119047Y55642858D02*
X74166666Y55595239D01*
X74119047Y55547620D01*
X74071428Y55595239D01*
X74119047Y55642858D01*
X74119047Y55547620D01*
X75119047Y55547620D02*
X74547619Y55547620D01*
X74833333Y55547620D02*
X74833333Y56547620D01*
X74738095Y56404762D01*
X74642857Y56309524D01*
X74547619Y56261905D01*
X75976190Y56214286D02*
X75976190Y55547620D01*
X75547619Y56214286D02*
X75547619Y55690477D01*
X75595238Y55595239D01*
X75690476Y55547620D01*
X75833333Y55547620D01*
X75928571Y55595239D01*
X75976190Y55642858D01*
X76785714Y56071429D02*
X76452380Y56071429D01*
X76452380Y55547620D02*
X76452380Y56547620D01*
X76928571Y56547620D01*
X95357142Y72697620D02*
X95452380Y72697620D01*
X95547619Y72650000D01*
X95595238Y72602381D01*
X95642857Y72507143D01*
X95690476Y72316667D01*
X95690476Y72078572D01*
X95642857Y71888096D01*
X95595238Y71792858D01*
X95547619Y71745239D01*
X95452380Y71697620D01*
X95357142Y71697620D01*
X95261904Y71745239D01*
X95214285Y71792858D01*
X95166666Y71888096D01*
X95119047Y72078572D01*
X95119047Y72316667D01*
X95166666Y72507143D01*
X95214285Y72602381D01*
X95261904Y72650000D01*
X95357142Y72697620D01*
X96119047Y71792858D02*
X96166666Y71745239D01*
X96119047Y71697620D01*
X96071428Y71745239D01*
X96119047Y71792858D01*
X96119047Y71697620D01*
X97119047Y71697620D02*
X96547619Y71697620D01*
X96833333Y71697620D02*
X96833333Y72697620D01*
X96738095Y72554762D01*
X96642857Y72459524D01*
X96547619Y72411905D01*
X97976190Y72364286D02*
X97976190Y71697620D01*
X97547619Y72364286D02*
X97547619Y71840477D01*
X97595238Y71745239D01*
X97690476Y71697620D01*
X97833333Y71697620D01*
X97928571Y71745239D01*
X97976190Y71792858D01*
X98785714Y72221429D02*
X98452380Y72221429D01*
X98452380Y71697620D02*
X98452380Y72697620D01*
X98928571Y72697620D01*
X61857142Y72697620D02*
X61952380Y72697620D01*
X62047619Y72650000D01*
X62095238Y72602381D01*
X62142857Y72507143D01*
X62190476Y72316667D01*
X62190476Y72078572D01*
X62142857Y71888096D01*
X62095238Y71792858D01*
X62047619Y71745239D01*
X61952380Y71697620D01*
X61857142Y71697620D01*
X61761904Y71745239D01*
X61714285Y71792858D01*
X61666666Y71888096D01*
X61619047Y72078572D01*
X61619047Y72316667D01*
X61666666Y72507143D01*
X61714285Y72602381D01*
X61761904Y72650000D01*
X61857142Y72697620D01*
X62619047Y71792858D02*
X62666666Y71745239D01*
X62619047Y71697620D01*
X62571428Y71745239D01*
X62619047Y71792858D01*
X62619047Y71697620D01*
X63619047Y71697620D02*
X63047619Y71697620D01*
X63333333Y71697620D02*
X63333333Y72697620D01*
X63238095Y72554762D01*
X63142857Y72459524D01*
X63047619Y72411905D01*
X64476190Y72364286D02*
X64476190Y71697620D01*
X64047619Y72364286D02*
X64047619Y71840477D01*
X64095238Y71745239D01*
X64190476Y71697620D01*
X64333333Y71697620D01*
X64428571Y71745239D01*
X64476190Y71792858D01*
X65285714Y72221429D02*
X64952380Y72221429D01*
X64952380Y71697620D02*
X64952380Y72697620D01*
X65428571Y72697620D01*
X29357142Y73197620D02*
X29452380Y73197620D01*
X29547619Y73150000D01*
X29595238Y73102381D01*
X29642857Y73007143D01*
X29690476Y72816667D01*
X29690476Y72578572D01*
X29642857Y72388096D01*
X29595238Y72292858D01*
X29547619Y72245239D01*
X29452380Y72197620D01*
X29357142Y72197620D01*
X29261904Y72245239D01*
X29214285Y72292858D01*
X29166666Y72388096D01*
X29119047Y72578572D01*
X29119047Y72816667D01*
X29166666Y73007143D01*
X29214285Y73102381D01*
X29261904Y73150000D01*
X29357142Y73197620D01*
X30119047Y72292858D02*
X30166666Y72245239D01*
X30119047Y72197620D01*
X30071428Y72245239D01*
X30119047Y72292858D01*
X30119047Y72197620D01*
X31119047Y72197620D02*
X30547619Y72197620D01*
X30833333Y72197620D02*
X30833333Y73197620D01*
X30738095Y73054762D01*
X30642857Y72959524D01*
X30547619Y72911905D01*
X31976190Y72864286D02*
X31976190Y72197620D01*
X31547619Y72864286D02*
X31547619Y72340477D01*
X31595238Y72245239D01*
X31690476Y72197620D01*
X31833333Y72197620D01*
X31928571Y72245239D01*
X31976190Y72292858D01*
X32785714Y72721429D02*
X32452380Y72721429D01*
X32452380Y72197620D02*
X32452380Y73197620D01*
X32928571Y73197620D01*
X77357142Y85847620D02*
X77452380Y85847620D01*
X77547619Y85800000D01*
X77595238Y85752381D01*
X77642857Y85657143D01*
X77690476Y85466667D01*
X77690476Y85228572D01*
X77642857Y85038096D01*
X77595238Y84942858D01*
X77547619Y84895239D01*
X77452380Y84847620D01*
X77357142Y84847620D01*
X77261904Y84895239D01*
X77214285Y84942858D01*
X77166666Y85038096D01*
X77119047Y85228572D01*
X77119047Y85466667D01*
X77166666Y85657143D01*
X77214285Y85752381D01*
X77261904Y85800000D01*
X77357142Y85847620D01*
X78119047Y84942858D02*
X78166666Y84895239D01*
X78119047Y84847620D01*
X78071428Y84895239D01*
X78119047Y84942858D01*
X78119047Y84847620D01*
X79119047Y84847620D02*
X78547619Y84847620D01*
X78833333Y84847620D02*
X78833333Y85847620D01*
X78738095Y85704762D01*
X78642857Y85609524D01*
X78547619Y85561905D01*
X79976190Y85514286D02*
X79976190Y84847620D01*
X79547619Y85514286D02*
X79547619Y84990477D01*
X79595238Y84895239D01*
X79690476Y84847620D01*
X79833333Y84847620D01*
X79928571Y84895239D01*
X79976190Y84942858D01*
X80785714Y85371429D02*
X80452380Y85371429D01*
X80452380Y84847620D02*
X80452380Y85847620D01*
X80928571Y85847620D01*
X53857142Y86347620D02*
X53952380Y86347620D01*
X54047619Y86300000D01*
X54095238Y86252381D01*
X54142857Y86157143D01*
X54190476Y85966667D01*
X54190476Y85728572D01*
X54142857Y85538096D01*
X54095238Y85442858D01*
X54047619Y85395239D01*
X53952380Y85347620D01*
X53857142Y85347620D01*
X53761904Y85395239D01*
X53714285Y85442858D01*
X53666666Y85538096D01*
X53619047Y85728572D01*
X53619047Y85966667D01*
X53666666Y86157143D01*
X53714285Y86252381D01*
X53761904Y86300000D01*
X53857142Y86347620D01*
X54619047Y85442858D02*
X54666666Y85395239D01*
X54619047Y85347620D01*
X54571428Y85395239D01*
X54619047Y85442858D01*
X54619047Y85347620D01*
X55619047Y85347620D02*
X55047619Y85347620D01*
X55333333Y85347620D02*
X55333333Y86347620D01*
X55238095Y86204762D01*
X55142857Y86109524D01*
X55047619Y86061905D01*
X56476190Y86014286D02*
X56476190Y85347620D01*
X56047619Y86014286D02*
X56047619Y85490477D01*
X56095238Y85395239D01*
X56190476Y85347620D01*
X56333333Y85347620D01*
X56428571Y85395239D01*
X56476190Y85442858D01*
X57285714Y85871429D02*
X56952380Y85871429D01*
X56952380Y85347620D02*
X56952380Y86347620D01*
X57428571Y86347620D01*
X23269142Y85720620D02*
X23364380Y85720620D01*
X23459619Y85673000D01*
X23507238Y85625381D01*
X23554857Y85530143D01*
X23602476Y85339667D01*
X23602476Y85101572D01*
X23554857Y84911096D01*
X23507238Y84815858D01*
X23459619Y84768239D01*
X23364380Y84720620D01*
X23269142Y84720620D01*
X23173904Y84768239D01*
X23126285Y84815858D01*
X23078666Y84911096D01*
X23031047Y85101572D01*
X23031047Y85339667D01*
X23078666Y85530143D01*
X23126285Y85625381D01*
X23173904Y85673000D01*
X23269142Y85720620D01*
X24031047Y84815858D02*
X24078666Y84768239D01*
X24031047Y84720620D01*
X23983428Y84768239D01*
X24031047Y84815858D01*
X24031047Y84720620D01*
X25031047Y84720620D02*
X24459619Y84720620D01*
X24745333Y84720620D02*
X24745333Y85720620D01*
X24650095Y85577762D01*
X24554857Y85482524D01*
X24459619Y85434905D01*
X25888190Y85387286D02*
X25888190Y84720620D01*
X25459619Y85387286D02*
X25459619Y84863477D01*
X25507238Y84768239D01*
X25602476Y84720620D01*
X25745333Y84720620D01*
X25840571Y84768239D01*
X25888190Y84815858D01*
X26697714Y85244429D02*
X26364380Y85244429D01*
X26364380Y84720620D02*
X26364380Y85720620D01*
X26840571Y85720620D01*
X102357142Y98807620D02*
X102452380Y98807620D01*
X102547619Y98760000D01*
X102595238Y98712381D01*
X102642857Y98617143D01*
X102690476Y98426667D01*
X102690476Y98188572D01*
X102642857Y97998096D01*
X102595238Y97902858D01*
X102547619Y97855239D01*
X102452380Y97807620D01*
X102357142Y97807620D01*
X102261904Y97855239D01*
X102214285Y97902858D01*
X102166666Y97998096D01*
X102119047Y98188572D01*
X102119047Y98426667D01*
X102166666Y98617143D01*
X102214285Y98712381D01*
X102261904Y98760000D01*
X102357142Y98807620D01*
X103119047Y97902858D02*
X103166666Y97855239D01*
X103119047Y97807620D01*
X103071428Y97855239D01*
X103119047Y97902858D01*
X103119047Y97807620D01*
X104119047Y97807620D02*
X103547619Y97807620D01*
X103833333Y97807620D02*
X103833333Y98807620D01*
X103738095Y98664762D01*
X103642857Y98569524D01*
X103547619Y98521905D01*
X104976190Y98474286D02*
X104976190Y97807620D01*
X104547619Y98474286D02*
X104547619Y97950477D01*
X104595238Y97855239D01*
X104690476Y97807620D01*
X104833333Y97807620D01*
X104928571Y97855239D01*
X104976190Y97902858D01*
X105785714Y98331429D02*
X105452380Y98331429D01*
X105452380Y97807620D02*
X105452380Y98807620D01*
X105928571Y98807620D01*
X77857142Y98807620D02*
X77952380Y98807620D01*
X78047619Y98760000D01*
X78095238Y98712381D01*
X78142857Y98617143D01*
X78190476Y98426667D01*
X78190476Y98188572D01*
X78142857Y97998096D01*
X78095238Y97902858D01*
X78047619Y97855239D01*
X77952380Y97807620D01*
X77857142Y97807620D01*
X77761904Y97855239D01*
X77714285Y97902858D01*
X77666666Y97998096D01*
X77619047Y98188572D01*
X77619047Y98426667D01*
X77666666Y98617143D01*
X77714285Y98712381D01*
X77761904Y98760000D01*
X77857142Y98807620D01*
X78619047Y97902858D02*
X78666666Y97855239D01*
X78619047Y97807620D01*
X78571428Y97855239D01*
X78619047Y97902858D01*
X78619047Y97807620D01*
X79619047Y97807620D02*
X79047619Y97807620D01*
X79333333Y97807620D02*
X79333333Y98807620D01*
X79238095Y98664762D01*
X79142857Y98569524D01*
X79047619Y98521905D01*
X80476190Y98474286D02*
X80476190Y97807620D01*
X80047619Y98474286D02*
X80047619Y97950477D01*
X80095238Y97855239D01*
X80190476Y97807620D01*
X80333333Y97807620D01*
X80428571Y97855239D01*
X80476190Y97902858D01*
X81285714Y98331429D02*
X80952380Y98331429D01*
X80952380Y97807620D02*
X80952380Y98807620D01*
X81428571Y98807620D01*
X53857142Y99307620D02*
X53952380Y99307620D01*
X54047619Y99260000D01*
X54095238Y99212381D01*
X54142857Y99117143D01*
X54190476Y98926667D01*
X54190476Y98688572D01*
X54142857Y98498096D01*
X54095238Y98402858D01*
X54047619Y98355239D01*
X53952380Y98307620D01*
X53857142Y98307620D01*
X53761904Y98355239D01*
X53714285Y98402858D01*
X53666666Y98498096D01*
X53619047Y98688572D01*
X53619047Y98926667D01*
X53666666Y99117143D01*
X53714285Y99212381D01*
X53761904Y99260000D01*
X53857142Y99307620D01*
X54619047Y98402858D02*
X54666666Y98355239D01*
X54619047Y98307620D01*
X54571428Y98355239D01*
X54619047Y98402858D01*
X54619047Y98307620D01*
X55619047Y98307620D02*
X55047619Y98307620D01*
X55333333Y98307620D02*
X55333333Y99307620D01*
X55238095Y99164762D01*
X55142857Y99069524D01*
X55047619Y99021905D01*
X56476190Y98974286D02*
X56476190Y98307620D01*
X56047619Y98974286D02*
X56047619Y98450477D01*
X56095238Y98355239D01*
X56190476Y98307620D01*
X56333333Y98307620D01*
X56428571Y98355239D01*
X56476190Y98402858D01*
X57285714Y98831429D02*
X56952380Y98831429D01*
X56952380Y98307620D02*
X56952380Y99307620D01*
X57428571Y99307620D01*
X28857142Y98807620D02*
X28952380Y98807620D01*
X29047619Y98760000D01*
X29095238Y98712381D01*
X29142857Y98617143D01*
X29190476Y98426667D01*
X29190476Y98188572D01*
X29142857Y97998096D01*
X29095238Y97902858D01*
X29047619Y97855239D01*
X28952380Y97807620D01*
X28857142Y97807620D01*
X28761904Y97855239D01*
X28714285Y97902858D01*
X28666666Y97998096D01*
X28619047Y98188572D01*
X28619047Y98426667D01*
X28666666Y98617143D01*
X28714285Y98712381D01*
X28761904Y98760000D01*
X28857142Y98807620D01*
X29619047Y97902858D02*
X29666666Y97855239D01*
X29619047Y97807620D01*
X29571428Y97855239D01*
X29619047Y97902858D01*
X29619047Y97807620D01*
X30619047Y97807620D02*
X30047619Y97807620D01*
X30333333Y97807620D02*
X30333333Y98807620D01*
X30238095Y98664762D01*
X30142857Y98569524D01*
X30047619Y98521905D01*
X31476190Y98474286D02*
X31476190Y97807620D01*
X31047619Y98474286D02*
X31047619Y97950477D01*
X31095238Y97855239D01*
X31190476Y97807620D01*
X31333333Y97807620D01*
X31428571Y97855239D01*
X31476190Y97902858D01*
X32285714Y98331429D02*
X31952380Y98331429D01*
X31952380Y97807620D02*
X31952380Y98807620D01*
X32428571Y98807620D01*
X4857142Y98807620D02*
X4952380Y98807620D01*
X5047619Y98760000D01*
X5095238Y98712381D01*
X5142857Y98617143D01*
X5190476Y98426667D01*
X5190476Y98188572D01*
X5142857Y97998096D01*
X5095238Y97902858D01*
X5047619Y97855239D01*
X4952380Y97807620D01*
X4857142Y97807620D01*
X4761904Y97855239D01*
X4714285Y97902858D01*
X4666666Y97998096D01*
X4619047Y98188572D01*
X4619047Y98426667D01*
X4666666Y98617143D01*
X4714285Y98712381D01*
X4761904Y98760000D01*
X4857142Y98807620D01*
X5619047Y97902858D02*
X5666666Y97855239D01*
X5619047Y97807620D01*
X5571428Y97855239D01*
X5619047Y97902858D01*
X5619047Y97807620D01*
X6619047Y97807620D02*
X6047619Y97807620D01*
X6333333Y97807620D02*
X6333333Y98807620D01*
X6238095Y98664762D01*
X6142857Y98569524D01*
X6047619Y98521905D01*
X7476190Y98474286D02*
X7476190Y97807620D01*
X7047619Y98474286D02*
X7047619Y97950477D01*
X7095238Y97855239D01*
X7190476Y97807620D01*
X7333333Y97807620D01*
X7428571Y97855239D01*
X7476190Y97902858D01*
X8285714Y98331429D02*
X7952380Y98331429D01*
X7952380Y97807620D02*
X7952380Y98807620D01*
X8428571Y98807620D01*
X19452380Y126047620D02*
X18880952Y126047620D01*
X19166666Y126047620D02*
X19166666Y127047620D01*
X19071428Y126904762D01*
X18976190Y126809524D01*
X18880952Y126761905D01*
X20071428Y127047620D02*
X20166666Y127047620D01*
X20261904Y127000000D01*
X20309523Y126952381D01*
X20357142Y126857143D01*
X20404761Y126666667D01*
X20404761Y126428572D01*
X20357142Y126238096D01*
X20309523Y126142858D01*
X20261904Y126095239D01*
X20166666Y126047620D01*
X20071428Y126047620D01*
X19976190Y126095239D01*
X19928571Y126142858D01*
X19880952Y126238096D01*
X19833333Y126428572D01*
X19833333Y126666667D01*
X19880952Y126857143D01*
X19928571Y126952381D01*
X19976190Y127000000D01*
X20071428Y127047620D01*
X21023809Y127047620D02*
X21119047Y127047620D01*
X21214285Y127000000D01*
X21261904Y126952381D01*
X21309523Y126857143D01*
X21357142Y126666667D01*
X21357142Y126428572D01*
X21309523Y126238096D01*
X21261904Y126142858D01*
X21214285Y126095239D01*
X21119047Y126047620D01*
X21023809Y126047620D01*
X20928571Y126095239D01*
X20880952Y126142858D01*
X20833333Y126238096D01*
X20785714Y126428572D01*
X20785714Y126666667D01*
X20833333Y126857143D01*
X20880952Y126952381D01*
X20928571Y127000000D01*
X21023809Y127047620D01*
X22214285Y126714286D02*
X22214285Y126047620D01*
X21785714Y126714286D02*
X21785714Y126190477D01*
X21833333Y126095239D01*
X21928571Y126047620D01*
X22071428Y126047620D01*
X22166666Y126095239D01*
X22214285Y126142858D01*
X23023809Y126571429D02*
X22690476Y126571429D01*
X22690476Y126047620D02*
X22690476Y127047620D01*
X23166666Y127047620D01*
D12*
X101357142Y19142858D02*
X103357142Y16142858D01*
X103357142Y19142858D02*
X101357142Y16142858D01*
X106071428Y16142858D02*
X104357142Y16142858D01*
X105214285Y16142858D02*
X105214285Y19142858D01*
X104928571Y18714286D01*
X104642857Y18428572D01*
X104357142Y18285715D01*
X106642857Y15857143D02*
X108928571Y15857143D01*
X109500000Y16285715D02*
X109928571Y16142858D01*
X110642857Y16142858D01*
X110928571Y16285715D01*
X111071428Y16428572D01*
X111214285Y16714286D01*
X111214285Y17000000D01*
X111071428Y17285715D01*
X110928571Y17428572D01*
X110642857Y17571429D01*
X110071428Y17714286D01*
X109785714Y17857143D01*
X109642857Y18000000D01*
X109500000Y18285715D01*
X109500000Y18571429D01*
X109642857Y18857143D01*
X109785714Y19000000D01*
X110071428Y19142858D01*
X110785714Y19142858D01*
X111214285Y19000000D01*
X112500000Y16142858D02*
X112500000Y19142858D01*
X113214285Y19142858D01*
X113642857Y19000000D01*
X113928571Y18714286D01*
X114071428Y18428572D01*
X114214285Y17857143D01*
X114214285Y17428572D01*
X114071428Y16857143D01*
X113928571Y16571429D01*
X113642857Y16285715D01*
X113214285Y16142858D01*
X112500000Y16142858D01*
X119500000Y16142858D02*
X118500000Y17571429D01*
X117785714Y16142858D02*
X117785714Y19142858D01*
X118928571Y19142858D01*
X119214285Y19000000D01*
X119357142Y18857143D01*
X119500000Y18571429D01*
X119500000Y18142858D01*
X119357142Y17857143D01*
X119214285Y17714286D01*
X118928571Y17571429D01*
X117785714Y17571429D01*
X121928571Y16285715D02*
X121642857Y16142858D01*
X121071428Y16142858D01*
X120785714Y16285715D01*
X120642857Y16571429D01*
X120642857Y17714286D01*
X120785714Y18000000D01*
X121071428Y18142858D01*
X121642857Y18142858D01*
X121928571Y18000000D01*
X122071428Y17714286D01*
X122071428Y17428572D01*
X120642857Y17142858D01*
X123071428Y18142858D02*
X123785714Y16142858D01*
X124500000Y18142858D01*
X127214285Y16142858D02*
X125500000Y16142858D01*
X126357142Y16142858D02*
X126357142Y19142858D01*
X126071428Y18714286D01*
X125785714Y18428572D01*
X125500000Y18285715D01*
X128500000Y16428572D02*
X128642857Y16285715D01*
X128500000Y16142858D01*
X128357142Y16285715D01*
X128500000Y16428572D01*
X128500000Y16142858D01*
X129642857Y19142858D02*
X131500000Y19142858D01*
X130500000Y18000000D01*
X130928571Y18000000D01*
X131214285Y17857143D01*
X131357142Y17714286D01*
X131500000Y17428572D01*
X131500000Y16714286D01*
X131357142Y16428572D01*
X131214285Y16285715D01*
X130928571Y16142858D01*
X130071428Y16142858D01*
X129785714Y16285715D01*
X129642857Y16428572D01*
D13*
X18634225Y123899000D02*
X18634225Y123399000D01*
X18384225Y123649000D02*
X18884225Y123649000D01*
X23790000Y122458000D02*
X23790000Y121890000D01*
X23750000Y122692000D02*
X23750000Y121656000D01*
X23710000Y122851000D02*
X23710000Y121497000D01*
X23670000Y122979000D02*
X23670000Y121369000D01*
X23630000Y123089000D02*
X23630000Y121259000D01*
X23590000Y123185000D02*
X23590000Y121163000D01*
X23550000Y123272000D02*
X23550000Y121076000D01*
X23510000Y123352000D02*
X23510000Y120996000D01*
X23470000Y121134000D02*
X23470000Y120923000D01*
X23470000Y123425000D02*
X23470000Y123214000D01*
X23430000Y121134000D02*
X23430000Y120855000D01*
X23430000Y123493000D02*
X23430000Y123214000D01*
X23390000Y121134000D02*
X23390000Y120791000D01*
X23390000Y123557000D02*
X23390000Y123214000D01*
X23350000Y121134000D02*
X23350000Y120731000D01*
X23350000Y123617000D02*
X23350000Y123214000D01*
X23310000Y121134000D02*
X23310000Y120674000D01*
X23310000Y123674000D02*
X23310000Y123214000D01*
X23270000Y121134000D02*
X23270000Y120620000D01*
X23270000Y123728000D02*
X23270000Y123214000D01*
X23230000Y121134000D02*
X23230000Y120569000D01*
X23230000Y123779000D02*
X23230000Y123214000D01*
X23190000Y121134000D02*
X23190000Y120521000D01*
X23190000Y123827000D02*
X23190000Y123214000D01*
X23150000Y121134000D02*
X23150000Y120475000D01*
X23150000Y123873000D02*
X23150000Y123214000D01*
X23110000Y121134000D02*
X23110000Y120431000D01*
X23110000Y123917000D02*
X23110000Y123214000D01*
X23070000Y121134000D02*
X23070000Y120389000D01*
X23070000Y123959000D02*
X23070000Y123214000D01*
X23030000Y121134000D02*
X23030000Y120348000D01*
X23030000Y124000000D02*
X23030000Y123214000D01*
X22990000Y121134000D02*
X22990000Y120310000D01*
X22990000Y124038000D02*
X22990000Y123214000D01*
X22950000Y121134000D02*
X22950000Y120273000D01*
X22950000Y124075000D02*
X22950000Y123214000D01*
X22910000Y121134000D02*
X22910000Y120237000D01*
X22910000Y124111000D02*
X22910000Y123214000D01*
X22870000Y121134000D02*
X22870000Y120203000D01*
X22870000Y124145000D02*
X22870000Y123214000D01*
X22830000Y121134000D02*
X22830000Y120170000D01*
X22830000Y124178000D02*
X22830000Y123214000D01*
X22790000Y121134000D02*
X22790000Y120139000D01*
X22790000Y124209000D02*
X22790000Y123214000D01*
X22750000Y121134000D02*
X22750000Y120109000D01*
X22750000Y124239000D02*
X22750000Y123214000D01*
X22710000Y121134000D02*
X22710000Y120079000D01*
X22710000Y124269000D02*
X22710000Y123214000D01*
X22670000Y121134000D02*
X22670000Y120052000D01*
X22670000Y124296000D02*
X22670000Y123214000D01*
X22630000Y121134000D02*
X22630000Y120025000D01*
X22630000Y124323000D02*
X22630000Y123214000D01*
X22590000Y121134000D02*
X22590000Y119999000D01*
X22590000Y124349000D02*
X22590000Y123214000D01*
X22550000Y121134000D02*
X22550000Y119974000D01*
X22550000Y124374000D02*
X22550000Y123214000D01*
X22510000Y121134000D02*
X22510000Y119950000D01*
X22510000Y124398000D02*
X22510000Y123214000D01*
X22470000Y121134000D02*
X22470000Y119927000D01*
X22470000Y124421000D02*
X22470000Y123214000D01*
X22430000Y121134000D02*
X22430000Y119906000D01*
X22430000Y124442000D02*
X22430000Y123214000D01*
X22390000Y121134000D02*
X22390000Y119884000D01*
X22390000Y124464000D02*
X22390000Y123214000D01*
X22350000Y121134000D02*
X22350000Y119864000D01*
X22350000Y124484000D02*
X22350000Y123214000D01*
X22310000Y121134000D02*
X22310000Y119845000D01*
X22310000Y124503000D02*
X22310000Y123214000D01*
X22270000Y121134000D02*
X22270000Y119826000D01*
X22270000Y124522000D02*
X22270000Y123214000D01*
X22230000Y121134000D02*
X22230000Y119809000D01*
X22230000Y124539000D02*
X22230000Y123214000D01*
X22190000Y121134000D02*
X22190000Y119792000D01*
X22190000Y124556000D02*
X22190000Y123214000D01*
X22150000Y121134000D02*
X22150000Y119776000D01*
X22150000Y124572000D02*
X22150000Y123214000D01*
X22110000Y121134000D02*
X22110000Y119760000D01*
X22110000Y124588000D02*
X22110000Y123214000D01*
X22070000Y121134000D02*
X22070000Y119746000D01*
X22070000Y124602000D02*
X22070000Y123214000D01*
X22030000Y121134000D02*
X22030000Y119732000D01*
X22030000Y124616000D02*
X22030000Y123214000D01*
X21990000Y121134000D02*
X21990000Y119719000D01*
X21990000Y124629000D02*
X21990000Y123214000D01*
X21950000Y121134000D02*
X21950000Y119706000D01*
X21950000Y124642000D02*
X21950000Y123214000D01*
X21910000Y121134000D02*
X21910000Y119694000D01*
X21910000Y124654000D02*
X21910000Y123214000D01*
X21869000Y121134000D02*
X21869000Y119683000D01*
X21869000Y124665000D02*
X21869000Y123214000D01*
X21829000Y121134000D02*
X21829000Y119673000D01*
X21829000Y124675000D02*
X21829000Y123214000D01*
X21789000Y121134000D02*
X21789000Y119663000D01*
X21789000Y124685000D02*
X21789000Y123214000D01*
X21749000Y121134000D02*
X21749000Y119654000D01*
X21749000Y124694000D02*
X21749000Y123214000D01*
X21709000Y121134000D02*
X21709000Y119646000D01*
X21709000Y124702000D02*
X21709000Y123214000D01*
X21669000Y121134000D02*
X21669000Y119638000D01*
X21669000Y124710000D02*
X21669000Y123214000D01*
X21629000Y121134000D02*
X21629000Y119631000D01*
X21629000Y124717000D02*
X21629000Y123214000D01*
X21589000Y121134000D02*
X21589000Y119624000D01*
X21589000Y124724000D02*
X21589000Y123214000D01*
X21549000Y121134000D02*
X21549000Y119618000D01*
X21549000Y124730000D02*
X21549000Y123214000D01*
X21509000Y121134000D02*
X21509000Y119613000D01*
X21509000Y124735000D02*
X21509000Y123214000D01*
X21469000Y121134000D02*
X21469000Y119609000D01*
X21469000Y124739000D02*
X21469000Y123214000D01*
X21429000Y121134000D02*
X21429000Y119605000D01*
X21429000Y124743000D02*
X21429000Y123214000D01*
X21389000Y124747000D02*
X21389000Y119601000D01*
X21349000Y124750000D02*
X21349000Y119598000D01*
X21309000Y124752000D02*
X21309000Y119596000D01*
X21269000Y124753000D02*
X21269000Y119595000D01*
X21229000Y124754000D02*
X21229000Y119594000D01*
X21189000Y124754000D02*
X21189000Y119594000D01*
X23809000Y122174000D02*
G75*
G03*
X23809000Y122174000I-2620000J0D01*
G01*
X6320000Y92340000D02*
X5615000Y92340000D01*
X8355000Y92340000D02*
X7650000Y92340000D01*
X6320000Y96580000D02*
X5615000Y96580000D01*
X8355000Y96580000D02*
X7650000Y96580000D01*
X5615000Y96580000D02*
X5615000Y92340000D01*
X8355000Y96580000D02*
X8355000Y92340000D01*
X57250000Y83547000D02*
X57250000Y79307000D01*
X54510000Y83547000D02*
X54510000Y79307000D01*
X57250000Y83547000D02*
X56545000Y83547000D01*
X55215000Y83547000D02*
X54510000Y83547000D01*
X57250000Y79307000D02*
X56545000Y79307000D01*
X55215000Y79307000D02*
X54510000Y79307000D01*
X24989000Y79180000D02*
X24284000Y79180000D01*
X27024000Y79180000D02*
X26319000Y79180000D01*
X24989000Y83420000D02*
X24284000Y83420000D01*
X27024000Y83420000D02*
X26319000Y83420000D01*
X24284000Y83420000D02*
X24284000Y79180000D01*
X27024000Y83420000D02*
X27024000Y79180000D01*
X81761000Y96580000D02*
X81761000Y92340000D01*
X79021000Y96580000D02*
X79021000Y92340000D01*
X81761000Y96580000D02*
X81056000Y96580000D01*
X79726000Y96580000D02*
X79021000Y96580000D01*
X81761000Y92340000D02*
X81056000Y92340000D01*
X79726000Y92340000D02*
X79021000Y92340000D01*
X57250000Y96628000D02*
X57250000Y92388000D01*
X54510000Y96628000D02*
X54510000Y92388000D01*
X57250000Y96628000D02*
X56545000Y96628000D01*
X55215000Y96628000D02*
X54510000Y96628000D01*
X57250000Y92388000D02*
X56545000Y92388000D01*
X55215000Y92388000D02*
X54510000Y92388000D01*
X30704000Y92388000D02*
X29999000Y92388000D01*
X32739000Y92388000D02*
X32034000Y92388000D01*
X30704000Y96628000D02*
X29999000Y96628000D01*
X32739000Y96628000D02*
X32034000Y96628000D01*
X29999000Y96628000D02*
X29999000Y92388000D01*
X32739000Y96628000D02*
X32739000Y92388000D01*
X106018000Y96501000D02*
X106018000Y92261000D01*
X103278000Y96501000D02*
X103278000Y92261000D01*
X106018000Y96501000D02*
X105313000Y96501000D01*
X103983000Y96501000D02*
X103278000Y96501000D01*
X106018000Y92261000D02*
X105313000Y92261000D01*
X103983000Y92261000D02*
X103278000Y92261000D01*
X79599000Y79180000D02*
X78894000Y79180000D01*
X81634000Y79180000D02*
X80929000Y79180000D01*
X79599000Y83420000D02*
X78894000Y83420000D01*
X81634000Y83420000D02*
X80929000Y83420000D01*
X78894000Y83420000D02*
X78894000Y79180000D01*
X81634000Y83420000D02*
X81634000Y79180000D01*
X51967000Y84677000D02*
X52297000Y84677000D01*
X52297000Y84677000D02*
X52297000Y78137000D01*
X52297000Y78137000D02*
X51967000Y78137000D01*
X49887000Y84677000D02*
X49557000Y84677000D01*
X49557000Y84677000D02*
X49557000Y78137000D01*
X49557000Y78137000D02*
X49887000Y78137000D01*
X9118000Y96690000D02*
X9118000Y95440000D01*
X27018000Y96690000D02*
X9118000Y96690000D01*
X27018000Y92190000D02*
X27018000Y96690000D01*
X9118000Y92190000D02*
X27018000Y92190000D01*
X9118000Y93440000D02*
X9118000Y92190000D01*
X9118000Y95440000D02*
G75*
G02*
X9118000Y93440000I0J-1000000D01*
G01*
X58140000Y83609000D02*
X58140000Y82359000D01*
X76040000Y83609000D02*
X58140000Y83609000D01*
X76040000Y79109000D02*
X76040000Y83609000D01*
X58140000Y79109000D02*
X76040000Y79109000D01*
X58140000Y80359000D02*
X58140000Y79109000D01*
X58140000Y82359000D02*
G75*
G02*
X58140000Y80359000I0J-1000000D01*
G01*
X106908000Y93440000D02*
X106908000Y92190000D01*
X106908000Y92190000D02*
X124808000Y92190000D01*
X124808000Y92190000D02*
X124808000Y96690000D01*
X124808000Y96690000D02*
X106908000Y96690000D01*
X106908000Y96690000D02*
X106908000Y95440000D01*
X106908000Y95440000D02*
G75*
G02*
X106908000Y93440000I0J-1000000D01*
G01*
X82524000Y93440000D02*
X82524000Y92190000D01*
X82524000Y92190000D02*
X100424000Y92190000D01*
X100424000Y92190000D02*
X100424000Y96690000D01*
X100424000Y96690000D02*
X82524000Y96690000D01*
X82524000Y96690000D02*
X82524000Y95440000D01*
X82524000Y95440000D02*
G75*
G02*
X82524000Y93440000I0J-1000000D01*
G01*
X32161000Y70720000D02*
X32866000Y70720000D01*
X30126000Y70720000D02*
X30831000Y70720000D01*
X32161000Y66480000D02*
X32866000Y66480000D01*
X30126000Y66480000D02*
X30831000Y66480000D01*
X32866000Y66480000D02*
X32866000Y70720000D01*
X30126000Y66480000D02*
X30126000Y70720000D01*
X62765000Y66313000D02*
X62765000Y70553000D01*
X65505000Y66313000D02*
X65505000Y70553000D01*
X62765000Y66313000D02*
X63470000Y66313000D01*
X64800000Y66313000D02*
X65505000Y66313000D01*
X62765000Y70553000D02*
X63470000Y70553000D01*
X64800000Y70553000D02*
X65505000Y70553000D01*
X65124000Y54337000D02*
X65124000Y50097000D01*
X62384000Y54337000D02*
X62384000Y50097000D01*
X65124000Y54337000D02*
X64419000Y54337000D01*
X63089000Y54337000D02*
X62384000Y54337000D01*
X65124000Y50097000D02*
X64419000Y50097000D01*
X63089000Y50097000D02*
X62384000Y50097000D01*
X98074000Y70426000D02*
X98779000Y70426000D01*
X96039000Y70426000D02*
X96744000Y70426000D01*
X98074000Y66186000D02*
X98779000Y66186000D01*
X96039000Y66186000D02*
X96744000Y66186000D01*
X98779000Y66186000D02*
X98779000Y70426000D01*
X96039000Y66186000D02*
X96039000Y70426000D01*
X73433000Y50057000D02*
X73433000Y54297000D01*
X76173000Y50057000D02*
X76173000Y54297000D01*
X73433000Y50057000D02*
X74138000Y50057000D01*
X75468000Y50057000D02*
X76173000Y50057000D01*
X73433000Y54297000D02*
X74138000Y54297000D01*
X75468000Y54297000D02*
X76173000Y54297000D01*
X73600000Y31810000D02*
X73600000Y29150000D01*
X93980000Y31810000D02*
X73600000Y31810000D01*
X93980000Y29150000D02*
X73600000Y29150000D01*
X93980000Y31810000D02*
X93980000Y29150000D01*
X95250000Y31810000D02*
X96580000Y31810000D01*
X96580000Y31810000D02*
X96580000Y30480000D01*
X73230000Y32180000D02*
X73230000Y380000D01*
X73230000Y380000D02*
X96930000Y380000D01*
X96930000Y380000D02*
X96930000Y32180000D01*
X96930000Y32180000D02*
X73230000Y32180000D01*
X90170000Y39430000D02*
X90170000Y36770000D01*
X90170000Y39430000D02*
X77410000Y39430000D01*
X77410000Y39430000D02*
X77410000Y36770000D01*
X90170000Y36770000D02*
X77410000Y36770000D01*
X92770000Y36770000D02*
X91440000Y36770000D01*
X92770000Y38100000D02*
X92770000Y36770000D01*
X25453000Y71845000D02*
X25783000Y71845000D01*
X25783000Y71845000D02*
X25783000Y65305000D01*
X25783000Y65305000D02*
X25453000Y65305000D01*
X23373000Y71845000D02*
X23043000Y71845000D01*
X23043000Y71845000D02*
X23043000Y65305000D01*
X23043000Y65305000D02*
X23373000Y65305000D01*
X58106000Y93488000D02*
X58106000Y92238000D01*
X58106000Y92238000D02*
X76006000Y92238000D01*
X76006000Y92238000D02*
X76006000Y96738000D01*
X76006000Y96738000D02*
X58106000Y96738000D01*
X58106000Y96738000D02*
X58106000Y95488000D01*
X58106000Y95488000D02*
G75*
G02*
X58106000Y93488000I0J-1000000D01*
G01*
X27880000Y80280000D02*
X27880000Y79030000D01*
X27880000Y79030000D02*
X45780000Y79030000D01*
X45780000Y79030000D02*
X45780000Y83530000D01*
X45780000Y83530000D02*
X27880000Y83530000D01*
X27880000Y83530000D02*
X27880000Y82280000D01*
X27880000Y82280000D02*
G75*
G02*
X27880000Y80280000I0J-1000000D01*
G01*
X33595000Y67580000D02*
X33595000Y66330000D01*
X33595000Y66330000D02*
X59115000Y66330000D01*
X59115000Y66330000D02*
X59115000Y70830000D01*
X59115000Y70830000D02*
X33595000Y70830000D01*
X33595000Y70830000D02*
X33595000Y69580000D01*
X33595000Y69580000D02*
G75*
G02*
X33595000Y67580000I0J-1000000D01*
G01*
X33468000Y96738000D02*
X33468000Y95488000D01*
X51368000Y96738000D02*
X33468000Y96738000D01*
X51368000Y92238000D02*
X51368000Y96738000D01*
X33468000Y92238000D02*
X51368000Y92238000D01*
X33468000Y93488000D02*
X33468000Y92238000D01*
X33468000Y95488000D02*
G75*
G02*
X33468000Y93488000I0J-1000000D01*
G01*
X66361000Y70703000D02*
X66361000Y69453000D01*
X91881000Y70703000D02*
X66361000Y70703000D01*
X91881000Y66203000D02*
X91881000Y70703000D01*
X66361000Y66203000D02*
X91881000Y66203000D01*
X66361000Y67453000D02*
X66361000Y66203000D01*
X66361000Y69453000D02*
G75*
G02*
X66361000Y67453000I0J-1000000D01*
G01*
X82532000Y80346000D02*
X82532000Y79096000D01*
X82532000Y79096000D02*
X102972000Y79096000D01*
X102972000Y79096000D02*
X102972000Y83596000D01*
X102972000Y83596000D02*
X82532000Y83596000D01*
X82532000Y83596000D02*
X82532000Y82346000D01*
X82532000Y82346000D02*
G75*
G02*
X82532000Y80346000I0J-1000000D01*
G01*
X99762000Y67326000D02*
X99762000Y66076000D01*
X99762000Y66076000D02*
X125282000Y66076000D01*
X125282000Y66076000D02*
X125282000Y70576000D01*
X125282000Y70576000D02*
X99762000Y70576000D01*
X99762000Y70576000D02*
X99762000Y69326000D01*
X99762000Y69326000D02*
G75*
G02*
X99762000Y67326000I0J-1000000D01*
G01*
X10354000Y51197000D02*
X10354000Y46137000D01*
X10354000Y46137000D02*
X61274000Y46137000D01*
X61274000Y46137000D02*
X61274000Y58257000D01*
X61274000Y58257000D02*
X10354000Y58257000D01*
X10354000Y58257000D02*
X10354000Y53197000D01*
X10354000Y53197000D02*
G75*
G02*
X10354000Y51197000I0J-1000000D01*
G01*
X78553000Y51197000D02*
X78553000Y46137000D01*
X78553000Y46137000D02*
X114233000Y46137000D01*
X114233000Y46137000D02*
X114233000Y58257000D01*
X114233000Y58257000D02*
X78553000Y58257000D01*
X78553000Y58257000D02*
X78553000Y53197000D01*
X78553000Y53197000D02*
G75*
G02*
X78553000Y51197000I0J-1000000D01*
G01*
X47117000Y10795000D02*
X47117000Y8255000D01*
X47117000Y8255000D02*
X49784000Y8255000D01*
X49784000Y10795000D02*
X49784000Y38862000D01*
X49784000Y5588000D02*
X49784000Y8255000D01*
X34417000Y8255000D02*
X31747000Y8255000D01*
X34417000Y8255000D02*
X34417000Y38862000D01*
X49784000Y38862000D02*
X31747000Y38862000D01*
X47117000Y10795000D02*
X49784000Y10795000D01*
X47117000Y10795000D02*
X47117000Y38862000D01*
X31750000Y38862000D02*
X31750000Y5588000D01*
X31750000Y5588000D02*
X49784000Y5588000D01*
X32960000Y110550000D02*
X32960000Y105350000D01*
X86360000Y110550000D02*
X32960000Y110550000D01*
X88960000Y105350000D02*
X32960000Y105350000D01*
X86360000Y110550000D02*
X86360000Y107950000D01*
X86360000Y107950000D02*
X88960000Y107950000D01*
X88960000Y107950000D02*
X88960000Y105350000D01*
X87630000Y110550000D02*
X88960000Y110550000D01*
X88960000Y110550000D02*
X88960000Y109220000D01*
X96707000Y120336000D02*
X96707000Y125536000D01*
X35687000Y120336000D02*
X96707000Y120336000D01*
X33087000Y125536000D02*
X96707000Y125536000D01*
X35687000Y120336000D02*
X35687000Y122936000D01*
X35687000Y122936000D02*
X33087000Y122936000D01*
X33087000Y122936000D02*
X33087000Y125536000D01*
X34417000Y120336000D02*
X33087000Y120336000D01*
X33087000Y120336000D02*
X33087000Y121666000D01*
X114367000Y119677000D02*
X119567000Y119677000D01*
X119567000Y119677000D02*
X119567000Y122337000D01*
X119567000Y122337000D02*
X114367000Y122337000D01*
X114367000Y122337000D02*
X114367000Y119677000D01*
X115317000Y122337000D02*
X115317000Y128337000D01*
X115317000Y128337000D02*
X116077000Y128337000D01*
X116077000Y128337000D02*
X116077000Y122337000D01*
X115377000Y122337000D02*
X115377000Y128337000D01*
X115497000Y122337000D02*
X115497000Y128337000D01*
X115617000Y122337000D02*
X115617000Y128337000D01*
X115737000Y122337000D02*
X115737000Y128337000D01*
X115857000Y122337000D02*
X115857000Y128337000D01*
X115977000Y122337000D02*
X115977000Y128337000D01*
X115317000Y119347000D02*
X115317000Y119677000D01*
X116077000Y119347000D02*
X116077000Y119677000D01*
X116967000Y119677000D02*
X116967000Y122337000D01*
X117857000Y122337000D02*
X117857000Y128337000D01*
X117857000Y128337000D02*
X118617000Y128337000D01*
X118617000Y128337000D02*
X118617000Y122337000D01*
X117857000Y119279929D02*
X117857000Y119677000D01*
X118617000Y119279929D02*
X118617000Y119677000D01*
X115697000Y116967000D02*
X114427000Y116967000D01*
X114427000Y116967000D02*
X114427000Y118237000D01*
D11*
X25621142Y121925334D02*
X25668761Y121877715D01*
X25716380Y121734858D01*
X25716380Y121639620D01*
X25668761Y121496762D01*
X25573523Y121401524D01*
X25478285Y121353905D01*
X25287809Y121306286D01*
X25144952Y121306286D01*
X24954476Y121353905D01*
X24859238Y121401524D01*
X24764000Y121496762D01*
X24716380Y121639620D01*
X24716380Y121734858D01*
X24764000Y121877715D01*
X24811619Y121925334D01*
X24811619Y122306286D02*
X24764000Y122353905D01*
X24716380Y122449143D01*
X24716380Y122687239D01*
X24764000Y122782477D01*
X24811619Y122830096D01*
X24906857Y122877715D01*
X25002095Y122877715D01*
X25144952Y122830096D01*
X25716380Y122258667D01*
X25716380Y122877715D01*
X6818333Y90702858D02*
X6770714Y90655239D01*
X6627857Y90607620D01*
X6532619Y90607620D01*
X6389761Y90655239D01*
X6294523Y90750477D01*
X6246904Y90845715D01*
X6199285Y91036191D01*
X6199285Y91179048D01*
X6246904Y91369524D01*
X6294523Y91464762D01*
X6389761Y91560000D01*
X6532619Y91607620D01*
X6627857Y91607620D01*
X6770714Y91560000D01*
X6818333Y91512381D01*
X7770714Y90607620D02*
X7199285Y90607620D01*
X7485000Y90607620D02*
X7485000Y91607620D01*
X7389761Y91464762D01*
X7294523Y91369524D01*
X7199285Y91321905D01*
X55573333Y77669858D02*
X55525714Y77622239D01*
X55382857Y77574620D01*
X55287619Y77574620D01*
X55144761Y77622239D01*
X55049523Y77717477D01*
X55001904Y77812715D01*
X54954285Y78003191D01*
X54954285Y78146048D01*
X55001904Y78336524D01*
X55049523Y78431762D01*
X55144761Y78527000D01*
X55287619Y78574620D01*
X55382857Y78574620D01*
X55525714Y78527000D01*
X55573333Y78479381D01*
X55906666Y78574620D02*
X56525714Y78574620D01*
X56192380Y78193667D01*
X56335238Y78193667D01*
X56430476Y78146048D01*
X56478095Y78098429D01*
X56525714Y78003191D01*
X56525714Y77765096D01*
X56478095Y77669858D01*
X56430476Y77622239D01*
X56335238Y77574620D01*
X56049523Y77574620D01*
X55954285Y77622239D01*
X55906666Y77669858D01*
X25487333Y77542858D02*
X25439714Y77495239D01*
X25296857Y77447620D01*
X25201619Y77447620D01*
X25058761Y77495239D01*
X24963523Y77590477D01*
X24915904Y77685715D01*
X24868285Y77876191D01*
X24868285Y78019048D01*
X24915904Y78209524D01*
X24963523Y78304762D01*
X25058761Y78400000D01*
X25201619Y78447620D01*
X25296857Y78447620D01*
X25439714Y78400000D01*
X25487333Y78352381D01*
X26344476Y78114286D02*
X26344476Y77447620D01*
X26106380Y78495239D02*
X25868285Y77780953D01*
X26487333Y77780953D01*
X80364333Y90702858D02*
X80316714Y90655239D01*
X80173857Y90607620D01*
X80078619Y90607620D01*
X79935761Y90655239D01*
X79840523Y90750477D01*
X79792904Y90845715D01*
X79745285Y91036191D01*
X79745285Y91179048D01*
X79792904Y91369524D01*
X79840523Y91464762D01*
X79935761Y91560000D01*
X80078619Y91607620D01*
X80173857Y91607620D01*
X80316714Y91560000D01*
X80364333Y91512381D01*
X81269095Y91607620D02*
X80792904Y91607620D01*
X80745285Y91131429D01*
X80792904Y91179048D01*
X80888142Y91226667D01*
X81126238Y91226667D01*
X81221476Y91179048D01*
X81269095Y91131429D01*
X81316714Y91036191D01*
X81316714Y90798096D01*
X81269095Y90702858D01*
X81221476Y90655239D01*
X81126238Y90607620D01*
X80888142Y90607620D01*
X80792904Y90655239D01*
X80745285Y90702858D01*
X55733333Y90570858D02*
X55685714Y90523239D01*
X55542857Y90475620D01*
X55447619Y90475620D01*
X55304761Y90523239D01*
X55209523Y90618477D01*
X55161904Y90713715D01*
X55114285Y90904191D01*
X55114285Y91047048D01*
X55161904Y91237524D01*
X55209523Y91332762D01*
X55304761Y91428000D01*
X55447619Y91475620D01*
X55542857Y91475620D01*
X55685714Y91428000D01*
X55733333Y91380381D01*
X56066666Y91475620D02*
X56733333Y91475620D01*
X56304761Y90475620D01*
X31182333Y90430858D02*
X31134714Y90383239D01*
X30991857Y90335620D01*
X30896619Y90335620D01*
X30753761Y90383239D01*
X30658523Y90478477D01*
X30610904Y90573715D01*
X30563285Y90764191D01*
X30563285Y90907048D01*
X30610904Y91097524D01*
X30658523Y91192762D01*
X30753761Y91288000D01*
X30896619Y91335620D01*
X30991857Y91335620D01*
X31134714Y91288000D01*
X31182333Y91240381D01*
X31753761Y90907048D02*
X31658523Y90954667D01*
X31610904Y91002286D01*
X31563285Y91097524D01*
X31563285Y91145143D01*
X31610904Y91240381D01*
X31658523Y91288000D01*
X31753761Y91335620D01*
X31944238Y91335620D01*
X32039476Y91288000D01*
X32087095Y91240381D01*
X32134714Y91145143D01*
X32134714Y91097524D01*
X32087095Y91002286D01*
X32039476Y90954667D01*
X31944238Y90907048D01*
X31753761Y90907048D01*
X31658523Y90859429D01*
X31610904Y90811810D01*
X31563285Y90716572D01*
X31563285Y90526096D01*
X31610904Y90430858D01*
X31658523Y90383239D01*
X31753761Y90335620D01*
X31944238Y90335620D01*
X32039476Y90383239D01*
X32087095Y90430858D01*
X32134714Y90526096D01*
X32134714Y90716572D01*
X32087095Y90811810D01*
X32039476Y90859429D01*
X31944238Y90907048D01*
X104125142Y90803858D02*
X104077523Y90756239D01*
X103934666Y90708620D01*
X103839428Y90708620D01*
X103696571Y90756239D01*
X103601333Y90851477D01*
X103553714Y90946715D01*
X103506095Y91137191D01*
X103506095Y91280048D01*
X103553714Y91470524D01*
X103601333Y91565762D01*
X103696571Y91661000D01*
X103839428Y91708620D01*
X103934666Y91708620D01*
X104077523Y91661000D01*
X104125142Y91613381D01*
X105077523Y90708620D02*
X104506095Y90708620D01*
X104791809Y90708620D02*
X104791809Y91708620D01*
X104696571Y91565762D01*
X104601333Y91470524D01*
X104506095Y91422905D01*
X105696571Y91708620D02*
X105791809Y91708620D01*
X105887047Y91661000D01*
X105934666Y91613381D01*
X105982285Y91518143D01*
X106029904Y91327667D01*
X106029904Y91089572D01*
X105982285Y90899096D01*
X105934666Y90803858D01*
X105887047Y90756239D01*
X105791809Y90708620D01*
X105696571Y90708620D01*
X105601333Y90756239D01*
X105553714Y90803858D01*
X105506095Y90899096D01*
X105458476Y91089572D01*
X105458476Y91327667D01*
X105506095Y91518143D01*
X105553714Y91613381D01*
X105601333Y91661000D01*
X105696571Y91708620D01*
X79381142Y77722858D02*
X79333523Y77675239D01*
X79190666Y77627620D01*
X79095428Y77627620D01*
X78952571Y77675239D01*
X78857333Y77770477D01*
X78809714Y77865715D01*
X78762095Y78056191D01*
X78762095Y78199048D01*
X78809714Y78389524D01*
X78857333Y78484762D01*
X78952571Y78580000D01*
X79095428Y78627620D01*
X79190666Y78627620D01*
X79333523Y78580000D01*
X79381142Y78532381D01*
X80333523Y77627620D02*
X79762095Y77627620D01*
X80047809Y77627620D02*
X80047809Y78627620D01*
X79952571Y78484762D01*
X79857333Y78389524D01*
X79762095Y78341905D01*
X81285904Y77627620D02*
X80714476Y77627620D01*
X81000190Y77627620D02*
X81000190Y78627620D01*
X80904952Y78484762D01*
X80809714Y78389524D01*
X80714476Y78341905D01*
X48347333Y82160620D02*
X48014000Y82636810D01*
X47775904Y82160620D02*
X47775904Y83160620D01*
X48156857Y83160620D01*
X48252095Y83113000D01*
X48299714Y83065381D01*
X48347333Y82970143D01*
X48347333Y82827286D01*
X48299714Y82732048D01*
X48252095Y82684429D01*
X48156857Y82636810D01*
X47775904Y82636810D01*
X48728285Y83065381D02*
X48775904Y83113000D01*
X48871142Y83160620D01*
X49109238Y83160620D01*
X49204476Y83113000D01*
X49252095Y83065381D01*
X49299714Y82970143D01*
X49299714Y82874905D01*
X49252095Y82732048D01*
X48680666Y82160620D01*
X49299714Y82160620D01*
X13738095Y94607620D02*
X13738095Y93798096D01*
X13785714Y93702858D01*
X13833333Y93655239D01*
X13928571Y93607620D01*
X14119047Y93607620D01*
X14214285Y93655239D01*
X14261904Y93702858D01*
X14309523Y93798096D01*
X14309523Y94607620D01*
X15309523Y93607620D02*
X14738095Y93607620D01*
X15023809Y93607620D02*
X15023809Y94607620D01*
X14928571Y94464762D01*
X14833333Y94369524D01*
X14738095Y94321905D01*
X60258095Y81526620D02*
X60258095Y80717096D01*
X60305714Y80621858D01*
X60353333Y80574239D01*
X60448571Y80526620D01*
X60639047Y80526620D01*
X60734285Y80574239D01*
X60781904Y80621858D01*
X60829523Y80717096D01*
X60829523Y81526620D01*
X61258095Y81431381D02*
X61305714Y81479000D01*
X61400952Y81526620D01*
X61639047Y81526620D01*
X61734285Y81479000D01*
X61781904Y81431381D01*
X61829523Y81336143D01*
X61829523Y81240905D01*
X61781904Y81098048D01*
X61210476Y80526620D01*
X61829523Y80526620D01*
X109666095Y94607620D02*
X109666095Y93798096D01*
X109713714Y93702858D01*
X109761333Y93655239D01*
X109856571Y93607620D01*
X110047047Y93607620D01*
X110142285Y93655239D01*
X110189904Y93702858D01*
X110237523Y93798096D01*
X110237523Y94607620D01*
X110856571Y94179048D02*
X110761333Y94226667D01*
X110713714Y94274286D01*
X110666095Y94369524D01*
X110666095Y94417143D01*
X110713714Y94512381D01*
X110761333Y94560000D01*
X110856571Y94607620D01*
X111047047Y94607620D01*
X111142285Y94560000D01*
X111189904Y94512381D01*
X111237523Y94417143D01*
X111237523Y94369524D01*
X111189904Y94274286D01*
X111142285Y94226667D01*
X111047047Y94179048D01*
X110856571Y94179048D01*
X110761333Y94131429D01*
X110713714Y94083810D01*
X110666095Y93988572D01*
X110666095Y93798096D01*
X110713714Y93702858D01*
X110761333Y93655239D01*
X110856571Y93607620D01*
X111047047Y93607620D01*
X111142285Y93655239D01*
X111189904Y93702858D01*
X111237523Y93798096D01*
X111237523Y93988572D01*
X111189904Y94083810D01*
X111142285Y94131429D01*
X111047047Y94179048D01*
X84422095Y94607620D02*
X84422095Y93798096D01*
X84469714Y93702858D01*
X84517333Y93655239D01*
X84612571Y93607620D01*
X84803047Y93607620D01*
X84898285Y93655239D01*
X84945904Y93702858D01*
X84993523Y93798096D01*
X84993523Y94607620D01*
X85898285Y94274286D02*
X85898285Y93607620D01*
X85660190Y94655239D02*
X85422095Y93940953D01*
X86041142Y93940953D01*
X31333333Y64792858D02*
X31285714Y64745239D01*
X31142857Y64697620D01*
X31047619Y64697620D01*
X30904761Y64745239D01*
X30809523Y64840477D01*
X30761904Y64935715D01*
X30714285Y65126191D01*
X30714285Y65269048D01*
X30761904Y65459524D01*
X30809523Y65554762D01*
X30904761Y65650000D01*
X31047619Y65697620D01*
X31142857Y65697620D01*
X31285714Y65650000D01*
X31333333Y65602381D01*
X32190476Y65697620D02*
X32000000Y65697620D01*
X31904761Y65650000D01*
X31857142Y65602381D01*
X31761904Y65459524D01*
X31714285Y65269048D01*
X31714285Y64888096D01*
X31761904Y64792858D01*
X31809523Y64745239D01*
X31904761Y64697620D01*
X32095238Y64697620D01*
X32190476Y64745239D01*
X32238095Y64792858D01*
X32285714Y64888096D01*
X32285714Y65126191D01*
X32238095Y65221429D01*
X32190476Y65269048D01*
X32095238Y65316667D01*
X31904761Y65316667D01*
X31809523Y65269048D01*
X31761904Y65221429D01*
X31714285Y65126191D01*
X63833333Y64292858D02*
X63785714Y64245239D01*
X63642857Y64197620D01*
X63547619Y64197620D01*
X63404761Y64245239D01*
X63309523Y64340477D01*
X63261904Y64435715D01*
X63214285Y64626191D01*
X63214285Y64769048D01*
X63261904Y64959524D01*
X63309523Y65054762D01*
X63404761Y65150000D01*
X63547619Y65197620D01*
X63642857Y65197620D01*
X63785714Y65150000D01*
X63833333Y65102381D01*
X64309523Y64197620D02*
X64500000Y64197620D01*
X64595238Y64245239D01*
X64642857Y64292858D01*
X64738095Y64435715D01*
X64785714Y64626191D01*
X64785714Y65007143D01*
X64738095Y65102381D01*
X64690476Y65150000D01*
X64595238Y65197620D01*
X64404761Y65197620D01*
X64309523Y65150000D01*
X64261904Y65102381D01*
X64214285Y65007143D01*
X64214285Y64769048D01*
X64261904Y64673810D01*
X64309523Y64626191D01*
X64404761Y64578572D01*
X64595238Y64578572D01*
X64690476Y64626191D01*
X64738095Y64673810D01*
X64785714Y64769048D01*
X66611142Y51574143D02*
X66658761Y51526524D01*
X66706380Y51383667D01*
X66706380Y51288429D01*
X66658761Y51145572D01*
X66563523Y51050334D01*
X66468285Y51002715D01*
X66277809Y50955096D01*
X66134952Y50955096D01*
X65944476Y51002715D01*
X65849238Y51050334D01*
X65754000Y51145572D01*
X65706380Y51288429D01*
X65706380Y51383667D01*
X65754000Y51526524D01*
X65801619Y51574143D01*
X66706380Y52526524D02*
X66706380Y51955096D01*
X66706380Y52240810D02*
X65706380Y52240810D01*
X65849238Y52145572D01*
X65944476Y52050334D01*
X65992095Y51955096D01*
X65801619Y52907477D02*
X65754000Y52955096D01*
X65706380Y53050334D01*
X65706380Y53288429D01*
X65754000Y53383667D01*
X65801619Y53431286D01*
X65896857Y53478905D01*
X65992095Y53478905D01*
X66134952Y53431286D01*
X66706380Y52859858D01*
X66706380Y53478905D01*
X96857142Y63292858D02*
X96809523Y63245239D01*
X96666666Y63197620D01*
X96571428Y63197620D01*
X96428571Y63245239D01*
X96333333Y63340477D01*
X96285714Y63435715D01*
X96238095Y63626191D01*
X96238095Y63769048D01*
X96285714Y63959524D01*
X96333333Y64054762D01*
X96428571Y64150000D01*
X96571428Y64197620D01*
X96666666Y64197620D01*
X96809523Y64150000D01*
X96857142Y64102381D01*
X97809523Y63197620D02*
X97238095Y63197620D01*
X97523809Y63197620D02*
X97523809Y64197620D01*
X97428571Y64054762D01*
X97333333Y63959524D01*
X97238095Y63911905D01*
X98142857Y64197620D02*
X98761904Y64197620D01*
X98428571Y63816667D01*
X98571428Y63816667D01*
X98666666Y63769048D01*
X98714285Y63721429D01*
X98761904Y63626191D01*
X98761904Y63388096D01*
X98714285Y63292858D01*
X98666666Y63245239D01*
X98571428Y63197620D01*
X98285714Y63197620D01*
X98190476Y63245239D01*
X98142857Y63292858D01*
X72660142Y51534143D02*
X72707761Y51486524D01*
X72755380Y51343667D01*
X72755380Y51248429D01*
X72707761Y51105572D01*
X72612523Y51010334D01*
X72517285Y50962715D01*
X72326809Y50915096D01*
X72183952Y50915096D01*
X71993476Y50962715D01*
X71898238Y51010334D01*
X71803000Y51105572D01*
X71755380Y51248429D01*
X71755380Y51343667D01*
X71803000Y51486524D01*
X71850619Y51534143D01*
X72755380Y52486524D02*
X72755380Y51915096D01*
X72755380Y52200810D02*
X71755380Y52200810D01*
X71898238Y52105572D01*
X71993476Y52010334D01*
X72041095Y51915096D01*
X72088714Y53343667D02*
X72755380Y53343667D01*
X71707761Y53105572D02*
X72422047Y52867477D01*
X72422047Y53486524D01*
X98166666Y31047620D02*
X98166666Y30333334D01*
X98119047Y30190477D01*
X98023809Y30095239D01*
X97880952Y30047620D01*
X97785714Y30047620D01*
X98595238Y30952381D02*
X98642857Y31000000D01*
X98738095Y31047620D01*
X98976190Y31047620D01*
X99071428Y31000000D01*
X99119047Y30952381D01*
X99166666Y30857143D01*
X99166666Y30761905D01*
X99119047Y30619048D01*
X98547619Y30047620D01*
X99166666Y30047620D01*
X77828095Y15073334D02*
X78304285Y15073334D01*
X77732857Y14787620D02*
X78066190Y15787620D01*
X78399523Y14787620D01*
X78732857Y15311429D02*
X79066190Y15311429D01*
X79209047Y14787620D02*
X78732857Y14787620D01*
X78732857Y15787620D01*
X79209047Y15787620D01*
X79637619Y15168572D02*
X80399523Y15168572D01*
X80875714Y14787620D02*
X80875714Y15454286D01*
X80875714Y15359048D02*
X80923333Y15406667D01*
X81018571Y15454286D01*
X81161428Y15454286D01*
X81256666Y15406667D01*
X81304285Y15311429D01*
X81304285Y14787620D01*
X81304285Y15311429D02*
X81351904Y15406667D01*
X81447142Y15454286D01*
X81590000Y15454286D01*
X81685238Y15406667D01*
X81732857Y15311429D01*
X81732857Y14787620D01*
X82209047Y14787620D02*
X82209047Y15454286D01*
X82209047Y15787620D02*
X82161428Y15740000D01*
X82209047Y15692381D01*
X82256666Y15740000D01*
X82209047Y15787620D01*
X82209047Y15692381D01*
X83113809Y14835239D02*
X83018571Y14787620D01*
X82828095Y14787620D01*
X82732857Y14835239D01*
X82685238Y14882858D01*
X82637619Y14978096D01*
X82637619Y15263810D01*
X82685238Y15359048D01*
X82732857Y15406667D01*
X82828095Y15454286D01*
X83018571Y15454286D01*
X83113809Y15406667D01*
X83542380Y14787620D02*
X83542380Y15454286D01*
X83542380Y15263810D02*
X83590000Y15359048D01*
X83637619Y15406667D01*
X83732857Y15454286D01*
X83828095Y15454286D01*
X84304285Y14787620D02*
X84209047Y14835239D01*
X84161428Y14882858D01*
X84113809Y14978096D01*
X84113809Y15263810D01*
X84161428Y15359048D01*
X84209047Y15406667D01*
X84304285Y15454286D01*
X84447142Y15454286D01*
X84542380Y15406667D01*
X84590000Y15359048D01*
X84637619Y15263810D01*
X84637619Y14978096D01*
X84590000Y14882858D01*
X84542380Y14835239D01*
X84447142Y14787620D01*
X84304285Y14787620D01*
X85018571Y14835239D02*
X85161428Y14787620D01*
X85399523Y14787620D01*
X85494761Y14835239D01*
X85542380Y14882858D01*
X85590000Y14978096D01*
X85590000Y15073334D01*
X85542380Y15168572D01*
X85494761Y15216191D01*
X85399523Y15263810D01*
X85209047Y15311429D01*
X85113809Y15359048D01*
X85066190Y15406667D01*
X85018571Y15501905D01*
X85018571Y15597143D01*
X85066190Y15692381D01*
X85113809Y15740000D01*
X85209047Y15787620D01*
X85447142Y15787620D01*
X85590000Y15740000D01*
X86018571Y14787620D02*
X86018571Y15787620D01*
X86256666Y15787620D01*
X86399523Y15740000D01*
X86494761Y15644762D01*
X86542380Y15549524D01*
X86590000Y15359048D01*
X86590000Y15216191D01*
X86542380Y15025715D01*
X86494761Y14930477D01*
X86399523Y14835239D01*
X86256666Y14787620D01*
X86018571Y14787620D01*
X87018571Y15168572D02*
X87780476Y15168572D01*
X88732857Y14787620D02*
X88256666Y14787620D01*
X88256666Y15787620D01*
X89542380Y14787620D02*
X89066190Y14787620D01*
X89066190Y15787620D01*
X90447142Y14882858D02*
X90399523Y14835239D01*
X90256666Y14787620D01*
X90161428Y14787620D01*
X90018571Y14835239D01*
X89923333Y14930477D01*
X89875714Y15025715D01*
X89828095Y15216191D01*
X89828095Y15359048D01*
X89875714Y15549524D01*
X89923333Y15644762D01*
X90018571Y15740000D01*
X90161428Y15787620D01*
X90256666Y15787620D01*
X90399523Y15740000D01*
X90447142Y15692381D01*
X90875714Y14787620D02*
X90875714Y15787620D01*
X91447142Y14787620D01*
X91447142Y15787620D01*
X91780476Y15787620D02*
X92113809Y14787620D01*
X92447142Y15787620D01*
X93876666Y38647620D02*
X93876666Y37933334D01*
X93829047Y37790477D01*
X93733809Y37695239D01*
X93590952Y37647620D01*
X93495714Y37647620D01*
X94257619Y38647620D02*
X94876666Y38647620D01*
X94543333Y38266667D01*
X94686190Y38266667D01*
X94781428Y38219048D01*
X94829047Y38171429D01*
X94876666Y38076191D01*
X94876666Y37838096D01*
X94829047Y37742858D01*
X94781428Y37695239D01*
X94686190Y37647620D01*
X94400476Y37647620D01*
X94305238Y37695239D01*
X94257619Y37742858D01*
X22325380Y70313334D02*
X21849190Y69980000D01*
X22325380Y69741905D02*
X21325380Y69741905D01*
X21325380Y70122858D01*
X21373000Y70218096D01*
X21420619Y70265715D01*
X21515857Y70313334D01*
X21658714Y70313334D01*
X21753952Y70265715D01*
X21801571Y70218096D01*
X21849190Y70122858D01*
X21849190Y69741905D01*
X22325380Y71265715D02*
X22325380Y70694286D01*
X22325380Y70980000D02*
X21325380Y70980000D01*
X21468238Y70884762D01*
X21563476Y70789524D01*
X21611095Y70694286D01*
X60833095Y95035620D02*
X60833095Y94226096D01*
X60880714Y94130858D01*
X60928333Y94083239D01*
X61023571Y94035620D01*
X61214047Y94035620D01*
X61309285Y94083239D01*
X61356904Y94130858D01*
X61404523Y94226096D01*
X61404523Y95035620D01*
X61785476Y95035620D02*
X62404523Y95035620D01*
X62071190Y94654667D01*
X62214047Y94654667D01*
X62309285Y94607048D01*
X62356904Y94559429D01*
X62404523Y94464191D01*
X62404523Y94226096D01*
X62356904Y94130858D01*
X62309285Y94083239D01*
X62214047Y94035620D01*
X61928333Y94035620D01*
X61833095Y94083239D01*
X61785476Y94130858D01*
X30734095Y81700620D02*
X30734095Y80891096D01*
X30781714Y80795858D01*
X30829333Y80748239D01*
X30924571Y80700620D01*
X31115047Y80700620D01*
X31210285Y80748239D01*
X31257904Y80795858D01*
X31305523Y80891096D01*
X31305523Y81700620D01*
X32257904Y81700620D02*
X31781714Y81700620D01*
X31734095Y81224429D01*
X31781714Y81272048D01*
X31876952Y81319667D01*
X32115047Y81319667D01*
X32210285Y81272048D01*
X32257904Y81224429D01*
X32305523Y81129191D01*
X32305523Y80891096D01*
X32257904Y80795858D01*
X32210285Y80748239D01*
X32115047Y80700620D01*
X31876952Y80700620D01*
X31781714Y80748239D01*
X31734095Y80795858D01*
X37738095Y69127620D02*
X37738095Y68318096D01*
X37785714Y68222858D01*
X37833333Y68175239D01*
X37928571Y68127620D01*
X38119047Y68127620D01*
X38214285Y68175239D01*
X38261904Y68222858D01*
X38309523Y68318096D01*
X38309523Y69127620D01*
X39214285Y69127620D02*
X39023809Y69127620D01*
X38928571Y69080000D01*
X38880952Y69032381D01*
X38785714Y68889524D01*
X38738095Y68699048D01*
X38738095Y68318096D01*
X38785714Y68222858D01*
X38833333Y68175239D01*
X38928571Y68127620D01*
X39119047Y68127620D01*
X39214285Y68175239D01*
X39261904Y68222858D01*
X39309523Y68318096D01*
X39309523Y68556191D01*
X39261904Y68651429D01*
X39214285Y68699048D01*
X39119047Y68746667D01*
X38928571Y68746667D01*
X38833333Y68699048D01*
X38785714Y68651429D01*
X38738095Y68556191D01*
X37084095Y95035620D02*
X37084095Y94226096D01*
X37131714Y94130858D01*
X37179333Y94083239D01*
X37274571Y94035620D01*
X37465047Y94035620D01*
X37560285Y94083239D01*
X37607904Y94130858D01*
X37655523Y94226096D01*
X37655523Y95035620D01*
X38036476Y95035620D02*
X38703142Y95035620D01*
X38274571Y94035620D01*
X70238095Y69000620D02*
X70238095Y68191096D01*
X70285714Y68095858D01*
X70333333Y68048239D01*
X70428571Y68000620D01*
X70619047Y68000620D01*
X70714285Y68048239D01*
X70761904Y68095858D01*
X70809523Y68191096D01*
X70809523Y69000620D01*
X71333333Y68000620D02*
X71523809Y68000620D01*
X71619047Y68048239D01*
X71666666Y68095858D01*
X71761904Y68238715D01*
X71809523Y68429191D01*
X71809523Y68810143D01*
X71761904Y68905381D01*
X71714285Y68953000D01*
X71619047Y69000620D01*
X71428571Y69000620D01*
X71333333Y68953000D01*
X71285714Y68905381D01*
X71238095Y68810143D01*
X71238095Y68572048D01*
X71285714Y68476810D01*
X71333333Y68429191D01*
X71428571Y68381572D01*
X71619047Y68381572D01*
X71714285Y68429191D01*
X71761904Y68476810D01*
X71809523Y68572048D01*
X85756903Y81827621D02*
X85756903Y81018097D01*
X85804522Y80922859D01*
X85852141Y80875240D01*
X85947379Y80827621D01*
X86137856Y80827621D01*
X86233094Y80875240D01*
X86280713Y80922859D01*
X86328332Y81018097D01*
X86328332Y81827621D01*
X87328332Y80827621D02*
X86756903Y80827621D01*
X87042618Y80827621D02*
X87042618Y81827621D01*
X86947379Y81684763D01*
X86852141Y81589525D01*
X86756903Y81541906D01*
X87947379Y81827621D02*
X88042618Y81827621D01*
X88137856Y81780001D01*
X88185475Y81732382D01*
X88233094Y81637144D01*
X88280713Y81446668D01*
X88280713Y81208573D01*
X88233094Y81018097D01*
X88185475Y80922859D01*
X88137856Y80875240D01*
X88042618Y80827621D01*
X87947379Y80827621D01*
X87852141Y80875240D01*
X87804522Y80922859D01*
X87756903Y81018097D01*
X87709284Y81208573D01*
X87709284Y81446668D01*
X87756903Y81637144D01*
X87804522Y81732382D01*
X87852141Y81780001D01*
X87947379Y81827621D01*
X103761904Y69197620D02*
X103761904Y68388096D01*
X103809523Y68292858D01*
X103857142Y68245239D01*
X103952380Y68197620D01*
X104142857Y68197620D01*
X104238095Y68245239D01*
X104285714Y68292858D01*
X104333333Y68388096D01*
X104333333Y69197620D01*
X105333333Y68197620D02*
X104761904Y68197620D01*
X105047619Y68197620D02*
X105047619Y69197620D01*
X104952380Y69054762D01*
X104857142Y68959524D01*
X104761904Y68911905D01*
X106285714Y68197620D02*
X105714285Y68197620D01*
X106000000Y68197620D02*
X106000000Y69197620D01*
X105904761Y69054762D01*
X105809523Y68959524D01*
X105714285Y68911905D01*
X19261904Y52547620D02*
X19261904Y51738096D01*
X19309523Y51642858D01*
X19357142Y51595239D01*
X19452380Y51547620D01*
X19642857Y51547620D01*
X19738095Y51595239D01*
X19785714Y51642858D01*
X19833333Y51738096D01*
X19833333Y52547620D01*
X20833333Y51547620D02*
X20261904Y51547620D01*
X20547619Y51547620D02*
X20547619Y52547620D01*
X20452380Y52404762D01*
X20357142Y52309524D01*
X20261904Y52261905D01*
X21214285Y52452381D02*
X21261904Y52500000D01*
X21357142Y52547620D01*
X21595238Y52547620D01*
X21690476Y52500000D01*
X21738095Y52452381D01*
X21785714Y52357143D01*
X21785714Y52261905D01*
X21738095Y52119048D01*
X21166666Y51547620D01*
X21785714Y51547620D01*
X86761904Y52547620D02*
X86761904Y51738096D01*
X86809523Y51642858D01*
X86857142Y51595239D01*
X86952380Y51547620D01*
X87142857Y51547620D01*
X87238095Y51595239D01*
X87285714Y51642858D01*
X87333333Y51738096D01*
X87333333Y52547620D01*
X88333333Y51547620D02*
X87761904Y51547620D01*
X88047619Y51547620D02*
X88047619Y52547620D01*
X87952380Y52404762D01*
X87857142Y52309524D01*
X87761904Y52261905D01*
X88666666Y52547620D02*
X89285714Y52547620D01*
X88952380Y52166667D01*
X89095238Y52166667D01*
X89190476Y52119048D01*
X89238095Y52071429D01*
X89285714Y51976191D01*
X89285714Y51738096D01*
X89238095Y51642858D01*
X89190476Y51595239D01*
X89095238Y51547620D01*
X88809523Y51547620D01*
X88714285Y51595239D01*
X88666666Y51642858D01*
X39528904Y4992620D02*
X39528904Y4183096D01*
X39576523Y4087858D01*
X39624142Y4040239D01*
X39719380Y3992620D01*
X39909857Y3992620D01*
X40005095Y4040239D01*
X40052714Y4087858D01*
X40100333Y4183096D01*
X40100333Y4992620D01*
X41100333Y3992620D02*
X40528904Y3992620D01*
X40814619Y3992620D02*
X40814619Y4992620D01*
X40719380Y4849762D01*
X40624142Y4754524D01*
X40528904Y4706905D01*
X41957476Y4659286D02*
X41957476Y3992620D01*
X41719380Y5040239D02*
X41481285Y4325953D01*
X42100333Y4325953D01*
X31162666Y108624620D02*
X31162666Y107910334D01*
X31115047Y107767477D01*
X31019809Y107672239D01*
X30876952Y107624620D01*
X30781714Y107624620D01*
X32067428Y108291286D02*
X32067428Y107624620D01*
X31829333Y108672239D02*
X31591238Y107957953D01*
X32210285Y107957953D01*
X31753666Y123483620D02*
X31753666Y122769334D01*
X31706047Y122626477D01*
X31610809Y122531239D01*
X31467952Y122483620D01*
X31372714Y122483620D01*
X32706047Y123483620D02*
X32229857Y123483620D01*
X32182238Y123007429D01*
X32229857Y123055048D01*
X32325095Y123102667D01*
X32563190Y123102667D01*
X32658428Y123055048D01*
X32706047Y123007429D01*
X32753666Y122912191D01*
X32753666Y122674096D01*
X32706047Y122578858D01*
X32658428Y122531239D01*
X32563190Y122483620D01*
X32325095Y122483620D01*
X32229857Y122531239D01*
X32182238Y122578858D01*
X112879380Y122288667D02*
X113593666Y122288667D01*
X113736523Y122241048D01*
X113831761Y122145810D01*
X113879380Y122002953D01*
X113879380Y121907715D01*
X112879380Y123193429D02*
X112879380Y123002953D01*
X112927000Y122907715D01*
X112974619Y122860096D01*
X113117476Y122764858D01*
X113307952Y122717239D01*
X113688904Y122717239D01*
X113784142Y122764858D01*
X113831761Y122812477D01*
X113879380Y122907715D01*
X113879380Y123098191D01*
X113831761Y123193429D01*
X113784142Y123241048D01*
X113688904Y123288667D01*
X113450809Y123288667D01*
X113355571Y123241048D01*
X113307952Y123193429D01*
X113260333Y123098191D01*
X113260333Y122907715D01*
X113307952Y122812477D01*
X113355571Y122764858D01*
X113450809Y122717239D01*
M02*
